SplineFontDB: 3.0
FontName: CursiveSans
FullName: Cursive Sans
FamilyName: Cursive Sans
Weight: Book
Copyright: Copyright (c) 2011, wmk69 (wmk69@o2.pl)\nwith Reserved Font Names 'CursiveSans' and 'Cursive Sans'.\n\nThis Font Software is licensed under the SIL Open Font License, Version 1.1.\nThis license is available with a FAQ at:\nhttp://scripts.sil.org/OFL
Version: 2.000
ItalicAngle: -13
UnderlinePosition: -79
UnderlineWidth: 120
Ascent: 1638
Descent: 410
LayerCount: 2
Layer: 0 1 "Warstwa t+AUIA-a"  1
Layer: 1 1 "Plan pierwszy"  0
XUID: [1021 783 23647091 7762759]
FSType: 0
OS2Version: 3
OS2_WeightWidthSlopeOnly: 0
OS2_UseTypoMetrics: 1
CreationTime: 1260698820
ModificationTime: 1317402590
PfmFamily: 33
TTFWeight: 400
TTFWidth: 5
LineGap: 0
VLineGap: 0
Panose: 2 11 5 2 2 2 4 13 2 4
OS2TypoAscent: 1950
OS2TypoAOffset: 0
OS2TypoDescent: -537
OS2TypoDOffset: 0
OS2TypoLinegap: 0
OS2WinAscent: 1950
OS2WinAOffset: 0
OS2WinDescent: 537
OS2WinDOffset: 0
HheadAscent: 1950
HheadAOffset: 0
HheadDescent: -537
HheadDOffset: 0
OS2SubXSize: 1434
OS2SubYSize: 1331
OS2SubXOff: 0
OS2SubYOff: 287
OS2SupXSize: 1434
OS2SupYSize: 1331
OS2SupXOff: 0
OS2SupYOff: 977
OS2StrikeYSize: 102
OS2StrikeYPos: 512
OS2Vendor: '    '
OS2CodePages: 20000093.00000000
OS2UnicodeRanges: 8000002f.4000204b.00000000.00000000
Lookup: 258 0 0 "'kern' Kerning poziomy w tablicy 0"  {"Podtablica 'kern' Kerning poziomy w tablicy 0"  } ['kern' ('DFLT' <'dflt' > 'grek' <'dflt' > 'latn' <'dflt' > ) ]
DEI: 91125
KernClass2: 28 16 "Podtablica 'kern' Kerning poziomy w tablicy 0" 
 79 A Agrave Aacute Acircumflex Atilde Adieresis Aring Amacron Abreve Aogonek Delta
 67 B D Eth germandbls Dcaron Dcroat Oslash Oslashacute uni1E02 uni1E0A

StartChar: .notdef
Encoding: 65536 -1 0
Width: 944
Flags: W
HStem: 0 68<283 692> 1442 68<600 1009>
VStem: 200 544<0 544> 549 544<966 1510>
DStem2: 200 0 267.301 0 0.224951 0.97437<84.9281 1495.02> 676.301 0 744 0 0.224951 0.97437<69.7887 1479.88>
LayerCount: 2
Fore
SplineSet
200 0 m 1,0,-1
 549 1510 l 1,1,-1
 1093 1510 l 1,2,-1
 744 0 l 1,3,-1
 200 0 l 1,0,-1
283 68 m 1,4,-1
 692 68 l 1,5,-1
 1009 1442 l 1,6,-1
 600 1442 l 1,7,-1
 283 68 l 1,4,-1
EndSplineSet
Validated: 1
EndChar

StartChar: exclam
Encoding: 33 33 4
Width: 659
GlyphClass: 2
Flags: W
HStem: -20 264<278.864 432.947> 1510 20G<656 710>
VStem: 222 267<35.6562 186.84> 523 263<1276.62 1479.32>
LayerCount: 2
Fore
SplineSet
222 80 m 0,0,1
 222 95 222 95 226 112 c 0,2,3
 239 167 239 167 286 206 c 0,4,5
 332 244 332 244 386 244 c 0,6,7
 441 244 441 244 469 206 c 0,8,9
 489 179 489 179 489 145 c 0,10,11
 489 129 489 129 485 112 c 0,12,13
 472 56 472 56 426 18 c 0,14,15
 379 -20 379 -20 325 -20 c 0,16,17
 270 -20 270 -20 242 18 c 0,18,19
 222 45 222 45 222 80 c 0,0,1
353 316 m 1,20,-1
 519 1376 l 2,21,22
 521 1388 521 1388 523 1398 c 0,23,24
 533 1453 533 1453 582 1492 c 0,25,26
 629 1530 629 1530 683 1530 c 128,-1,27
 737 1530 737 1530 766 1492 c 0,28,29
 786 1466 786 1466 786 1431 c 0,30,31
 786 1415 786 1415 782 1398 c 2,32,-1
 776 1376 l 1,33,-1
 451 316 l 1,34,-1
 353 316 l 1,20,-1
EndSplineSet
Validated: 1
EndChar

StartChar: quotedbl
Encoding: 34 34 5
Width: 830
GlyphClass: 2
Flags: W
HStem: 1101 449<558 598 814 854>
VStem: 484 504
LayerCount: 2
Fore
SplineSet
814 1550 m 1,0,-1
 988 1550 l 1,1,-1
 854 1101 l 1,2,-1
 740 1101 l 1,3,-1
 814 1550 l 1,0,-1
558 1550 m 1,4,-1
 732 1550 l 1,5,-1
 598 1101 l 1,6,-1
 484 1101 l 1,7,-1
 558 1550 l 1,4,-1
EndSplineSet
Validated: 1
EndChar

StartChar: numbersign
Encoding: 35 35 6
Width: 1354
GlyphClass: 2
Flags: W
HStem: 517 131<350 559 721 902 1063 1273> 859 131<429 638 800 981 1142 1352>
VStem: 504 131<277 408> 724 131<1099 1230> 847 130<277 407> 1067 130<1100 1230>
DStem2: 504 277 635 277 0.224951 0.97437<29.4686 246.221 410.306 597.227 761.311 978.064> 847 277 977 277 0.224951 0.97437<29.2436 246.221 410.081 597.227 761.086 978.064>
LayerCount: 2
Fore
SplineSet
724 1230 m 1,0,-1
 855 1230 l 1,1,-1
 800 990 l 1,2,-1
 1012 990 l 1,3,-1
 1067 1230 l 1,4,-1
 1197 1230 l 1,5,-1
 1142 990 l 1,6,-1
 1383 990 l 1,7,-1
 1352 859 l 1,8,-1
 1111 859 l 1,9,-1
 1063 648 l 1,10,-1
 1304 648 l 1,11,-1
 1273 517 l 1,12,-1
 1032 517 l 1,13,-1
 977 277 l 1,14,-1
 847 277 l 1,15,-1
 902 517 l 1,16,-1
 690 517 l 1,17,-1
 635 277 l 1,18,-1
 504 277 l 1,19,-1
 559 517 l 1,20,-1
 319 517 l 1,21,-1
 350 648 l 1,22,-1
 590 648 l 1,23,-1
 638 859 l 1,24,-1
 398 859 l 1,25,-1
 429 990 l 1,26,-1
 669 990 l 1,27,-1
 724 1230 l 1,0,-1
769 859 m 1,28,-1
 721 648 l 1,29,-1
 933 648 l 1,30,-1
 981 859 l 1,31,-1
 769 859 l 1,28,-1
EndSplineSet
Validated: 1
EndChar

StartChar: dollar
Encoding: 36 36 7
Width: 1346
GlyphClass: 2
Flags: W
HStem: -18 118<469.674 580 723 899.75> 348 251<353.582 456.176> 1028 256<1087 1189.37> 1431 97<1053 1129.49>
VStem: 224 280<395.71 529.2> 514 116<-302 -186> 520 183<1050.21 1282.09> 1003 115<1695 1810> 1034 283<1100.66 1231.39> 1131 205<351.574 620.066>
DStem2: 514 -302 629.538 -302 0.224951 0.97437<28.0431 291.568 439.686 1108.94 1335.37 1774.67 1904.35 2167.87> 809 1002 701 842 0.895523 -0.445015<-123.227 6.70818 169.018 443.254>
LayerCount: 2
Fore
SplineSet
630 -300 m 1,0,-1
 514 -302 l 1,1,-1
 580 -18 l 1,2,3
 386 -4 386 -4 294 129 c 0,4,5
 224 230 224 230 224 352 c 0,6,7
 224 402 224 402 236 457 c 0,8,9
 251 522 251 522 298 560 c 0,10,11
 346 599 346 599 399 599 c 0,12,13
 450 599 450 599 482 560 c 0,14,15
 504 533 504 533 504 500 c 0,16,17
 504 485 504 485 500 470 c 0,18,19
 484 410 484 410 441 380 c 0,20,21
 395 348 395 348 353 348 c 1,22,23
 380 123 380 123 607 100 c 1,24,-1
 771 806 l 1,25,-1
 701 842 l 2,26,27
 520 935 520 935 520 1107 c 0,28,29
 520 1148 520 1148 530 1193 c 0,30,31
 558 1320 558 1320 698 1430 c 0,32,33
 800 1510 800 1510 937 1526 c 1,34,-1
 1003 1810 l 1,35,-1
 1118 1810 l 1,36,-1
 1053 1528 l 1,37,38
 1208 1513 1208 1513 1280 1388 c 0,39,40
 1317 1324 1317 1324 1317 1251 c 0,41,42
 1317 1216 1317 1216 1308 1176 c 0,43,44
 1294 1113 1294 1113 1242 1070 c 0,45,46
 1192 1028 1192 1028 1138 1028 c 0,47,48
 1086 1028 1086 1028 1055 1066 c 0,49,50
 1034 1092 1034 1092 1034 1126 c 0,51,52
 1034 1141 1034 1141 1038 1157 c 0,53,54
 1052 1214 1052 1214 1098 1249 c 128,-1,55
 1144 1284 1144 1284 1190 1284 c 1,56,57
 1160 1411 1160 1411 1030 1431 c 1,58,-1
 919 948 l 1,59,-1
 1135 840 l 2,60,61
 1336 740 1336 740 1336 553 c 0,62,63
 1336 501 1336 501 1322 438 c 0,64,65
 1280 248 1280 248 1074 106 c 0,66,67
 915 -4 915 -4 695 -18 c 1,68,-1
 630 -300 l 1,0,-1
815 999 m 1,69,-1
 914 1427 l 1,70,71
 855 1414 855 1414 806 1376 c 0,72,73
 728 1315 728 1315 707 1216 c 0,74,75
 703 1197 703 1197 703 1178 c 0,76,77
 703 1055 703 1055 809 1002 c 2,78,-1
 815 999 l 1,69,-1
874 753 m 1,79,-1
 723 101 l 1,80,81
 887 114 887 114 989 202 c 0,82,83
 1092 291 1092 291 1124 424 c 0,84,85
 1131 453 1131 453 1131 480 c 0,86,87
 1131 621 1131 621 1005 686 c 2,88,-1
 874 753 l 1,79,-1
EndSplineSet
Validated: 1
EndChar

StartChar: percent
Encoding: 37 37 8
Width: 1671
GlyphClass: 2
Flags: W
HStem: -20 69<1101.52 1260.78> 582 88<1198.76 1375.49> 840 69<634.852 798.58> 1442 88<736.707 910.309>
VStem: 460 148<936.942 1268.38> 924 148<76.9424 408.355 1056.15 1274.56> 939 154<1087.76 1417.82> 1404 152<232.245 557.248>
DStem2: 329 50 446 -20 0.644927 0.764244<21.9594 1936.6>
LayerCount: 2
Fore
SplineSet
1297 582 m 0,0,1
 1233 582 1233 582 1176 515 c 128,-1,2
 1119 448 1119 448 1086 304 c 0,3,4
 1072 243 1072 243 1072 194 c 0,5,6
 1072 155 1072 155 1081 125 c 0,7,8
 1104 49 1104 49 1173 49 c 0,9,10
 1243 49 1243 49 1297 119 c 0,11,12
 1358 198 1358 198 1389 325 c 0,13,14
 1404 387 1404 387 1404 434 c 0,15,16
 1404 486 1404 486 1387 519 c 0,17,18
 1356 582 1356 582 1297 582 c 0,0,1
1162 -20 m 0,19,20
 1035 -20 1035 -20 964 83 c 0,21,22
 924 141 924 141 924 222 c 0,23,24
 924 267 924 267 936 318 c 0,25,26
 970 463 970 463 1077 564 c 0,27,28
 1189 670 1189 670 1322 670 c 0,29,30
 1451 670 1451 670 1518 561 c 0,31,32
 1556 499 1556 499 1556 417 c 0,33,34
 1556 371 1556 371 1544 317 c 0,35,36
 1515 188 1515 188 1404 85 c 0,37,38
 1290 -20 1290 -20 1162 -20 c 0,19,20
1578 1530 m 1,39,-1
 1700 1466 l 1,40,-1
 446 -20 l 1,41,-1
 329 50 l 1,42,-1
 1578 1530 l 1,39,-1
709 909 m 0,43,44
 780 909 780 909 833 979 c 0,45,46
 896 1062 896 1062 925 1185 c 0,47,48
 939 1244 939 1244 939 1291 c 0,49,50
 939 1343 939 1343 922 1379 c 0,51,52
 892 1442 892 1442 833 1442 c 0,53,54
 770 1442 770 1442 712 1375 c 0,55,56
 655 1309 655 1309 622 1164 c 0,57,58
 608 1103 608 1103 608 1053 c 0,59,60
 608 1016 608 1016 616 985 c 0,61,62
 636 909 636 909 709 909 c 0,43,44
857 1530 m 0,63,64
 984 1530 984 1530 1053 1421 c 0,65,66
 1093 1358 1093 1358 1093 1276 c 0,67,68
 1093 1230 1093 1230 1080 1177 c 0,69,70
 1050 1047 1050 1047 939 945 c 0,71,72
 825 840 825 840 698 840 c 0,73,74
 572 840 572 840 500 943 c 0,75,76
 460 1000 460 1000 460 1082 c 0,77,78
 460 1126 460 1126 472 1178 c 0,79,80
 505 1322 505 1322 613 1424 c 0,81,82
 725 1530 725 1530 857 1530 c 0,63,64
EndSplineSet
Validated: 1
EndChar

StartChar: ampersand
Encoding: 38 38 9
Width: 1530
GlyphClass: 2
Flags: W
HStem: -20 110<562.408 924.745> 0 21G<1130.96 1348> 1028 256<1111.23 1214.37> 1432 98<877.013 1155.21>
VStem: 239 226<188.7 535.023> 546 188<982.857 1287.38> 1059 282<1100.37 1232.63> 1281 275<676.815 841.614>
DStem2: 945 871 776 797 0.419917 -0.907562<-3.21855 565.52 746.165 872.371>
LayerCount: 2
Fore
SplineSet
1348 0 m 1,0,-1
 1140 0 l 1,1,-1
 1088 115 l 1,2,3
 910 -20 910 -20 687 -20 c 0,4,5
 465 -20 465 -20 339 100 c 0,6,7
 239 195 239 195 239 335 c 0,8,9
 239 386 239 386 252 442 c 0,10,11
 295 626 295 626 456 743 c 0,12,13
 599 847 599 847 781 864 c 1,14,15
 674 894 674 894 607 964 c 0,16,17
 546 1028 546 1028 546 1120 c 0,18,19
 546 1155 546 1155 555 1195 c 0,20,21
 590 1350 590 1350 762 1459 c 0,22,23
 875 1530 875 1530 1033 1530 c 0,24,25
 1223 1530 1223 1530 1305 1388 c 0,26,27
 1341 1326 1341 1326 1341 1252 c 0,28,29
 1341 1216 1341 1216 1332 1176 c 0,30,31
 1318 1113 1318 1113 1267 1070 c 0,32,33
 1217 1028 1217 1028 1163 1028 c 0,34,35
 1111 1028 1111 1028 1080 1066 c 0,36,37
 1059 1092 1059 1092 1059 1126 c 0,38,39
 1059 1141 1059 1141 1063 1157 c 0,40,41
 1077 1214 1077 1214 1122 1249 c 128,-1,42
 1167 1284 1167 1284 1215 1284 c 1,43,44
 1176 1432 1176 1432 1016 1432 c 0,45,46
 934 1432 934 1432 850 1369 c 0,47,48
 768 1308 768 1308 743 1192 c 0,49,50
 734 1151 734 1151 734 1115 c 0,51,52
 734 1050 734 1050 766 999 c 0,53,54
 814 924 814 924 945 871 c 1,55,-1
 1183 358 l 1,56,57
 1305 504 1305 504 1385 637 c 1,58,59
 1334 637 1334 637 1302 676 c 0,60,61
 1281 702 1281 702 1281 737 c 0,62,63
 1281 752 1281 752 1285 769 c 0,64,65
 1297 821 1297 821 1345 860 c 0,66,67
 1392 898 1392 898 1445 898 c 0,68,69
 1495 898 1495 898 1529 859 c 0,70,71
 1556 828 1556 828 1556 784 c 0,72,73
 1556 764 1556 764 1551 742 c 0,74,75
 1539 687 1539 687 1496 619 c 0,76,77
 1360 399 1360 399 1230 256 c 1,78,-1
 1348 0 l 1,0,-1
1046 207 m 1,79,-1
 776 797 l 1,80,81
 694 758 694 758 628 702 c 0,82,83
 512 604 512 604 476 438 c 0,84,85
 465 388 465 388 465 344 c 0,86,87
 465 253 465 253 514 182 c 0,88,89
 579 90 579 90 711 90 c 0,90,91
 901 90 901 90 1046 207 c 1,79,-1
EndSplineSet
Validated: 1
EndChar

StartChar: quotesingle
Encoding: 39 39 10
Width: 574
GlyphClass: 2
Flags: W
HStem: 1101 449<558 598>
VStem: 484 248
LayerCount: 2
Fore
SplineSet
558 1550 m 1,0,-1
 732 1550 l 1,1,-1
 598 1101 l 1,2,-1
 484 1101 l 1,3,-1
 558 1550 l 1,0,-1
EndSplineSet
Validated: 1
EndChar

StartChar: parenleft
Encoding: 40 40 11
Width: 654
GlyphClass: 2
Flags: W
VStem: 331 153<11.5317 622.611>
LayerCount: 2
Fore
SplineSet
963 1810 m 1,0,-1
 1013 1771 l 1,1,2
 847 1544 847 1544 741 1311 c 0,3,4
 626 1058 626 1058 556 755 c 0,5,6
 484 443 484 443 484 199 c 0,7,8
 484 -32 484 -32 544 -261 c 1,9,-1
 476 -300 l 1,10,11
 390 -129 390 -129 347 169 c 0,12,13
 331 279 331 279 331 389 c 0,14,15
 331 572 331 572 374 755 c 0,16,17
 444 1055 444 1055 618 1341 c 1,18,19
 796 1636 796 1636 963 1810 c 1,0,-1
EndSplineSet
Validated: 1
EndChar

StartChar: parenright
Encoding: 41 41 12
Width: 654
GlyphClass: 2
Flags: W
VStem: 519 152<886.288 1505.35>
LayerCount: 2
Fore
SplineSet
527 1810 m 1,0,1
 615 1634 615 1634 656 1341 c 0,2,3
 671 1235 671 1235 671 1126 c 0,4,5
 671 946 671 946 628 755 c 0,6,7
 559 454 559 454 385 169 c 0,8,9
 204 -128 204 -128 40 -300 c 1,10,-1
 -10 -261 l 1,11,12
 157 -32 157 -32 262 199 c 0,13,14
 371 437 371 437 446 755 c 0,15,16
 519 1065 519 1065 519 1311 c 0,17,18
 519 1543 519 1543 459 1771 c 1,19,-1
 527 1810 l 1,0,1
EndSplineSet
Validated: 1
EndChar

StartChar: asterisk
Encoding: 42 42 13
Width: 1389
GlyphClass: 2
Flags: W
HStem: 1530 20G<1032.47 1058.13>
LayerCount: 2
Fore
SplineSet
1043 1550 m 1,0,-1
 1057 1550 l 1,1,-1
 1075 1231 l 1,2,-1
 1239 1300 l 1,3,-1
 1138 1159 l 1,4,-1
 1435 1065 l 1,5,-1
 1432 1051 l 1,6,-1
 1091 959 l 1,7,-1
 1126 811 l 1,8,-1
 1001 880 l 1,9,-1
 834 561 l 1,10,-1
 820 561 l 1,11,-1
 801 880 l 1,12,-1
 637 811 l 1,13,-1
 739 952 l 1,14,-1
 441 1046 l 1,15,-1
 445 1060 l 1,16,-1
 785 1152 l 1,17,-1
 750 1300 l 1,18,-1
 875 1231 l 1,19,-1
 1043 1550 l 1,0,-1
EndSplineSet
Validated: 1
EndChar

StartChar: plus
Encoding: 43 43 14
Width: 1233
GlyphClass: 2
Flags: W
HStem: 680 150<392 699 884 1190>
VStem: 620 150<338 488> 813 150<1022 1172>
DStem2: 620 338 770 338 0.224951 0.97437<33.7427 351.006 538.777 856.04>
LayerCount: 2
Fore
SplineSet
813 1172 m 1,0,-1
 963 1172 l 1,1,-1
 884 830 l 1,2,-1
 1225 830 l 1,3,-1
 1190 680 l 1,4,-1
 849 680 l 1,5,-1
 770 338 l 1,6,-1
 620 338 l 1,7,-1
 699 680 l 1,8,-1
 357 680 l 1,9,-1
 392 830 l 1,10,-1
 734 830 l 1,11,-1
 813 1172 l 1,0,-1
EndSplineSet
Validated: 1
EndChar

StartChar: comma
Encoding: 44 44 15
Width: 705
GlyphClass: 2
Flags: W
HStem: -246 491
VStem: 254 276<16.8145 186.832>
LayerCount: 2
Fore
SplineSet
127 -231 m 1,0,1
 221 -184 221 -184 295 -108 c 0,2,3
 331 -71 331 -71 358 -20 c 1,4,5
 302 -20 302 -20 274 16 c 0,6,7
 254 42 254 42 254 76 c 0,8,9
 254 91 254 91 258 110 c 0,10,11
 273 168 273 168 318 206 c 0,12,13
 364 245 364 245 421 245 c 0,14,15
 477 245 477 245 506 210 c 0,16,17
 530 181 530 181 530 134 c 0,18,19
 530 108 530 108 523 77 c 0,20,21
 504 -6 504 -6 442 -78 c 0,22,23
 342 -194 342 -194 223 -232 c 0,24,25
 179 -246 179 -246 123 -246 c 1,26,-1
 127 -231 l 1,0,1
EndSplineSet
Validated: 1
EndChar

StartChar: hyphen
Encoding: 45 45 16
Width: 1233
GlyphClass: 2
Flags: W
HStem: 680 150<392 1190>
LayerCount: 2
Fore
SplineSet
392 830 m 1,0,-1
 1225 830 l 1,1,-1
 1190 680 l 1,2,-1
 357 680 l 1,3,-1
 392 830 l 1,0,-1
EndSplineSet
Validated: 1
EndChar

StartChar: period
Encoding: 46 46 17
Width: 659
GlyphClass: 2
Flags: W
HStem: -20 264<278.864 432.947>
VStem: 222 267<35.6562 186.84>
LayerCount: 2
Fore
SplineSet
222 80 m 0,0,1
 222 95 222 95 226 112 c 0,2,3
 239 167 239 167 286 206 c 0,4,5
 332 244 332 244 386 244 c 0,6,7
 441 244 441 244 469 206 c 0,8,9
 489 179 489 179 489 145 c 0,10,11
 489 129 489 129 485 112 c 0,12,13
 472 56 472 56 426 18 c 0,14,15
 379 -20 379 -20 325 -20 c 0,16,17
 270 -20 270 -20 242 18 c 0,18,19
 222 45 222 45 222 80 c 0,0,1
EndSplineSet
Validated: 1
EndChar

StartChar: slash
Encoding: 47 47 18
Width: 1065
GlyphClass: 2
Flags: W
DStem2: -8 -80 109 -150 0.601317 0.79901<14.4234 2177.4>
LayerCount: 2
Fore
SplineSet
1301 1660 m 1,0,-1
 1423 1596 l 1,1,-1
 109 -150 l 1,2,-1
 -8 -80 l 1,3,-1
 1301 1660 l 1,0,-1
EndSplineSet
Validated: 1
EndChar

StartChar: zero
Encoding: 48 48 19
Width: 1464
GlyphClass: 2
Flags: W
HStem: -20 105<615.707 917.481> 1425 105<904.284 1193.41>
VStem: 290 211<245.032 766.893> 1313 207<755.033 1265.19>
LayerCount: 2
Fore
SplineSet
1061 1425 m 0,0,1
 924 1425 924 1425 795 1294 c 0,2,3
 627 1123 627 1123 542 755 c 0,4,5
 501 577 501 577 501 444 c 0,6,7
 501 305 501 305 546 216 c 0,8,9
 612 85 612 85 752 85 c 0,10,11
 906 85 906 85 1024 215 c 0,12,13
 1185 392 1185 392 1270 755 c 0,14,15
 1313 939 1313 939 1313 1073 c 0,16,17
 1313 1211 1313 1211 1267 1294 c 0,18,19
 1194 1425 1194 1425 1061 1425 c 0,0,1
727 -20 m 0,20,21
 518 -20 518 -20 399 134 c 0,22,23
 290 275 290 275 290 491 c 0,24,25
 290 613 290 613 324 755 c 0,26,27
 416 1151 416 1151 686 1376 c 0,28,29
 871 1530 871 1530 1085 1530 c 0,30,31
 1300 1530 1300 1530 1414 1376 c 0,32,33
 1520 1233 1520 1233 1520 1016 c 0,34,35
 1520 898 1520 898 1488 755 c 0,36,37
 1395 352 1395 352 1129 139 c 0,38,39
 931 -20 931 -20 727 -20 c 0,20,21
EndSplineSet
Validated: 1
EndChar

StartChar: one
Encoding: 49 49 20
Width: 700
GlyphClass: 2
Flags: W
HStem: 0 21G<250 454.619> 1530 20G<709 808>
VStem: 250 200<0 200> 793 15<1543.4 1550>
DStem2: 250 0 450 0 0.224951 0.97437<44.9902 1096.25>
LayerCount: 2
Fore
SplineSet
250 0 m 25,0,-1
 480 995 l 2,1,2
 489 1036 489 1036 489 1071 c 0,3,4
 489 1196 489 1196 364 1230 c 1,5,6
 366 1237 366 1237 367 1245 c 9,7,8
 625 1338 625 1338 793 1550 c 1,9,-1
 808 1550 l 9,10,-1
 450 0 l 25,11,-1
 250 0 l 25,0,-1
EndSplineSet
Validated: 1
EndChar

StartChar: two
Encoding: 50 50 21
Width: 1319
GlyphClass: 2
Flags: W
HStem: -20 190<820.783 1054.52> 111 196<354.211 600.646> 1414 116<755.663 1068.08>
VStem: 390 267<966.953 1129.28> 1153 213<1010.63 1326.93>
LayerCount: 2
Fore
SplineSet
160 -20 m 1,0,-1
 145 -20 l 1,1,2
 219 300 219 300 606 578 c 2,3,-1
 925 807 l 2,4,5
 1103 936 1103 936 1143 1102 c 0,6,7
 1153 1144 1153 1144 1153 1183 c 0,8,9
 1153 1247 1153 1247 1126 1299 c 0,10,11
 1068 1414 1068 1414 914 1414 c 0,12,13
 692 1414 692 1414 556 1162 c 1,14,15
 607 1162 607 1162 636 1130 c 0,16,17
 657 1107 657 1107 657 1072 c 0,18,19
 657 1057 657 1057 653 1040 c 0,20,21
 640 987 640 987 594 950 c 0,22,23
 545 911 545 911 493 911 c 128,-1,24
 441 911 441 911 410 950 c 0,25,26
 390 975 390 975 390 1013 c 0,27,28
 390 1031 390 1031 395 1053 c 0,29,30
 437 1240 437 1240 602 1386 c 0,31,32
 764 1530 764 1530 969 1530 c 0,33,34
 1164 1530 1164 1530 1282 1406 c 0,35,36
 1366 1318 1366 1318 1366 1190 c 0,37,38
 1366 1140 1366 1140 1353 1084 c 0,39,40
 1304 860 1304 860 1083 728 c 2,41,-1
 671 481 l 2,42,43
 470 360 470 360 383 236 c 1,44,45
 477 307 477 307 538 307 c 0,46,47
 568 307 568 307 625 286 c 2,48,-1
 899 186 l 2,49,50
 943 170 943 170 989 170 c 0,51,52
 1102 170 1102 170 1247 318 c 1,53,-1
 1262 318 l 1,54,55
 1123 -20 1123 -20 911 -20 c 0,56,57
 880 -20 880 -20 764 16 c 2,58,-1
 514 93 l 2,59,60
 457 111 457 111 426 111 c 0,61,62
 321 111 321 111 160 -20 c 1,0,-1
EndSplineSet
Validated: 1
EndChar

StartChar: three
Encoding: 51 51 22
Width: 1300
GlyphClass: 2
Flags: W
HStem: -20 116<466.122 809.246> 348 251<367.25 476.176> 1432 98<786.741 1064.34>
VStem: 242 282<395.71 526.669> 242 124<199.421 348> 506 269<1083 1248.28> 1051 213<344.603 693.727> 1116 189<1097.92 1373.02>
LayerCount: 2
Fore
SplineSet
318 560 m 0,0,1
 366 599 366 599 419 599 c 0,2,3
 470 599 470 599 502 560 c 0,4,5
 524 533 524 533 524 500 c 0,6,7
 524 485 524 485 520 470 c 0,8,9
 504 410 504 410 461 380 c 0,10,11
 415 348 415 348 366 348 c 1,12,13
 386 96 386 96 635 96 c 0,14,15
 763 96 763 96 874 180 c 0,16,17
 1002 277 1002 277 1039 437 c 0,18,19
 1051 489 1051 489 1051 536 c 0,20,21
 1051 631 1051 631 1000 703 c 0,22,23
 923 812 923 812 754 856 c 1,24,-1
 757 871 l 1,25,26
 909 923 909 923 995 999 c 0,27,28
 1081 1074 1081 1074 1107 1192 c 0,29,30
 1116 1232 1116 1232 1116 1265 c 0,31,32
 1116 1328 1116 1328 1082 1369 c 0,33,34
 1028 1432 1028 1432 946 1432 c 0,35,36
 786 1432 786 1432 677 1284 c 1,37,38
 722 1284 722 1284 754 1249 c 0,39,40
 775 1226 775 1226 775 1191 c 0,41,42
 775 1176 775 1176 771 1157 c 0,43,44
 757 1103 757 1103 712 1066 c 0,45,46
 666 1028 666 1028 611 1028 c 0,47,48
 558 1028 558 1028 526 1070 c 0,49,50
 506 1096 506 1096 506 1134 c 0,51,52
 506 1153 506 1153 511 1176 c 0,53,54
 543 1299 543 1299 635 1388 c 0,55,56
 781 1530 781 1530 973 1530 c 0,57,58
 1131 1530 1131 1530 1212 1459 c 0,59,60
 1305 1377 1305 1377 1305 1264 c 0,61,62
 1305 1231 1305 1231 1297 1195 c 0,63,64
 1265 1051 1265 1051 1139 964 c 0,65,66
 1038 894 1038 894 917 864 c 1,67,68
 1093 847 1093 847 1188 743 c 0,69,70
 1264 660 1264 660 1264 542 c 0,71,72
 1264 495 1264 495 1252 442 c 0,73,74
 1203 227 1203 227 1007 100 c 0,75,76
 821 -20 821 -20 609 -20 c 0,77,78
 406 -20 406 -20 309 124 c 0,79,80
 242 223 242 223 242 343 c 0,81,82
 242 399 242 399 256 457 c 0,83,84
 272 523 272 523 318 560 c 0,0,1
EndSplineSet
Validated: 1
EndChar

StartChar: four
Encoding: 52 52 23
Width: 1177
GlyphClass: 2
Flags: W
HStem: 0 21G<727 931.611> 360 122<348 810 1038 1109> 1530 20G<1249.95 1285>
VStem: 727 200<0 200>
DStem2: 92 375 348 482 0.708008 0.706205<256.814 1160.49> 727 0 927 0 0.224951 0.97437<44.9902 369.444 539.606 1151.51>
LayerCount: 2
Fore
SplineSet
727 0 m 25,0,-1
 810 360 l 1,1,-1
 88 360 l 1,2,-1
 92 375 l 1,3,-1
 1270 1550 l 1,4,-1
 1285 1550 l 1,5,-1
 1038 482 l 1,6,-1
 1192 482 l 1,7,-1
 1109 360 l 1,8,-1
 1010 360 l 1,9,-1
 927 0 l 25,10,11
 727 0 l 25,0,-1
838 482 m 1,12,-1
 986 1122 l 1,13,-1
 348 482 l 1,14,-1
 838 482 l 1,12,-1
EndSplineSet
Validated: 1
EndChar

StartChar: five
Encoding: 53 53 24
Width: 1300
GlyphClass: 2
Flags: W
HStem: -20 116<466.122 809.448> 348 251<367.25 476.176> 813 115<670.066 951.76> 1304 206<865.344 1171>
VStem: 242 282<395.71 526.669> 242 124<199.421 348> 1054 213<352.47 710.982>
LayerCount: 2
Fore
SplineSet
318 560 m 0,0,1
 366 599 366 599 419 599 c 0,2,3
 470 599 470 599 502 560 c 0,4,5
 524 533 524 533 524 500 c 0,6,7
 524 485 524 485 520 470 c 0,8,9
 504 410 504 410 461 380 c 0,10,11
 415 348 415 348 366 348 c 1,12,13
 386 96 386 96 635 96 c 0,14,15
 764 96 764 96 874 180 c 0,16,17
 1003 279 1003 279 1039 437 c 0,18,19
 1054 503 1054 503 1054 557 c 0,20,21
 1054 645 1054 645 1014 705 c 0,22,23
 940 813 940 813 813 813 c 0,24,25
 685 813 685 813 559 680 c 1,26,27
 498 801 498 801 431 846 c 1,28,-1
 735 1510 l 1,29,-1
 1429 1510 l 1,30,31
 1275 1304 1275 1304 1073 1304 c 0,32,33
 870 1304 870 1304 785 1418 c 1,34,-1
 604 851 l 1,35,36
 734 928 734 928 888 928 c 0,37,38
 1092 928 1092 928 1206 767 c 0,39,40
 1267 681 1267 681 1267 565 c 0,41,42
 1267 507 1267 507 1252 442 c 0,43,44
 1202 227 1202 227 1007 100 c 0,45,46
 821 -20 821 -20 609 -20 c 0,47,48
 406 -20 406 -20 309 124 c 0,49,50
 242 223 242 223 242 343 c 0,51,52
 242 399 242 399 256 457 c 0,53,54
 272 523 272 523 318 560 c 0,0,1
EndSplineSet
Validated: 1
EndChar

StartChar: six
Encoding: 54 54 25
Width: 1346
GlyphClass: 2
Flags: W
HStem: -20 104<622.027 887.599> 923 112<746.843 1034.6> 1100 21G<1212.5 1267.5> 1426 104<897.867 1236.3>
VStem: 291 203<247.188 639.426> 1115 213<421.611 826.352> 1137 277<1166.03 1304.49>
LayerCount: 2
Fore
SplineSet
1341 1138 m 0,0,1
 1295 1100 1295 1100 1240 1100 c 128,-1,2
 1185 1100 1185 1100 1157 1138 c 0,3,4
 1137 1165 1137 1165 1137 1200 c 0,5,6
 1137 1214 1137 1214 1140 1229 c 0,7,8
 1150 1280 1150 1280 1199 1320 c 0,9,10
 1231 1346 1231 1346 1272 1355 c 1,11,12
 1198 1426 1198 1426 1057 1426 c 0,13,14
 915 1426 915 1426 789 1295 c 0,15,16
 635 1135 635 1135 570 854 c 1,17,18
 736 1035 736 1035 933 1035 c 0,19,20
 1134 1035 1134 1035 1247 886 c 0,21,22
 1328 779 1328 779 1328 636 c 0,23,24
 1328 572 1328 572 1311 496 c 1,25,26
 1259 278 1259 278 1067 117 c 0,27,28
 904 -20 904 -20 721 -20 c 0,29,30
 514 -20 514 -20 399 134 c 0,31,32
 291 279 291 279 291 495 c 0,33,34
 291 615 291 615 324 755 c 0,35,36
 413 1132 413 1132 684 1371 c 0,37,38
 864 1530 864 1530 1079 1530 c 0,39,40
 1221 1530 1221 1530 1311 1468 c 0,41,42
 1414 1397 1414 1397 1414 1295 c 0,43,44
 1414 1270 1414 1270 1408 1242 c 0,45,46
 1395 1183 1395 1183 1341 1138 c 0,0,1
891 923 m 0,47,48
 742 923 742 923 619 782 c 0,49,50
 547 699 547 699 510 545 c 0,51,52
 494 478 494 478 494 417 c 0,53,54
 494 304 494 304 546 216 c 1,55,56
 622 84 622 84 758 84 c 0,57,58
 872 84 872 84 968 208 c 0,59,60
 1047 310 1047 310 1091 499 c 0,61,62
 1115 602 1115 602 1115 679 c 0,63,64
 1115 755 1115 755 1092 805 c 0,65,66
 1038 923 1038 923 891 923 c 0,47,48
EndSplineSet
Validated: 1
EndChar

StartChar: seven
Encoding: 55 55 26
Width: 1019
GlyphClass: 2
Flags: W
HStem: -20 21G<446 504.5> 1213 186<920.68 1161.72> 1350 180<493.443 717.031>
VStem: 329 231<156.5 441.315>
DStem2: 570 714 762 732 0.72025 0.693715<-120.114 783.595>
LayerCount: 2
Fore
SplineSet
285 1192 m 1,0,1
 424 1530 424 1530 636 1530 c 0,2,3
 686 1530 686 1530 784 1494 c 2,4,-1
 993 1417 l 2,5,6
 1042 1399 1042 1399 1082 1399 c 0,7,8
 1187 1399 1187 1399 1347 1530 c 1,9,-1
 1362 1530 l 1,10,11
 1304 1309 1304 1309 1023 1008 c 1,12,-1
 762 732 l 1,13,14
 597 563 597 563 568 434 c 0,15,16
 560 400 560 400 560 364 c 0,17,18
 560 279 560 279 616 206 c 0,19,20
 638 178 638 178 638 143 c 0,21,22
 638 128 638 128 634 112 c 0,23,24
 619 53 619 53 579 18 c 0,25,26
 535 -20 535 -20 474 -20 c 0,27,28
 418 -20 418 -20 389 18 c 0,29,30
 329 97 329 97 329 216 c 0,31,32
 329 279 329 279 346 354 c 0,33,34
 388 540 388 540 570 714 c 2,35,-1
 950 1080 l 2,36,37
 1047 1174 1047 1174 1124 1274 c 1,38,39
 1044 1213 1044 1213 972 1213 c 0,40,41
 934 1213 934 1213 885 1234 c 2,42,-1
 651 1334 l 2,43,44
 614 1350 614 1350 561 1350 c 0,45,46
 464 1350 464 1350 300 1192 c 1,47,-1
 285 1192 l 1,0,1
EndSplineSet
Validated: 1
EndChar

StartChar: eight
Encoding: 56 56 27
Width: 1271
GlyphClass: 2
Flags: W
HStem: -20 138<468.461 826.375> 1398 132<803.213 1089.9>
VStem: 205 139<227.541 517.701> 480 197<1026.8 1259.48> 1066 203<360.294 636.967> 1149 150<1088.48 1339.75>
DStem2: 797 970 738 796 0.896854 -0.442326<-12.4352 155.151 256.272 393.484>
LayerCount: 2
Fore
SplineSet
908 914 m 1,0,1
 1015 969 1015 969 1080 1052 c 0,2,3
 1126 1110 1126 1110 1144 1186 c 0,4,5
 1149 1207 1149 1207 1149 1227 c 0,6,7
 1149 1286 1149 1286 1110 1334 c 0,8,9
 1059 1398 1059 1398 957 1398 c 0,10,11
 853 1398 853 1398 776 1333 c 0,12,13
 702 1271 702 1271 682 1186 c 0,14,15
 677 1165 677 1165 677 1146 c 0,16,17
 677 1031 677 1031 797 970 c 2,18,-1
 908 914 l 1,0,1
283 110 m 0,19,20
 205 200 205 200 205 320 c 0,21,22
 205 367 205 367 217 420 c 0,23,24
 248 561 248 561 358 676 c 0,25,26
 464 786 464 786 607 856 c 1,27,28
 480 947 480 947 480 1080 c 0,29,30
 480 1125 480 1125 492 1175 c 0,31,32
 525 1313 525 1313 664 1421 c 0,33,34
 804 1530 804 1530 980 1530 c 0,35,36
 1144 1530 1144 1530 1238 1421 c 0,37,38
 1299 1350 1299 1350 1299 1258 c 0,39,40
 1299 1223 1299 1223 1290 1185 c 0,41,42
 1260 1056 1260 1056 1182 980 c 0,43,44
 1116 917 1116 917 1028 859 c 1,45,-1
 1091 825 l 2,46,47
 1269 729 1269 729 1269 563 c 0,48,49
 1269 513 1269 513 1256 455 c 0,50,51
 1208 243 1208 243 1027 116 c 0,52,53
 832 -20 832 -20 636 -20 c 0,54,55
 396 -20 396 -20 283 110 c 0,19,20
738 796 m 1,56,57
 591 738 591 738 483 636 c 1,58,59
 379 536 379 536 353 428 c 0,60,61
 344 391 344 391 344 357 c 0,62,63
 344 266 344 266 409 206 c 0,64,65
 503 118 503 118 645 118 c 0,66,67
 796 118 796 118 930 229 c 0,68,69
 1030 311 1030 311 1058 436 c 0,70,71
 1066 472 1066 472 1066 504 c 0,72,73
 1066 623 1066 623 986 665 c 2,74,-1
 738 796 l 1,56,57
EndSplineSet
Validated: 1
EndChar

StartChar: nine
Encoding: 57 57 28
Width: 1346
GlyphClass: 2
Flags: W
HStem: -20 104<458.456 796.729> 475 112<656.888 945.918> 1426 104<806.937 1073.03>
VStem: 281 278<208.655 344.047> 367 213<681.796 1087.42> 1200 202<866.204 1264.51>
LayerCount: 2
Fore
SplineSet
354 372 m 0,0,1
 400 410 400 410 455 410 c 0,2,3
 508 410 508 410 538 372 c 0,4,5
 559 345 559 345 559 311 c 0,6,7
 559 300 559 300 555 281 c 0,8,9
 545 232 545 232 496 190 c 0,10,11
 465 164 465 164 423 155 c 1,12,13
 496 84 496 84 638 84 c 128,-1,14
 780 84 780 84 906 215 c 0,15,16
 1059 374 1059 374 1124 656 c 1,17,18
 959 475 959 475 762 475 c 0,19,20
 562 475 562 475 448 624 c 0,21,22
 367 730 367 730 367 874 c 0,23,24
 367 940 367 940 384 1014 c 0,25,26
 434 1230 434 1230 628 1393 c 0,27,28
 791 1530 791 1530 973 1530 c 0,29,30
 1182 1530 1182 1530 1296 1376 c 0,31,32
 1402 1233 1402 1233 1402 1016 c 0,33,34
 1402 899 1402 899 1370 755 c 0,35,36
 1285 380 1285 380 1011 139 c 0,37,38
 830 -20 830 -20 615 -20 c 0,39,40
 474 -20 474 -20 384 42 c 0,41,42
 281 113 281 113 281 215 c 0,43,44
 281 240 281 240 287 268 c 0,45,46
 300 327 300 327 354 372 c 0,0,1
936 1426 m 0,47,48
 822 1426 822 1426 727 1302 c 0,49,50
 646 1196 646 1196 603 1011 c 0,51,52
 580 912 580 912 580 835.5 c 128,-1,53
 580 759 580 759 603 705 c 0,54,55
 653 587 653 587 804 587 c 0,56,57
 953 587 953 587 1076 728 c 0,58,59
 1151 814 1151 814 1185 965 c 0,60,61
 1200 1032 1200 1032 1200 1093 c 0,62,63
 1200 1204 1200 1204 1149 1294 c 0,64,65
 1074 1426 1074 1426 936 1426 c 0,47,48
EndSplineSet
Validated: 1
EndChar

StartChar: colon
Encoding: 58 58 29
Width: 659
GlyphClass: 2
Flags: W
HStem: -20 264<278.014 432.947> 625 264<428.052 581.447>
VStem: 222 267<35.4863 188.441> 371 267<681.591 832.33>
LayerCount: 2
Fore
SplineSet
434 850 m 0,0,1
 482 889 482 889 535 889 c 0,2,3
 589 889 589 889 618 850 c 0,4,5
 638 823 638 823 638 789 c 0,6,7
 638 774 638 774 634 757 c 0,8,9
 621 702 621 702 575 664 c 0,10,11
 528 625 528 625 474 625 c 0,12,13
 421 625 421 625 391 664 c 0,14,15
 371 689 371 689 371 725 c 0,16,17
 371 742 371 742 375 757 c 0,18,19
 390 815 390 815 434 850 c 0,0,1
285 206 m 128,-1,21
 331 244 331 244 386 244 c 128,-1,22
 441 244 441 244 469 206 c 0,23,24
 489 179 489 179 489 145 c 0,25,26
 489 129 489 129 485 112 c 0,27,28
 472 56 472 56 426 18 c 0,29,30
 379 -20 379 -20 325 -20 c 0,31,32
 269 -20 269 -20 242 18 c 0,33,34
 222 46 222 46 222 80 c 0,35,36
 222 95 222 95 226 112 c 0,37,20
 239 168 239 168 285 206 c 128,-1,21
EndSplineSet
Validated: 1
EndChar

StartChar: semicolon
Encoding: 59 59 30
Width: 659
GlyphClass: 2
Flags: W
HStem: 625 264<428.052 581.447>
VStem: 219 277<15.8142 186.448> 371 267<681.438 833.214>
LayerCount: 2
Fore
SplineSet
92 -232 m 1,0,1
 194 -181 194 -181 261 -109 c 0,2,3
 296 -71 296 -71 324 -21 c 1,4,5
 267 -21 267 -21 239 15 c 0,6,7
 219 41 219 41 219 74 c 0,8,9
 219 88 219 88 224 109 c 0,10,11
 238 168 238 168 283 205 c 0,12,13
 330 244 330 244 386 244 c 0,14,15
 443 244 443 244 472 209 c 0,16,17
 496 180 496 180 496 133 c 0,18,19
 496 107 496 107 489 76 c 0,20,21
 470 -7 470 -7 408 -79 c 0,22,23
 308 -195 308 -195 189 -233 c 0,24,25
 145 -247 145 -247 89 -247 c 1,26,-1
 92 -232 l 1,0,1
434 850 m 0,27,28
 482 889 482 889 535 889 c 0,29,30
 589 889 589 889 618 850 c 0,31,32
 638 823 638 823 638 789 c 0,33,34
 638 774 638 774 634 757 c 0,35,36
 621 702 621 702 575 664 c 0,37,38
 528 625 528 625 474 625 c 0,39,40
 421 625 421 625 391 664 c 0,41,42
 371 690 371 690 371 725 c 0,43,44
 371 738 371 738 375 757 c 0,45,46
 385 810 385 810 434 850 c 0,27,28
EndSplineSet
Validated: 1
EndChar

StartChar: less
Encoding: 60 60 31
Width: 1356
GlyphClass: 2
Flags: W
DStem2: 612 783 323 750 0.84847 -0.529244<0 724.56> 327 765 612 783 0.89426 0.447549<262.92 1180.16>
LayerCount: 2
Fore
SplineSet
327 765 m 1,0,-1
 1394 1299 l 1,1,-1
 1432 1194 l 1,2,-1
 612 783 l 1,3,-1
 1234 410 l 1,4,-1
 1131 246 l 1,5,-1
 323 750 l 1,6,-1
 327 765 l 1,0,-1
EndSplineSet
Validated: 1
EndChar

StartChar: equal
Encoding: 61 61 32
Width: 1233
GlyphClass: 2
Flags: W
HStem: 530 150<357 1155> 830 150<426 1225>
LayerCount: 2
Fore
SplineSet
426 980 m 1,0,-1
 1259 980 l 1,1,-1
 1225 830 l 1,2,-1
 392 830 l 1,3,-1
 426 980 l 1,0,-1
357 680 m 1,4,-1
 1190 680 l 1,5,-1
 1155 530 l 1,6,-1
 322 530 l 1,7,-1
 357 680 l 1,4,-1
EndSplineSet
Validated: 1
EndChar

StartChar: greater
Encoding: 62 62 33
Width: 1356
GlyphClass: 2
Flags: W
DStem2: 281 351 319 246 0.89426 0.447549<0 913.657> 582 1299 476 1133 0.84847 -0.529244<0 723.073>
LayerCount: 2
Fore
SplineSet
1386 780 m 1,0,-1
 319 246 l 1,1,-1
 281 351 l 1,2,-1
 1098 760 l 1,3,-1
 476 1133 l 1,4,-1
 582 1299 l 1,5,-1
 1390 795 l 1,6,-1
 1386 780 l 1,0,-1
EndSplineSet
Validated: 1
EndChar

StartChar: question
Encoding: 63 63 34
Width: 1251
GlyphClass: 2
Flags: W
HStem: -20 264<510.864 664.947> 1414 116<753.663 1067.02>
VStem: 388 267<966.953 1129.28> 454 267<35.6562 186.84> 592 93<382 472.816> 1151 213<1007.14 1328.48>
LayerCount: 2
Fore
SplineSet
592 382 m 1,0,1
 629 540 629 540 779 664 c 2,2,-1
 910 772 l 2,3,4
 1100 928 1100 928 1141 1102 c 0,5,6
 1151 1144 1151 1144 1151 1183 c 0,7,8
 1151 1241 1151 1241 1124 1299 c 0,9,10
 1070 1414 1070 1414 912 1414 c 0,11,12
 690 1414 690 1414 554 1162 c 1,13,14
 605 1162 605 1162 634 1130 c 0,15,16
 655 1107 655 1107 655 1072 c 0,17,18
 655 1057 655 1057 651 1040 c 0,19,20
 638 987 638 987 592 950 c 0,21,22
 543 911 543 911 491 911 c 128,-1,23
 439 911 439 911 408 950 c 0,24,25
 388 975 388 975 388 1013 c 0,26,27
 388 1031 388 1031 393 1053 c 0,28,29
 435 1240 435 1240 600 1386 c 0,30,31
 762 1530 762 1530 967 1530 c 0,32,33
 1162 1530 1162 1530 1280 1406 c 0,34,35
 1364 1318 1364 1318 1364 1190 c 0,36,37
 1364 1140 1364 1140 1351 1084 c 0,38,39
 1310 896 1310 896 1072 735 c 2,40,-1
 844 581 l 2,41,42
 710 490 710 490 685 382 c 1,43,-1
 592 382 l 1,0,1
518 206 m 0,44,45
 564 244 564 244 618 244 c 0,46,47
 673 244 673 244 701 206 c 0,48,49
 721 179 721 179 721 145 c 0,50,51
 721 129 721 129 717 112 c 0,52,53
 704 56 704 56 658 18 c 0,54,55
 611 -20 611 -20 557 -20 c 0,56,57
 502 -20 502 -20 474 18 c 0,58,59
 454 45 454 45 454 80 c 0,60,61
 454 95 454 95 458 112 c 0,62,63
 471 167 471 167 518 206 c 0,44,45
EndSplineSet
Validated: 1
EndChar

StartChar: at
Encoding: 64 64 35
Width: 1369
GlyphClass: 2
Flags: W
HStem: -430 105<545.138 633> -20 102<730.283 900.322> 0 21G<919 1123.61> 1017 103<805.069 1071.61>
VStem: 197 188<-128.608 387.102> 502 187<143.162 406.89> 1111 199<658.219 976.787>
DStem2: 819.727 -430 1019.73 -430 0.224951 0.97437<486.301 492.729 536.505 1063.27 1099.23 1331.07>
LayerCount: 2
Fore
SplineSet
1119 0 m 17,0,1
 1019 0 1019 0 919 0 c 25,2,-1
 931 50 l 17,3,4
 856 -20 856 -20 772 -20 c 24,5,6
 675 -20 675 -20 595 51 c 0,7,8
 502 134 502 134 502 246 c 0,9,10
 502 279 502 279 510 315 c 0,11,12
 544 467 544 467 668 546 c 0,13,14
 831 649 831 649 1070 652 c 1,15,-1
 1100 786 l 2,16,17
 1111 833 1111 833 1111 870 c 0,18,19
 1111 927 1111 927 1085 959 c 0,20,21
 1038 1017 1038 1017 942 1017 c 0,22,23
 805 1017 805 1017 651 836 c 0,24,25
 485 641 485 641 414 334 c 0,26,27
 385 209 385 209 385 103 c 0,28,29
 385 -61 385 -61 455 -179 c 0,30,31
 533 -311 533 -311 657 -325 c 1,32,-1
 633 -430 l 1,33,34
 422 -430 422 -430 304 -276 c 0,35,36
 197 -136 197 -136 197 80 c 0,37,38
 197 200 197 200 230 345 c 0,39,40
 325 762 325 762 591 966 c 0,41,42
 792 1120 792 1120 994 1120 c 0,43,44
 1148 1120 1148 1120 1230 1048 c 0,45,46
 1310 978 1310 978 1310 868 c 0,47,48
 1310 830 1310 830 1300 785 c 2,49,-1
 1119 0 l 17,0,1
1059 606 m 1,50,51
 918 560 918 560 825 502 c 0,52,53
 727 441 727 441 699 318 c 0,54,55
 689 274 689 274 689 238 c 0,56,57
 689 179 689 179 717 142 c 0,58,59
 762 82 762 82 834 82 c 0,60,61
 938 82 938 82 978 256 c 2,62,-1
 1059 606 l 1,50,51
EndSplineSet
Validated: 1
EndChar

StartChar: A
Encoding: 65 65 36
Width: 1239
GlyphClass: 2
Flags: W
HStem: 0 21G<20 149.904 1027.75 1219> 541 101<521 926> 1490 20G<784 980.205>
VStem: 20 118<0 118> 784 193<1317 1510> 1031 188<0 188>
DStem2: 20 0 138 0 0.521688 0.853136<61.5592 691.089 809.079 1431.97> 977 1510 784 1510 0.161431 -0.986884<0 176.644 310.284 848.382 950.802 1498.91>
LayerCount: 2
Fore
SplineSet
20 0 m 9,0,-1
 818 1305 l 1,1,-1
 784 1510 l 25,2,-1
 977 1510 l 25,3,-1
 1219 0 l 25,4,-1
 1031 0 l 25,5,-1
 943 541 l 1,6,-1
 460 541 l 1,7,-1
 138 0 l 17,8,-1
 20 0 l 9,0,-1
521 642 m 1,9,-1
 926 642 l 1,10,-1
 845 1174 l 1,11,-1
 521 642 l 1,9,-1
EndSplineSet
Validated: 1
EndChar

StartChar: B
Encoding: 66 66 37
Width: 1405
GlyphClass: 2
Flags: W
HStem: 0 100<512 910> 1090 20G<540.387 745> 1430 100<768.302 1133.97>
VStem: 545 200<910 1110> 1185 208<358.16 683.555 1084.38 1239.06> 1202 191<1083.35 1365.13>
DStem2: 289 0 488.913 0 0.224951 0.97437<147.601 1139.14>
LayerCount: 2
Fore
SplineSet
289 0 m 9,0,-1
 545 1110 l 1,1,-1
 745 1110 l 1,2,-1
 512 100 l 17,3,-1
 687 100 l 2,4,5
 898 100 898 100 1049 228 c 0,6,7
 1142 307 1142 307 1176 462 c 0,8,9
 1185 503 1185 503 1185 540 c 0,10,11
 1185 646 1185 646 1108 725 c 0,12,13
 1025 809 1025 809 836 841 c 1,14,15
 965 881 965 881 1055 948 c 0,16,17
 1160 1026 1160 1026 1191 1158 c 0,18,19
 1202 1205 1202 1205 1202 1243 c 0,20,21
 1202 1309 1202 1309 1170 1351 c 8,22,23
 1110 1430 1110 1430 980 1430 c 0,24,25
 627 1430 627 1430 347 1004 c 1,26,-1
 263 1053 l 1,27,28
 573 1530 573 1530 1002 1530 c 0,29,30
 1243 1530 1243 1530 1339 1398 c 0,31,32
 1393 1324 1393 1324 1393 1240 c 0,33,34
 1393 1210 1393 1210 1386 1178 c 0,35,36
 1358 1052 1358 1052 1226 944 c 0,37,38
 1165 894 1165 894 1091 865 c 1,39,40
 1187 847 1187 847 1268 790 c 0,41,42
 1393 702 1393 702 1393 554 c 0,43,44
 1393 509 1393 509 1381 457 c 0,45,46
 1327 222 1327 222 1118 106 c 0,47,48
 929 0 929 0 664 0 c 2,49,-1
 289 0 l 9,0,-1
EndSplineSet
Validated: 1
EndChar

StartChar: C
Encoding: 67 67 38
Width: 1389
GlyphClass: 2
Flags: W
HStem: -20 110<621.621 946.447> 1424 106<903.164 1228.2>
VStem: 291 210<245.662 750.62> 1210 274<1028.61 1169.19>
LayerCount: 2
Fore
SplineSet
1368 429 m 1,0,1
 1277 256 1277 256 1127 134 c 0,2,3
 938 -20 938 -20 728 -20 c 0,4,5
 516 -20 516 -20 399 134 c 0,6,7
 291 276 291 276 291 492 c 0,8,9
 291 612 291 612 324 755 c 0,10,11
 417 1158 417 1158 686 1376 c 0,12,13
 876 1530 876 1530 1093 1530 c 0,14,15
 1296 1530 1296 1530 1403 1381 c 0,16,17
 1484 1268 1484 1268 1484 1166 c 0,18,19
 1484 1138 1484 1138 1478 1110 c 0,20,21
 1464 1045 1464 1045 1416 1006 c 0,22,23
 1369 968 1369 968 1314 968 c 0,24,25
 1262 968 1262 968 1231 1006 c 0,26,27
 1210 1032 1210 1032 1210 1067 c 0,28,29
 1210 1074 1210 1074 1214 1097 c 0,30,31
 1224 1149 1224 1149 1273 1188 c 0,32,33
 1305 1214 1305 1214 1346 1223 c 1,34,35
 1267 1424 1267 1424 1074 1424 c 0,36,37
 914 1424 914 1424 787 1288 c 0,38,39
 630 1120 630 1120 547 757 c 0,40,41
 501 555 501 555 501 419 c 0,42,43
 501 299 501 299 537 230 c 0,44,45
 610 90 610 90 789 90 c 0,46,47
 934 90 934 90 1065 214 c 0,48,49
 1177 320 1177 320 1229 429 c 1,50,-1
 1368 429 l 1,0,1
EndSplineSet
Validated: 1
EndChar

StartChar: D
Encoding: 68 68 39
Width: 1544
GlyphClass: 2
Flags: W
HStem: 0 100<512 899.812> 1090 20G<540.387 745> 1430 100<769.957 1173.4>
VStem: 545 200<910 1110> 1360 218<704.695 1220.18>
DStem2: 289 0 488.913 0 0.224951 0.97437<147.601 1139.14>
LayerCount: 2
Fore
SplineSet
289 0 m 9,0,-1
 545 1110 l 1,1,-1
 745 1110 l 1,2,-1
 512 100 l 17,3,-1
 687 100 l 2,4,5
 937 100 937 100 1131 319 c 0,6,7
 1264 469 1264 469 1327 746 c 0,8,9
 1360 891 1360 891 1360 1006 c 0,10,11
 1360 1111 1360 1111 1332 1191 c 0,12,13
 1245 1430 1245 1430 987 1430 c 0,14,15
 627 1430 627 1430 347 1004 c 1,16,-1
 263 1053 l 1,17,18
 573 1530 573 1530 1002 1530 c 0,19,20
 1348 1530 1348 1530 1506 1274 c 0,21,22
 1578 1157 1578 1157 1578 990 c 0,23,24
 1578 881 1578 881 1548 754 c 0,25,26
 1474 442 1474 442 1266 236 c 0,27,28
 1029 0 1029 0 664 0 c 2,29,-1
 289 0 l 9,0,-1
EndSplineSet
Validated: 1
EndChar

StartChar: E
Encoding: 69 69 40
Width: 1323
GlyphClass: 2
Flags: W
HStem: -20 110<560.439 898.997> 1028 256<1111.23 1214.37> 1432 98<877.672 1155.21>
VStem: 239 214<200.621 534.863> 546 188<982.857 1287.38> 1059 282<1100.37 1232.63>
LayerCount: 2
Fore
SplineSet
1322 429 m 1,0,1
 1231 256 1231 256 1081 134 c 0,2,3
 892 -20 892 -20 681 -20 c 0,4,5
 469 -20 469 -20 339 100 c 0,6,7
 239 192 239 192 239 333 c 0,8,9
 239 384 239 384 252 442 c 1,10,11
 297 627 297 627 456 743 c 0,12,13
 599 847 599 847 781 864 c 1,14,15
 674 894 674 894 607 964 c 0,16,17
 546 1028 546 1028 546 1120 c 0,18,19
 546 1155 546 1155 555 1195 c 0,20,21
 590 1350 590 1350 762 1459 c 0,22,23
 875 1530 875 1530 1033 1530 c 0,24,25
 1223 1530 1223 1530 1305 1388 c 0,26,27
 1341 1326 1341 1326 1341 1252 c 0,28,29
 1341 1216 1341 1216 1332 1176 c 0,30,31
 1318 1113 1318 1113 1267 1070 c 0,32,33
 1217 1028 1217 1028 1163 1028 c 0,34,35
 1111 1028 1111 1028 1080 1066 c 0,36,37
 1059 1092 1059 1092 1059 1126 c 0,38,39
 1059 1141 1059 1141 1063 1157 c 0,40,41
 1077 1214 1077 1214 1122 1249 c 128,-1,42
 1167 1284 1167 1284 1215 1284 c 1,43,44
 1176 1432 1176 1432 1016 1432 c 0,45,46
 939 1432 939 1432 850 1369 c 0,47,48
 769 1312 769 1312 743 1192 c 0,49,50
 734 1151 734 1151 734 1115 c 0,51,52
 734 1050 734 1050 766 999 c 0,53,54
 814 924 814 924 945 871 c 1,55,-1
 942 856 l 1,56,57
 749 811 749 811 624 703 c 0,58,59
 498 594 498 594 463 437 c 0,60,61
 453 392 453 392 453 351 c 0,62,63
 453 256 453 256 510 180 c 1,64,65
 580 90 580 90 729 90 c 0,66,67
 888 90 888 90 1019 214 c 0,68,69
 1131 320 1131 320 1183 429 c 1,70,-1
 1322 429 l 1,0,1
EndSplineSet
Validated: 1
EndChar

StartChar: F
Encoding: 70 70 41
Width: 1211
GlyphClass: 2
Flags: W
HStem: 0 21G<240 444.615> 728 122<636 964> 1424 106<890.313 1182.18>
VStem: 240 200<0 200> 1103 274<1089.09 1230.13>
DStem2: 240 0 440 0 0.224951 0.97437<44.9902 792.123 917.295 1274.6>
LayerCount: 2
Fore
SplineSet
240 0 m 9,0,-1
 462 960 l 2,1,2
 525 1234 525 1234 702 1394 c 0,3,4
 853 1530 853 1530 1066 1530 c 0,5,6
 1235 1530 1235 1530 1323 1392 c 0,7,8
 1377 1307 1377 1307 1377 1225 c 0,9,10
 1377 1198 1377 1198 1371 1170 c 0,11,12
 1354 1102 1354 1102 1309 1066 c 0,13,14
 1261 1028 1261 1028 1207 1028 c 0,15,16
 1154 1028 1154 1028 1124 1066 c 0,17,18
 1103 1093 1103 1093 1103 1127 c 0,19,20
 1103 1134 1103 1134 1107 1157 c 0,21,22
 1117 1206 1117 1206 1166 1248 c 0,23,24
 1197 1274 1197 1274 1239 1283 c 1,25,26
 1203 1424 1203 1424 1039 1424 c 0,27,28
 903 1424 903 1424 800 1300 c 0,29,30
 717 1199 717 1199 662 960 c 2,31,-1
 636 850 l 1,32,-1
 992 850 l 1,33,-1
 964 728 l 1,34,-1
 608 728 l 1,35,-1
 440 0 l 17,36,-1
 240 0 l 9,0,-1
EndSplineSet
Validated: 1
EndChar

StartChar: G
Encoding: 71 71 42
Width: 1439
GlyphClass: 2
Flags: W
HStem: -20 105<619.732 938.568> 633 15<935.168 975.21> 1424 106<903.164 1228.2>
VStem: 291 210<246.06 750.651> 1210 274<1028.61 1169.19>
LayerCount: 2
Fore
SplineSet
1459 648 m 1,0,1
 1393 364 1393 364 1127 134 c 0,2,3
 949 -20 949 -20 727 -20 c 0,4,5
 515 -20 515 -20 399 134 c 0,6,7
 291 277 291 277 291 493 c 0,8,9
 291 613 291 613 324 755 c 0,10,11
 418 1159 418 1159 686 1376 c 0,12,13
 876 1530 876 1530 1093 1530 c 0,14,15
 1296 1530 1296 1530 1403 1381 c 0,16,17
 1484 1268 1484 1268 1484 1166 c 0,18,19
 1484 1138 1484 1138 1478 1110 c 0,20,21
 1464 1045 1464 1045 1416 1006 c 0,22,23
 1369 968 1369 968 1314 968 c 0,24,25
 1262 968 1262 968 1231 1006 c 0,26,27
 1210 1032 1210 1032 1210 1067 c 0,28,29
 1210 1075 1210 1075 1214 1097 c 0,30,31
 1224 1149 1224 1149 1273 1188 c 0,32,33
 1305 1214 1305 1214 1346 1223 c 1,34,35
 1267 1424 1267 1424 1074 1424 c 0,36,37
 914 1424 914 1424 787 1288 c 0,38,39
 630 1120 630 1120 547 757 c 0,40,41
 501 556 501 556 501 420 c 0,42,43
 501 300 501 300 537 230 c 0,44,45
 612 85 612 85 752 85 c 0,46,47
 922 85 922 85 1038 206 c 0,48,49
 1131 303 1131 303 1154 408 c 0,50,51
 1160 435 1160 435 1160 459 c 0,52,53
 1160 600 1160 600 935 633 c 1,54,55
 936 638 936 638 939 648 c 1,56,-1
 1459 648 l 1,0,1
EndSplineSet
Validated: 1
EndChar

StartChar: H
Encoding: 72 72 43
Width: 1480
GlyphClass: 2
Flags: W
HStem: 0 21G<240 444.621 1040 1244.62> 541 121<593 1165> 1490 20G<584.378 789 1384.38 1589>
VStem: 240 200<0 200> 589 200<1310 1510> 1040 200<0 200> 1389 200<1310 1510>
DStem2: 240 0 440 0 0.224951 0.97437<44.9902 600.243 724.441 1549.81> 1040 0 1240 0 0.224951 0.97437<44.9902 555.253 679.451 1549.81>
LayerCount: 2
Fore
SplineSet
240 0 m 1,0,-1
 589 1510 l 1,1,-1
 789 1510 l 1,2,-1
 593 662 l 1,3,-1
 1193 662 l 1,4,-1
 1389 1510 l 1,5,-1
 1589 1510 l 1,6,-1
 1240 0 l 1,7,-1
 1040 0 l 1,8,-1
 1165 541 l 1,9,-1
 565 541 l 1,10,-1
 440 0 l 1,11,-1
 240 0 l 1,0,-1
EndSplineSet
Validated: 1
EndChar

StartChar: I
Encoding: 73 73 44
Width: 680
GlyphClass: 2
Flags: W
HStem: 0 21G<240 444.623> 1490 20G<584.378 789>
VStem: 240 200<0 200> 589 200<1310 1510>
DStem2: 240 0 440 0 0.224951 0.97437<44.9902 1549.81>
LayerCount: 2
Fore
SplineSet
240 0 m 1,0,-1
 589 1510 l 25,1,-1
 789 1510 l 25,2,-1
 440 0 l 1,3,-1
 240 0 l 1,0,-1
EndSplineSet
Validated: 1
EndChar

StartChar: J
Encoding: 74 74 45
Width: 1066
GlyphClass: 2
Flags: W
HStem: -20 95<247.749 518.044> 1490 20G<970.376 1175>
VStem: 52 268<125.904 274.514> 975 200<1310 1510>
DStem2: 621.421 -20 821.64 -20 0.224951 0.97437<328.912 1570.32>
LayerCount: 2
Fore
SplineSet
1175 1510 m 25,0,-1
 944 510 l 2,1,2
 886 261 886 261 703 108 c 0,3,4
 550 -20 550 -20 333 -20 c 0,5,6
 209 -20 209 -20 120 43 c 0,7,8
 52 91 52 91 52 162 c 0,9,10
 52 179 52 179 56 198 c 0,11,12
 68 254 68 254 115 292 c 128,-1,13
 162 330 162 330 216 330 c 0,14,15
 272 330 272 330 300 293 c 0,16,17
 320 267 320 267 320 233 c 0,18,19
 320 217 320 217 316 200 c 0,20,21
 303 146 303 146 246 95 c 1,22,23
 281 75 281 75 353 75 c 0,24,25
 482 75 482 75 596 172 c 0,26,27
 683 246 683 246 717 394 c 10,28,-1
 975 1510 l 25,29,-1
 1175 1510 l 25,0,-1
EndSplineSet
Validated: 1
EndChar

StartChar: K
Encoding: 75 75 46
Width: 1486
GlyphClass: 2
Flags: W
HStem: -123 170<1159 1338.96> 0 21G<240 444.63> 1490 20G<584.378 789 1378.5 1429.5>
VStem: 240 200<0 200> 589 200<1310 1510> 1240 274<1308.85 1473.72>
DStem2: 211.603 -123 411.603 -123 0.224951 0.97437<171.226 672.227 782.993 1676.04> 1140 460 958 382 0.264669 -0.964339<-114.928 434.353>
LayerCount: 2
Fore
SplineSet
240 0 m 1,0,-1
 589 1510 l 1,1,-1
 789 1510 l 1,2,-1
 578 596 l 1,3,4
 1111 866 1111 866 1345 1269 c 1,5,6
 1294 1269 1294 1269 1262 1308 c 0,7,8
 1240 1335 1240 1335 1240 1370 c 0,9,10
 1240 1385 1240 1385 1244 1401 c 0,11,12
 1258 1455 1258 1455 1304 1492 c 0,13,14
 1352 1530 1352 1530 1405 1530 c 0,15,16
 1454 1530 1454 1530 1489 1491 c 0,17,18
 1514 1463 1514 1463 1514 1420 c 0,19,20
 1514 1399 1514 1399 1508 1375 c 0,21,22
 1493 1316 1493 1316 1456 1251 c 0,23,24
 1235 863 1235 863 877 661 c 1,25,26
 1088 661 1088 661 1140 460 c 2,27,-1
 1223 139 l 2,28,29
 1247 47 1247 47 1333 47 c 0,30,31
 1387 47 1387 47 1442 94 c 0,32,33
 1478 125 1478 125 1502 158 c 1,34,-1
 1512 158 l 1,35,36
 1473 39 1473 39 1384 -42 c 0,37,38
 1296 -123 1296 -123 1221 -123 c 0,39,40
 1097 -123 1097 -123 1059 14 c 2,41,-1
 958 382 l 2,42,43
 913 544 913 544 761 544 c 0,44,45
 660 544 660 544 540 432 c 1,46,-1
 440 0 l 1,47,-1
 240 0 l 1,0,-1
EndSplineSet
Validated: 1
EndChar

StartChar: L
Encoding: 76 76 47
Width: 1227
GlyphClass: 2
Flags: W
HStem: -20 93<701.604 1027.43> 37 104<476.688 758.774> 1490 20G<584.383 789>
VStem: 589 200<1310 1510> 1004 268<140.242 296.194>
DStem2: 235.768 -20 435.83 -20 0.224951 0.97437<210.239 1570.25>
LayerCount: 2
Fore
SplineSet
239 -6 m 1,0,-1
 589 1510 l 25,1,-1
 789 1510 l 25,2,-1
 473 141 l 1,3,4
 625 141 625 141 704 117 c 0,5,6
 849 73 849 73 894 73 c 0,7,8
 969 73 969 73 1030 117 c 1,9,10
 1004 155 1004 155 1004 193 c 0,11,12
 1004 202 1004 202 1008 222 c 0,13,14
 1019 273 1019 273 1068 315 c 0,15,16
 1112 352 1112 352 1167 352 c 128,-1,17
 1222 352 1222 352 1251 314 c 0,18,19
 1272 286 1272 286 1272 251 c 0,20,21
 1272 244 1272 244 1268 222 c 0,22,23
 1247 122 1247 122 1117 52 c 0,24,25
 983 -20 983 -20 865 -20 c 0,26,27
 780 -20 780 -20 680 15 c 0,28,29
 617 37 617 37 516 37 c 0,30,31
 392 37 392 37 245 -20 c 1,32,-1
 239 -6 l 1,0,-1
EndSplineSet
Validated: 1
EndChar

StartChar: M
Encoding: 77 77 48
Width: 1863
GlyphClass: 2
Flags: W
HStem: 0 21G<150 268.588 883.118 915.247 1519 1714.62> 1490 20G<574 773.943 1785.68 1925>
VStem: 150 111<0 111> 574 196<1314 1510> 1519 194<0 194> 1799 126<1384 1510>
DStem2: 150 0 261 0 0.350802 0.93645<38.939 1191.91> 770 1510 574 1510 0.193425 -0.981115<0 202.115 404.499 1214.94> 1005 318 902 -40 0.550842 0.834609<0 941.089 1317.75 1432.22> 1519 0 1713 0 0.0807961 0.996731<15.6745 1045.6>
LayerCount: 2
Fore
SplineSet
150 0 m 25,0,-1
 628 1276 l 9,1,-1
 574 1510 l 17,2,-1
 770 1510 l 9,3,-1
 1005 318 l 1,4,-1
 1799 1510 l 25,5,-1
 1925 1510 l 17,6,-1
 1823 1357 l 1,7,-1
 1713 0 l 1,8,-1
 1519 0 l 9,9,-1
 1618 1041 l 1,10,-1
 902 -40 l 1,11,-1
 887 -40 l 1,12,-1
 670 1078 l 1,13,-1
 261 0 l 25,14,-1
 150 0 l 25,0,-1
EndSplineSet
Validated: 1
EndChar

StartChar: N
Encoding: 78 78 49
Width: 1514
GlyphClass: 2
Flags: W
HStem: 0 21G<259 375.609 1229.85 1259.62> 1490 20G<449 684.009 1496.36 1613>
VStem: 259 112<0 112> 449 225<1285 1510> 1501 112<1398 1510>
DStem2: 249.765 -40 361.765 -40 0.224951 0.97437<66.2467 1246.38> 674 1510 449 1510 0.44753 -0.894269<0 144.378 304.931 1262.48> 1141.8 -40 1255 -40 0.224951 0.97437<432.074 1591.07>
LayerCount: 2
Fore
SplineSet
259 0 m 9,0,-1
 557 1290 l 1,1,-1
 449 1510 l 9,2,-1
 674 1510 l 17,3,-1
 1239 381 l 1,4,-1
 1501 1510 l 25,5,-1
 1613 1510 l 25,6,-1
 1255 -40 l 1,7,-1
 1240 -40 l 1,8,-1
 636 1150 l 1,9,-1
 371 0 l 17,10,-1
 259 0 l 9,0,-1
EndSplineSet
Validated: 1
EndChar

StartChar: O
Encoding: 79 79 50
Width: 1424
GlyphClass: 2
Flags: MW
LayerCount: 2
Fore
SplineSet
338 727 m 0,0,1
 338 570 338 570 370 462 c 1,2,3
 419 268 419 268 502 178 c 0,4,5
 593 80 593 80 712 80 c 0,6,7
 714 80 714 80 715 80 c 0,8,9
 717 80 717 80 718 80 c 0,10,11
 821 80 821 80 930 180 c 1,12,13
 1006 274 1006 274 1045 417 c 0,14,15
 1084 559 1084 559 1084 727 c 0,16,17
 1084 741 1084 741 1084 758 c 0,18,19
 1084 945 1084 945 1045 1069 c 1,20,21
 996 1253 996 1253 910 1346 c 0,22,23
 831 1431 831 1431 713 1431 c 0,24,-1
 711 1431 l 0,25,26
 594 1431 594 1431 520 1364 c 1,27,28
 431 1292 431 1292 382 1096 c 0,29,30
 338 918 338 918 338 727 c 0,0,1
130 744 m 128,-1,32
 130 908 130 908 174 1060 c 128,-1,33
 218 1212 218 1212 294 1314 c 0,34,35
 370 1415 370 1415 474 1475.5 c 128,-1,36
 578 1536 578 1536 712 1536 c 128,-1,37
 846 1536 846 1536 950 1475.5 c 128,-1,38
 1054 1415 1054 1415 1130 1314 c 0,39,40
 1206 1212 1206 1212 1250 1060 c 128,-1,41
 1294 908 1294 908 1294 744 c 128,-1,42
 1294 580 1294 580 1250 439.5 c 128,-1,43
 1206 299 1206 299 1130 197 c 0,44,45
 1054 96 1054 96 950 35.5 c 128,-1,46
 846 -25 846 -25 712 -25 c 128,-1,47
 578 -25 578 -25 474 35.5 c 128,-1,48
 370 96 370 96 294 197 c 0,49,50
 218 299 218 299 174 439.5 c 128,-1,31
 130 580 130 580 130 744 c 128,-1,32
EndSplineSet
Validated: 1
EndChar

StartChar: P
Encoding: 80 80 51
Width: 1455
GlyphClass: 2
Flags: W
HStem: 0 21G<289 493.618> 458 100<719.049 1036.61> 1090 20G<540.387 745> 1430 100<761.664 1169.97>
VStem: 289 200<0 200> 545 200<910 1110> 1313 218<905.433 1285.56>
DStem2: 289 0 489 0 0.224951 0.97437<44.9902 609.463 708.507 1139.14>
LayerCount: 2
Fore
SplineSet
289 0 m 25,0,-1
 545 1110 l 1,1,-1
 745 1110 l 1,2,-1
 648 687 l 1,3,4
 713 558 713 558 865 558 c 0,5,6
 1013 558 1013 558 1134 672 c 0,7,8
 1250 781 1250 781 1299 994 c 0,9,10
 1313 1055 1313 1055 1313 1110 c 0,11,12
 1313 1200 1313 1200 1274 1277 c 0,13,14
 1195 1430 1195 1430 978 1430 c 0,15,16
 627 1430 627 1430 347 1004 c 1,17,-1
 263 1053 l 1,18,19
 573 1530 573 1530 1002 1530 c 0,20,21
 1296 1530 1296 1530 1432 1383 c 0,22,23
 1531 1276 1531 1276 1531 1124 c 0,24,25
 1531 1063 1531 1063 1515 996 c 0,26,27
 1467 795 1467 795 1321 654 c 24,28,29
 1118 458 1118 458 883 458 c 0,30,31
 723 458 723 458 616 550 c 1,32,-1
 489 0 l 25,33,-1
 289 0 l 25,0,-1
EndSplineSet
Validated: 1
EndChar

StartChar: Q
Encoding: 81 81 52
Width: 1424
GlyphClass: 2
Flags: W
HStem: -121 137<1144.19 1265.4> -20 105<623.594 892.508> 209 137<763.109 912.678> 1425 105<883.069 1176.87>
VStem: 271 209<244.952 766.754> 1292 209<743.96 1264.82> 1388 10<150.358 158>
LayerCount: 2
Fore
SplineSet
1038 268 m 1,0,1
 1179 446 1179 446 1250 755 c 0,2,3
 1292 937 1292 937 1292 1070 c 0,4,5
 1292 1208 1292 1208 1247 1294 c 0,6,7
 1177 1425 1177 1425 1041 1425 c 0,8,9
 897 1425 897 1425 775 1294 c 0,10,11
 606 1113 606 1113 522 755 c 0,12,13
 480 576 480 576 480 443 c 0,14,15
 480 304 480 304 526 216 c 0,16,17
 562 146 562 146 620 114 c 1,18,19
 665 204 665 204 725 268 c 0,20,21
 799 346 799 346 897 346 c 0,22,23
 979 346 979 346 1038 268 c 1,0,1
958 42 m 1,24,25
 855 -20 855 -20 707 -20 c 0,26,27
 497 -20 497 -20 379 134 c 0,28,29
 271 275 271 275 271 492 c 0,30,31
 271 611 271 611 304 755 c 0,32,33
 395 1152 395 1152 666 1376 c 0,34,35
 853 1530 853 1530 1065 1530 c 0,36,37
 1279 1530 1279 1530 1394 1376 c 0,38,39
 1501 1233 1501 1233 1501 1017 c 0,40,41
 1501 896 1501 896 1468 755 c 0,42,43
 1374 355 1374 355 1103 136 c 1,44,45
 1153 16 1153 16 1213 16 c 0,46,47
 1271 16 1271 16 1328 77 c 0,48,49
 1371 123 1371 123 1388 158 c 1,50,-1
 1398 158 l 1,51,52
 1371 35 1371 35 1302 -41 c 0,53,54
 1230 -121 1230 -121 1149 -121 c 0,55,56
 1014 -121 1014 -121 958 42 c 1,24,25
924 149 m 1,57,58
 888 209 888 209 817 209 c 0,59,60
 745 209 745 209 671 127 c 0,61,62
 656 110 656 110 650 101 c 1,63,64
 683 85 683 85 732 85 c 0,65,66
 832 85 832 85 924 149 c 1,57,58
EndSplineSet
Validated: 1
EndChar

StartChar: R
Encoding: 82 82 53
Width: 1506
GlyphClass: 2
Flags: W
HStem: -123 163<1165 1358.29> 0 21G<289 493.618> 1090 20G<540.387 745> 1430 100<761.664 1169.97>
VStem: 289 200<0 200> 545 200<910 1110> 1313 218<905.433 1285.56>
DStem2: 260.603 -123 460.603 -123 0.224951 0.97437<171.226 735.698 834.742 1265.37> 1187 324 983 296 0.257023 -0.966405<-121.416 300.199>
LayerCount: 2
Fore
SplineSet
289 0 m 1,0,-1
 545 1110 l 1,1,-1
 745 1110 l 1,2,-1
 648 687 l 1,3,4
 713 558 713 558 865 558 c 0,5,6
 1013 558 1013 558 1134 672 c 0,7,8
 1250 781 1250 781 1299 994 c 0,9,10
 1313 1055 1313 1055 1313 1110 c 0,11,12
 1313 1200 1313 1200 1274 1277 c 0,13,14
 1195 1430 1195 1430 978 1430 c 0,15,16
 627 1430 627 1430 347 1004 c 1,17,-1
 263 1053 l 1,18,19
 573 1530 573 1530 1002 1530 c 0,20,21
 1296 1530 1296 1530 1432 1383 c 0,22,23
 1531 1276 1531 1276 1531 1124 c 0,24,25
 1531 1063 1531 1063 1515 996 c 0,26,27
 1467 795 1467 795 1321 654 c 0,28,29
 1177 515 1177 515 1016 474 c 1,30,31
 1158 438 1158 438 1187 324 c 2,32,-1
 1234 138 l 2,33,34
 1259 40 1259 40 1341 40 c 0,35,36
 1412 40 1412 40 1459 86 c 0,37,38
 1497 123 1497 123 1522 158 c 1,39,-1
 1532 158 l 1,40,41
 1493 40 1493 40 1404 -42 c 0,42,43
 1317 -123 1317 -123 1236 -123 c 0,44,45
 1094 -123 1094 -123 1058 14 c 2,46,-1
 983 296 l 2,47,48
 947 431 947 431 843 459 c 1,49,50
 710 470 710 470 616 550 c 1,51,-1
 489 0 l 1,52,-1
 289 0 l 1,0,-1
EndSplineSet
Validated: 1
EndChar

StartChar: S
Encoding: 83 83 54
Width: 1346
GlyphClass: 2
Flags: W
HStem: -20 118<471.524 893.923> 348 251<353.582 456.176> 1028 256<1087 1189.37> 1434 96<824.976 1127.8>
VStem: 224 280<395.71 529.2> 520 183<1050.21 1282.55> 1034 283<1100.66 1231.39> 1131 205<348.492 620.066>
DStem2: 809 1002 701 842 0.895523 -0.445015<-123.227 443.254>
LayerCount: 2
Fore
SplineSet
298 560 m 0,0,1
 346 599 346 599 399 599 c 0,2,3
 450 599 450 599 482 560 c 0,4,5
 504 533 504 533 504 500 c 0,6,7
 504 485 504 485 500 470 c 0,8,9
 484 410 484 410 441 380 c 0,10,11
 395 348 395 348 353 348 c 1,12,13
 383 98 383 98 659 98 c 0,14,15
 868 98 868 98 989 202 c 0,16,17
 1092 290 1092 290 1124 424 c 0,18,19
 1131 453 1131 453 1131 480 c 0,20,21
 1131 621 1131 621 1005 686 c 2,22,-1
 701 842 l 2,23,24
 520 935 520 935 520 1107 c 0,25,26
 520 1152 520 1152 530 1193 c 1,27,28
 558 1321 558 1321 698 1430 c 0,29,30
 825 1530 825 1530 1008 1530 c 0,31,32
 1198 1530 1198 1530 1280 1388 c 0,33,34
 1317 1324 1317 1324 1317 1251 c 0,35,36
 1317 1215 1317 1215 1308 1176 c 0,37,38
 1294 1113 1294 1113 1242 1070 c 0,39,40
 1192 1028 1192 1028 1138 1028 c 0,41,42
 1086 1028 1086 1028 1055 1066 c 0,43,44
 1034 1092 1034 1092 1034 1126 c 0,45,46
 1034 1141 1034 1141 1038 1157 c 0,47,48
 1052 1214 1052 1214 1098 1249 c 128,-1,49
 1144 1284 1144 1284 1190 1284 c 1,50,51
 1155 1434 1155 1434 981 1434 c 0,52,53
 882 1434 882 1434 806 1376 c 0,54,55
 728 1317 728 1317 707 1216 c 0,56,57
 703 1197 703 1197 703 1178 c 0,58,59
 703 1055 703 1055 809 1002 c 2,60,-1
 1135 840 l 2,61,62
 1336 740 1336 740 1336 553 c 0,63,64
 1336 501 1336 501 1322 438 c 0,65,66
 1282 249 1282 249 1074 106 c 0,67,68
 892 -20 892 -20 629 -20 c 0,69,70
 397 -20 397 -20 294 129 c 0,71,72
 224 230 224 230 224 352 c 0,73,74
 224 402 224 402 236 457 c 0,75,76
 251 522 251 522 298 560 c 0,0,1
EndSplineSet
Validated: 1
EndChar

StartChar: T
Encoding: 84 84 55
Width: 1296
GlyphClass: 2
Flags: W
HStem: 0 21G<559 763.613> 1090 20G<810.387 1015> 1420 110<757.769 1377.28>
VStem: 559 200<0 200> 815 200<910 1110> 1304 270<1238.06 1382.75>
DStem2: 559 0 759 0 0.224951 0.97437<44.9902 1139.14>
LayerCount: 2
Fore
SplineSet
559 0 m 1,0,-1
 815 1110 l 25,1,-1
 1015 1110 l 25,2,-1
 759 0 l 1,3,-1
 559 0 l 1,0,-1
263 1053 m 1,4,5
 573 1530 573 1530 1002 1530 c 2,6,-1
 1291 1530 l 2,7,8
 1434 1530 1434 1530 1513 1469 c 0,9,10
 1574 1422 1574 1422 1574 1354 c 0,11,12
 1574 1334 1574 1334 1569 1312 c 0,13,14
 1557 1259 1557 1259 1509 1218 c 0,15,16
 1464 1180 1464 1180 1408 1180 c 0,17,18
 1356 1180 1356 1180 1325 1217 c 0,19,20
 1304 1242 1304 1242 1304 1277 c 0,21,22
 1304 1292 1304 1292 1308 1310 c 0,23,24
 1323 1365 1323 1365 1379 1415 c 1,25,26
 1324 1420 1324 1420 1268 1420 c 10,27,-1
 985 1420 l 18,28,29
 624 1420 624 1420 347 1004 c 1,30,-1
 263 1053 l 1,4,5
EndSplineSet
Validated: 1
EndChar

StartChar: U
Encoding: 85 85 56
Width: 1480
GlyphClass: 2
Flags: W
HStem: -20 142<596.649 881.238> 0 21G<1040 1244.62> 1490 20G<584.38 789 1384.38 1589>
VStem: 330 202<185.316 571.562> 589 200<1310 1510> 1389 200<1310 1510>
DStem2: 235.64 -20 435.102 -20 0.224951 0.97437<407.95 1570.27> 1035.38 -20 1235.38 -20 0.224951 0.97437<65.5163 218.702 310.874 1570.33>
LayerCount: 2
Fore
SplineSet
1240 0 m 17,0,1
 1140 0 1140 0 1040 0 c 25,2,-1
 1085 193 l 17,3,4
 1048 147 1048 147 1016 116 c 0,5,6
 875 -20 875 -20 675 -20 c 0,7,8
 454 -20 454 -20 356 169 c 0,9,10
 330 219 330 219 330 302 c 0,11,12
 330 388 330 388 358 510 c 2,13,-1
 589 1510 l 25,14,-1
 789 1510 l 25,15,-1
 557 508 l 2,16,17
 532 400 532 400 532 328 c 0,18,19
 532 299 532 299 536 276 c 0,20,21
 562 122 562 122 754 122 c 0,22,23
 918 122 918 122 1045 272 c 0,24,25
 1124 365 1124 365 1158 510 c 2,26,-1
 1389 1510 l 1,27,-1
 1589 1510 l 1,28,-1
 1240 0 l 17,0,1
EndSplineSet
Validated: 1
EndChar

StartChar: V
Encoding: 86 86 57
Width: 1442
GlyphClass: 2
Flags: W
HStem: -20 142<599.069 894.949> 1272 258<1231.75 1353.87> 1490 20G<584.38 789>
VStem: 335 196<190.452 587.203> 589 200<1310 1510> 1379 135<814.283 1289.17>
DStem2: 235.64 -20 435.102 -20 0.224951 0.97437<406.661 1570.27>
LayerCount: 2
Fore
SplineSet
589 1510 m 25,0,-1
 789 1510 l 25,1,-1
 557 508 l 2,2,3
 531 396 531 396 531 327 c 0,4,5
 531 297 531 297 536 276 c 0,6,7
 573 122 573 122 734 122 c 0,8,9
 967 122 967 122 1162 413 c 0,10,11
 1287 600 1287 600 1344 847 c 0,12,13
 1379 999 1379 999 1379 1118 c 0,14,15
 1379 1216 1379 1216 1355 1292 c 1,16,17
 1319 1272 1319 1272 1280 1272 c 0,18,19
 1225 1272 1225 1272 1197 1309 c 0,20,21
 1177 1335 1177 1335 1177 1369 c 0,22,23
 1177 1384 1177 1384 1181 1400 c 0,24,25
 1195 1457 1195 1457 1239 1492 c 0,26,27
 1286 1530 1286 1530 1339 1530 c 0,28,29
 1431 1530 1431 1530 1468 1430 c 0,30,31
 1514 1305 1514 1305 1514 1150 c 0,32,33
 1514 1010 1514 1010 1477 846 c 0,34,35
 1415 573 1415 573 1284 385 c 0,36,37
 1001 -20 1001 -20 695 -20 c 0,38,39
 507 -20 507 -20 391 135 c 0,40,41
 335 210 335 210 335 333 c 0,42,43
 335 410 335 410 358 510 c 2,44,-1
 589 1510 l 25,0,-1
EndSplineSet
Validated: 1
EndChar

StartChar: W
Encoding: 87 87 58
Width: 2242
GlyphClass: 2
Flags: W
HStem: -20 142<594.954 908.256 1391.72 1694.95> 1272 258<2031.96 2153.87> 1490 20G<584.38 789 1384.38 1589>
VStem: 332 200<182.497 587.203> 589 200<1310 1510> 1389 200<1310 1510> 2179 135<818.387 1289.17>
DStem2: 235.64 -20 435.102 -20 0.224951 0.97437<408.01 1570.27> 1035.77 -20 1235.1 -20 0.224951 0.97437<406.976 1570.25>
LayerCount: 2
Fore
SplineSet
589 1510 m 25,0,-1
 789 1510 l 25,1,-1
 557 508 l 2,2,3
 532 402 532 402 532 328 c 0,4,5
 533 298 533 298 536 276 c 0,6,7
 557 122 557 122 754 122 c 0,8,9
 916 122 916 122 1045 272 c 0,10,11
 1124 364 1124 364 1158 510 c 2,12,-1
 1389 1510 l 1,13,-1
 1589 1510 l 1,14,-1
 1357 508 l 2,15,16
 1332 400 1332 400 1332 327 c 0,17,18
 1332 302 1332 302 1336 276 c 8,19,20
 1357 122 1357 122 1534 122 c 0,21,22
 1767 122 1767 122 1962 413 c 0,23,24
 2087 600 2087 600 2144 847 c 0,25,26
 2179 999 2179 999 2179 1118 c 0,27,28
 2179 1216 2179 1216 2155 1292 c 1,29,30
 2119 1272 2119 1272 2080 1272 c 0,31,32
 2028 1272 2028 1272 1997 1309 c 0,33,34
 1977 1333 1977 1333 1977 1367 c 0,35,36
 1977 1383 1977 1383 1981 1400 c 0,37,38
 1994 1456 1994 1456 2039 1492 c 0,39,40
 2086 1530 2086 1530 2139 1530 c 0,41,42
 2231 1530 2231 1530 2268 1430 c 0,43,44
 2314 1305 2314 1305 2314 1150 c 0,45,46
 2314 1012 2314 1012 2277 846 c 0,47,48
 2214 571 2214 571 2084 385 c 0,49,50
 1801 -20 1801 -20 1495 -20 c 0,51,52
 1264 -20 1264 -20 1156 169 c 24,53,54
 1148 183 1148 183 1143 200 c 1,55,56
 1087 143 1087 143 1034 100 c 0,57,58
 886 -20 886 -20 675 -20 c 0,59,60
 429 -20 429 -20 356 169 c 0,61,62
 332 231 332 231 332 316 c 0,63,64
 332 397 332 397 358 510 c 2,65,-1
 589 1510 l 25,0,-1
EndSplineSet
Validated: 1
EndChar

StartChar: X
Encoding: 88 88 59
Width: 1268
GlyphClass: 2
Flags: W
HStem: 0 118<127 301.156> 1490 20G<450 649.195 1292.5 1344.5>
VStem: 450 194<1316 1510> 860 189<0 189> 1154 274<1308.85 1473.72>
DStem2: 644 1510 450 1510 0.262036 -0.965058<0 875.052 981.299 999.371 1108.72 1513.84>
LayerCount: 2
Fore
SplineSet
1049 0 m 17,0,-1
 860 0 l 9,1,-1
 754 391 l 1,2,3
 490 148 490 148 355 67 c 0,4,5
 244 0 244 0 100 0 c 9,6,-1
 127 118 l 17,7,8
 240 118 240 118 322 174 c 0,9,10
 458 266 458 266 716 516 c 1,11,-1
 450 1510 l 25,12,-1
 644 1510 l 25,13,-1
 864 663 l 1,14,15
 1127 910 1127 910 1259 1269 c 1,16,17
 1208 1269 1208 1269 1176 1308 c 0,18,19
 1154 1335 1154 1335 1154 1370 c 0,20,21
 1154 1385 1154 1385 1158 1401 c 0,22,23
 1172 1455 1172 1455 1218 1492 c 0,24,25
 1266 1530 1266 1530 1319 1530 c 0,26,27
 1370 1530 1370 1530 1403 1491 c 0,28,29
 1428 1461 1428 1461 1428 1413 c 0,30,31
 1428 1382 1428 1382 1418.5 1346 c 128,-1,32
 1409 1310 1409 1310 1397 1276 c 0,33,34
 1266 896 1266 896 899 538 c 1,35,-1
 1049 0 l 17,0,-1
EndSplineSet
Validated: 1
EndChar

StartChar: Y
Encoding: 89 89 60
Width: 1420
GlyphClass: 2
Flags: W
HStem: -20 95<542.651 868.856> 430 142<693.717 930.362> 1490 20G<584.382 789 1324.38 1529>
VStem: 346 268<125.904 274.514> 438 198<629.601 1040.8> 589 200<1310 1510> 1329 200<1310 1510>
DStem2: 235.749 -20 435.211 -20 0.224951 0.97437<868.872 1570.25> 975.877 -20 1175.64 -20 0.224951 0.97437<328.81 677.304 776.16 1570.22>
LayerCount: 2
Fore
SplineSet
589 1510 m 25,0,-1
 789 1510 l 25,1,-1
 661 958 l 2,2,3
 636 851 636 851 636 777 c 0,4,5
 636 751 636 751 640 726 c 0,6,7
 664 572 664 572 828 572 c 0,8,9
 962 572 962 572 1089 722 c 0,10,11
 1168 815 1168 815 1202 960 c 10,12,-1
 1329 1510 l 1,13,-1
 1529 1510 l 1,14,-1
 1298 510 l 2,15,16
 1240 261 1240 261 1057 108 c 0,17,18
 904 -20 904 -20 687 -20 c 0,19,20
 503 -20 503 -20 414 43 c 0,21,22
 346 91 346 91 346 162 c 0,23,24
 346 179 346 179 350 198 c 0,25,26
 362 254 362 254 409 292 c 128,-1,27
 456 330 456 330 510 330 c 128,-1,28
 564 330 564 330 594 293 c 0,29,30
 614 268 614 268 614 233 c 0,31,32
 614 218 614 218 610 200 c 0,33,34
 598 147 598 147 540 95 c 1,35,36
 575 75 575 75 707 75 c 0,37,38
 841 75 841 75 947 180 c 0,39,40
 1044 276 1044 276 1083 444 c 2,41,-1
 1128 640 l 1,42,43
 1096 600 1096 600 1060 566 c 0,44,45
 915 430 915 430 749 430 c 0,46,47
 519 430 519 430 460 619 c 0,48,49
 438 689 438 689 438 772 c 0,50,51
 438 856 438 856 462 960 c 2,52,-1
 589 1510 l 25,0,-1
EndSplineSet
Validated: 1
EndChar

StartChar: Z
Encoding: 90 90 61
Width: 1387
GlyphClass: 2
Flags: W
HStem: -20 94<651.222 1067.26> 37 104<453 742.767> 1369 104<973.881 1235> 1436 94<697.46 1062.16>
VStem: 452 267<1211.79 1369.76> 1044 268<140.242 296.194>
DStem2: 99 -6 453 141 0.636925 0.770926<338.798 1783.57>
LayerCount: 2
Fore
SplineSet
105 -20 m 1,0,-1
 99 -6 l 1,1,-1
 1235 1369 l 1,2,3
 1141 1369 1141 1369 1007 1405 c 0,4,5
 892 1436 892 1436 835 1436 c 0,6,7
 748 1436 748 1436 695 1393 c 1,8,9
 719 1356 719 1356 719 1317 c 0,10,11
 719 1303 719 1303 716 1288 c 0,12,13
 705 1235 705 1235 657 1195 c 0,14,15
 612 1158 612 1158 557 1158 c 128,-1,16
 502 1158 502 1158 473 1196 c 0,17,18
 452 1224 452 1224 452 1259 c 0,19,20
 452 1269 452 1269 456 1288 c 0,21,22
 477 1388 477 1388 608 1458 c 0,23,24
 741 1530 741 1530 864 1530 c 0,25,26
 931 1530 931 1530 1084 1495 c 0,27,28
 1180 1473 1180 1473 1309 1473 c 0,29,30
 1428 1473 1428 1473 1579 1530 c 1,31,-1
 1586 1516 l 1,32,-1
 453 141 l 1,33,34
 573 141 573 141 707 105 c 0,35,36
 822 74 822 74 930 74 c 0,37,38
 1017 74 1017 74 1070 117 c 1,39,40
 1044 155 1044 155 1044 193 c 0,41,42
 1044 203 1044 203 1048 222 c 0,43,44
 1059 273 1059 273 1108 315 c 0,45,46
 1152 352 1152 352 1207 352 c 128,-1,47
 1262 352 1262 352 1291 314 c 0,48,49
 1312 286 1312 286 1312 251 c 0,50,51
 1312 241 1312 241 1308 222 c 0,52,53
 1287 122 1287 122 1157 52 c 0,54,55
 1023 -20 1023 -20 900 -20 c 0,56,57
 781 -20 781 -20 630 15 c 0,58,59
 535 37 535 37 376 37 c 0,60,61
 257 37 257 37 105 -20 c 1,0,-1
EndSplineSet
Validated: 1
EndChar

StartChar: bracketleft
Encoding: 91 91 62
Width: 815
GlyphClass: 2
Flags: W
HStem: -300 115<394 696> 1690 120<827 1155>
DStem2: 181 -300 367.45 -300 0.224951 0.97437<159.967 2084.31>
LayerCount: 2
Fore
SplineSet
181 -300 m 9,0,-1
 668 1810 l 17,1,-1
 1183 1810 l 1,2,-1
 1155 1690 l 1,3,-1
 827 1690 l 1,4,-1
 394 -185 l 1,5,-1
 722 -185 l 1,6,-1
 696 -300 l 1,7,-1
 181 -300 l 9,0,-1
EndSplineSet
Validated: 1
EndChar

StartChar: backslash
Encoding: 92 92 63
Width: 1065
GlyphClass: 2
Flags: W
VStem: 378 659
DStem2: 530 1660 378 1596 0.279366 -0.960185<18.9881 1812.36>
LayerCount: 2
Fore
SplineSet
530 1660 m 1,0,-1
 1037 -80 l 1,1,-1
 886 -150 l 1,2,-1
 378 1596 l 1,3,-1
 530 1660 l 1,0,-1
EndSplineSet
Validated: 1
EndChar

StartChar: bracketright
Encoding: 93 93 64
Width: 815
GlyphClass: 2
Flags: W
HStem: -300 115<7 335> 1690 120<468 768>
DStem2: 308.45 -300 496 -300 0.224951 0.97437<118.025 2042.37>
LayerCount: 2
Fore
SplineSet
-19 -300 m 1,0,-1
 7 -185 l 1,1,-1
 335 -185 l 1,2,-1
 768 1690 l 1,3,-1
 440 1690 l 1,4,-1
 468 1810 l 1,5,-1
 983 1810 l 9,6,-1
 496 -300 l 17,7,-1
 -19 -300 l 1,0,-1
EndSplineSet
Validated: 1
EndChar

StartChar: asciicircum
Encoding: 94 94 65
Width: 1269
GlyphClass: 2
Flags: W
HStem: 1049 501
DStem2: 472 1144 545 1051 0.805569 0.592502<3.70387 483.517> 1024 1550 931 1336 0.635707 -0.77193<106.072 474.465>
LayerCount: 2
Fore
SplineSet
472 1144 m 1,0,-1
 1024 1550 l 1,1,-1
 1332 1176 l 1,2,-1
 1162 1049 l 1,3,-1
 931 1336 l 1,4,-1
 545 1051 l 1,5,-1
 472 1144 l 1,0,-1
EndSplineSet
Validated: 1
EndChar

StartChar: underscore
Encoding: 95 95 66
Width: 1233
GlyphClass: 2
Flags: W
HStem: -200 150<188 987>
LayerCount: 2
Fore
SplineSet
188 -50 m 1,0,-1
 1021 -50 l 1,1,-1
 987 -200 l 1,2,-1
 154 -200 l 1,3,-1
 188 -50 l 1,0,-1
EndSplineSet
Validated: 1
EndChar

StartChar: grave
Encoding: 96 96 67
Width: 810
GlyphClass: 2
Flags: W
HStem: 1153 397
VStem: 527 354
LayerCount: 2
Fore
SplineSet
856 1153 m 1,0,-1
 558 1350 l 1,1,2
 527 1367 527 1367 527 1406 c 1,3,4
 528 1420 528 1420 531 1435 c 0,5,6
 540 1480 540 1480 582 1517 c 0,7,8
 620 1550 620 1550 674 1550 c 0,9,10
 735 1550 735 1550 755 1501 c 2,11,-1
 881 1175 l 1,12,-1
 856 1153 l 1,0,-1
EndSplineSet
Validated: 1
EndChar

StartChar: a
Encoding: 97 97 68
Width: 1250
GlyphClass: 2
Flags: W
HStem: -20 114<523.064 762.574> 0 21G<830 1034.62> 1006 114<710.497 956.226> 1080 20G<1079.33 1284>
VStem: 257 207<176.041 599.128>
DStem2: 825.383 -20 1025.38 -20 0.224951 0.97437<65.5163 127.259 216.982 846.315 1039.59 1149.47>
LayerCount: 2
Fore
SplineSet
1030 0 m 17,0,1
 930 0 930 0 830 0 c 25,2,-1
 854 104 l 17,3,4
 829 72 829 72 797 46 c 0,5,6
 715 -20 715 -20 607 -20 c 0,7,8
 432 -20 432 -20 337 116 c 0,9,10
 257 230 257 230 257 384 c 0,11,12
 257 461 257 461 277 550 c 0,13,14
 340 817 340 817 537 984 c 16,15,16
 697 1120 697 1120 871 1120 c 0,17,18
 977 1120 977 1120 1032 1048 c 0,19,20
 1052 1022 1052 1022 1059 993 c 1,21,-1
 1084 1100 l 1,22,-1
 1284 1100 l 1,23,-1
 1030 0 l 17,0,1
989 690 m 2,24,25
 1004 756 1004 756 1004 809 c 128,-1,26
 1004 862 1004 862 989 904 c 0,27,28
 953 1006 953 1006 846 1006 c 0,29,30
 725 1006 725 1006 635 890 c 24,31,32
 550 781 550 781 497 550 c 0,33,34
 464 406 464 406 464 311 c 0,35,36
 464 250 464 250 478 210 c 0,37,38
 519 94 519 94 636 94 c 0,39,40
 737 94 737 94 824 194 c 0,41,42
 893 273 893 273 925 410 c 2,43,-1
 989 690 l 2,24,25
EndSplineSet
Validated: 1
EndChar

StartChar: c
Encoding: 99 99 69
Width: 1165
GlyphClass: 2
Flags: W
HStem: -20 110<510.146 794.764> 1014 106<703.411 998.072>
VStem: 237 207<175.059 592.786> 918 274<678.445 821.127> 977 141<217 358>
LayerCount: 2
Fore
SplineSet
1118 358 m 1,0,1
 1046 207 1046 207 951 119 c 0,2,3
 800 -20 800 -20 630 -20 c 0,4,5
 414 -20 414 -20 317 116 c 0,6,7
 237 228 237 228 237 383 c 0,8,9
 237 460 237 460 257 550 c 0,10,11
 321 823 321 823 517 984 c 0,12,13
 683 1120 683 1120 882 1120 c 0,14,15
 1052 1120 1052 1120 1139 982 c 0,16,17
 1192 898 1192 898 1192 816 c 0,18,19
 1192 788 1192 788 1186 760 c 0,20,21
 1172 694 1172 694 1124 656 c 128,-1,22
 1076 618 1076 618 1023 618 c 128,-1,23
 970 618 970 618 939 656 c 0,24,25
 918 682 918 682 918 716 c 0,26,27
 918 731 918 731 922 747 c 0,28,29
 936 802 936 802 981 838 c 0,30,31
 1013 864 1013 864 1055 873 c 1,32,33
 1018 1014 1018 1014 854 1014 c 0,34,35
 718 1014 718 1014 615 890 c 0,36,37
 531 789 531 789 477 550 c 0,38,39
 444 404 444 404 444 311 c 0,40,41
 444 250 444 250 458 210 c 0,42,43
 500 90 500 90 655 90 c 0,44,45
 761 90 761 90 860 187 c 0,46,47
 925 251 925 251 977 358 c 1,48,-1
 1118 358 l 1,0,1
EndSplineSet
Validated: 1
EndChar

StartChar: d
Encoding: 100 100 70
Width: 1250
GlyphClass: 2
Flags: W
HStem: -20 114<523.064 762.574> 0 21G<830 1034.62> 1006 114<710.497 956.226> 1490 20G<1174.36 1379>
VStem: 257 207<176.041 599.128> 1179 200<1310 1510>
DStem2: 825.383 -20 1025.38 -20 0.224951 0.97437<65.5163 127.259 216.982 846.315 1039.59 1570.33>
LayerCount: 2
Fore
SplineSet
1030 0 m 17,0,1
 930 0 930 0 830 0 c 25,2,-1
 854 104 l 17,3,4
 829 72 829 72 797 46 c 0,5,6
 715 -20 715 -20 607 -20 c 0,7,8
 432 -20 432 -20 337 116 c 0,9,10
 257 230 257 230 257 384 c 0,11,12
 257 462 257 462 277 550 c 0,13,14
 340 817 340 817 537 984 c 16,15,16
 697 1120 697 1120 871 1120 c 0,17,18
 977 1120 977 1120 1032 1048 c 0,19,20
 1052 1022 1052 1022 1059 993 c 1,21,-1
 1179 1510 l 25,22,-1
 1379 1510 l 25,23,-1
 1030 0 l 17,0,1
989 690 m 2,24,25
 1004 756 1004 756 1004 809 c 128,-1,26
 1004 862 1004 862 989 904 c 0,27,28
 953 1006 953 1006 846 1006 c 0,29,30
 725 1006 725 1006 635 890 c 24,31,32
 550 781 550 781 497 550 c 0,33,34
 464 406 464 406 464 311 c 0,35,36
 464 250 464 250 478 210 c 0,37,38
 519 94 519 94 636 94 c 0,39,40
 737 94 737 94 824 194 c 0,41,42
 893 273 893 273 925 410 c 2,43,-1
 989 690 l 2,24,25
EndSplineSet
Validated: 1
EndChar

StartChar: e
Encoding: 101 101 71
Width: 1165
GlyphClass: 2
Flags: W
HStem: -20 110<504.528 794.764> 339 71<450 652.986> 1014 106<700.411 957.464>
VStem: 237 206<175.5 339> 977 141<217 358> 983 190<687.523 990.644>
DStem2: 257 550 477 550 0.179558 0.983747<-103.07 234.403>
LayerCount: 2
Fore
SplineSet
1118 358 m 1,0,1
 1046 207 1046 207 951 119 c 0,2,3
 800 -20 800 -20 630 -20 c 0,4,5
 412 -20 412 -20 317 116 c 0,6,7
 237 230 237 230 237 384 c 0,8,9
 237 462 237 462 257 550 c 0,10,11
 319 820 319 820 517 984 c 0,12,13
 680 1120 680 1120 878 1120 c 0,14,15
 1035 1120 1035 1120 1117 1016 c 0,16,17
 1173 945 1173 945 1173 851 c 0,18,19
 1173 811 1173 811 1163 768 c 0,20,21
 1128 617 1128 617 1000 506 c 0,22,23
 810 341 810 341 443 339 c 1,24,25
 443 267 443 267 458 210 c 0,26,27
 490 90 490 90 655 90 c 0,28,29
 761 90 761 90 860 187 c 0,30,31
 925 251 925 251 977 358 c 1,32,-1
 1118 358 l 1,0,1
450 410 m 1,33,34
 698 418 698 418 840 557 c 0,35,36
 942 657 942 657 968 766 c 0,37,38
 983 829 983 829 983 876 c 0,39,40
 983 907 983 907 975 935 c 0,41,42
 952 1014 952 1014 854 1014 c 0,43,44
 711 1014 711 1014 615 890 c 0,45,46
 530 780 530 780 477 550 c 0,47,48
 455 454 455 454 450 410 c 1,33,34
EndSplineSet
Validated: 1
EndChar

StartChar: f
Encoding: 102 102 72
Width: 979
GlyphClass: 2
Flags: W
HStem: -410 21G<125 329.622> 728 122<246 388 616 914> 1424 106<838.47 1085.98>
VStem: 125 200<-410 -210> 974 273<1144.16 1285.72>
DStem2: 125 -410 325 -410 0.224951 0.97437<44.9902 1168 1338.16 1724.8>
LayerCount: 2
Fore
SplineSet
125 -410 m 25,0,-1
 388 728 l 1,1,-1
 218 728 l 1,2,-1
 246 850 l 1,3,-1
 416 850 l 1,4,-1
 442 960 l 2,5,6
 508 1245 508 1245 648 1380 c 0,7,8
 804 1530 804 1530 991 1530 c 0,9,10
 1130 1530 1130 1530 1203 1410 c 0,11,12
 1247 1338 1247 1338 1247 1271 c 0,13,14
 1247 1248 1247 1248 1242 1226 c 0,15,16
 1227 1160 1227 1160 1180 1122 c 0,17,18
 1132 1084 1132 1084 1078 1084 c 0,19,20
 1025 1084 1025 1084 995 1122 c 0,21,22
 974 1149 974 1149 974 1183 c 0,23,24
 974 1194 974 1194 978 1213 c 0,25,26
 988 1262 988 1262 1037 1304 c 0,27,28
 1068 1330 1068 1330 1110 1339 c 1,29,30
 1078 1424 1078 1424 970 1424 c 0,31,32
 853 1424 853 1424 773 1314 c 0,33,34
 700 1214 700 1214 642 960 c 2,35,-1
 616 850 l 1,36,-1
 942 850 l 1,37,-1
 914 728 l 1,38,-1
 588 728 l 1,39,-1
 325 -410 l 25,40,-1
 125 -410 l 25,0,-1
EndSplineSet
Validated: 1
EndChar

StartChar: h
Encoding: 104 104 73
Width: 1270
GlyphClass: 2
Flags: W
HStem: 0 21G<220 424.609 850 1054.61> 979 141<785.601 988.052> 1490 20G<564.378 769>
VStem: 220 200<0 200> 569 200<1310 1510> 850 200<0 200> 1027 202<583.031 941.5>
DStem2: 220 0 420 0 0.224951 0.97437<44.9902 955.387 1025 1549.81> 850 0 1050 0 0.224951 0.97437<44.9902 834.317>
LayerCount: 2
Fore
SplineSet
220 0 m 1,0,-1
 569 1510 l 25,1,-1
 769 1510 l 25,2,-1
 640 955 l 1,3,4
 677 998 677 998 722 1034 c 0,5,6
 832 1120 832 1120 969 1120 c 0,7,8
 1120 1120 1120 1120 1199 981 c 0,9,10
 1229 928 1229 928 1229 845 c 0,11,12
 1229 778 1229 778 1209 690 c 2,13,-1
 1050 0 l 25,14,-1
 850 0 l 25,15,-1
 1010 692 l 2,16,17
 1027 766 1027 766 1027 817 c 0,18,19
 1027 847 1027 847 1020 874 c 0,20,21
 992 979 992 979 876 979 c 0,22,23
 765 979 765 979 687 898 c 128,-1,24
 609 817 609 817 579 690 c 2,25,-1
 420 0 l 1,26,-1
 220 0 l 1,0,-1
EndSplineSet
Validated: 1
EndChar

StartChar: i
Encoding: 105 105 74
Width: 640
GlyphClass: 2
Flags: W
HStem: 0 21G<220 424.618> 1080 20G<469.382 674> 1266 264<565.864 720.136>
VStem: 220 200<0 200> 474 200<900 1100> 509 268<1322.8 1473.2>
DStem2: 220 0 420 0 0.224951 0.97437<44.9902 1128.94>
LayerCount: 2
Fore
SplineSet
509 1366 m 0,0,1
 509 1381 509 1381 513 1398 c 0,2,3
 526 1454 526 1454 573 1492 c 128,-1,4
 620 1530 620 1530 673 1530 c 128,-1,5
 726 1530 726 1530 756 1492 c 0,6,7
 777 1465 777 1465 777 1430 c 0,8,9
 777 1415 777 1415 773 1398 c 0,10,11
 760 1342 760 1342 713 1304 c 128,-1,12
 666 1266 666 1266 612 1266 c 0,13,14
 557 1266 557 1266 529 1304 c 0,15,16
 509 1331 509 1331 509 1366 c 0,0,1
220 0 m 1,17,-1
 474 1100 l 25,18,-1
 674 1100 l 25,19,-1
 420 0 l 1,20,-1
 220 0 l 1,17,-1
EndSplineSet
Validated: 1
EndChar

StartChar: j
Encoding: 106 106 75
Width: 640
GlyphClass: 2
Flags: W
HStem: -410 15<-61 -53.6624> 1080 20G<469.375 674> 1266 264<565.864 720.136>
VStem: 474 200<900 1100> 509 268<1322.8 1473.2>
DStem2: 125.02 -410 325.02 -410 0.224951 0.97437<350.958 1549.8>
LayerCount: 2
Fore
SplineSet
509 1366 m 0,0,1
 509 1381 509 1381 513 1398 c 0,2,3
 526 1454 526 1454 573 1492 c 128,-1,4
 620 1530 620 1530 673 1530 c 128,-1,5
 726 1530 726 1530 756 1492 c 0,6,7
 777 1465 777 1465 777 1430 c 0,8,9
 777 1415 777 1415 773 1398 c 0,10,11
 760 1342 760 1342 713 1304 c 128,-1,12
 666 1266 666 1266 612 1266 c 0,13,14
 557 1266 557 1266 529 1304 c 0,15,16
 509 1331 509 1331 509 1366 c 0,0,1
474 1100 m 25,17,-1
 674 1100 l 25,18,-1
 458 166 l 2,19,20
 352 -293 352 -293 -65 -410 c 1,21,-1
 -61 -395 l 1,22,23
 175 -195 175 -195 258 166 c 2,24,-1
 474 1100 l 25,17,-1
EndSplineSet
Validated: 1
EndChar

StartChar: l
Encoding: 108 108 76
Width: 640
GlyphClass: 2
Flags: W
HStem: 0 21G<220 424.623> 1490 20G<564.378 769>
VStem: 220 200<0 200> 569 200<1310 1510>
DStem2: 220 0 420 0 0.224951 0.97437<44.9902 1549.81>
LayerCount: 2
Fore
SplineSet
220 0 m 1,0,-1
 569 1510 l 25,1,-1
 769 1510 l 25,2,-1
 420 0 l 1,3,-1
 220 0 l 1,0,-1
EndSplineSet
Validated: 1
EndChar

StartChar: m
Encoding: 109 109 77
Width: 1890
GlyphClass: 2
Flags: W
HStem: 0 21G<220 424.609 850 1054.61 1474.62 1670> 979 141<785.601 989.391 1415.6 1609.76> 1080 20G<469.382 674>
VStem: 220 200<0 200> 850 200<0 200> 1470 200<-1 199> 1647 199<572.148 943.666>
DStem2: 219.769 -1 419.769 -1 0.224951 0.97437<46.0165 956.414 1026.03 1129.97> 849.769 -1 1049.77 -1 0.224951 0.97437<46.0165 834.34> 1470 -1 1669.77 -1 0.224951 0.97437<45.9646 835.292>
LayerCount: 2
Fore
SplineSet
220 0 m 1,0,-1
 474 1100 l 25,1,-1
 674 1100 l 25,2,-1
 640 955 l 1,3,4
 677 998 677 998 722 1034 c 0,5,6
 832 1120 832 1120 969 1120 c 0,7,8
 1135 1120 1135 1120 1199 981 c 0,9,10
 1218 940 1218 940 1224 890 c 1,11,12
 1276 974 1276 974 1352 1034 c 0,13,14
 1462 1120 1462 1120 1599 1120 c 0,15,16
 1765 1120 1765 1120 1819 981 c 0,17,18
 1846 912 1846 912 1846 830 c 0,19,20
 1846 764 1846 764 1829 690 c 2,21,-1
 1670 0 l 17,22,-1
 1470 -1 l 9,23,-1
 1630 692 l 2,24,25
 1647 766 1647 766 1647 817 c 0,26,27
 1647 847 1647 847 1640 874 c 0,28,29
 1613 979 1613 979 1506 979 c 0,30,31
 1395 979 1395 979 1317 898 c 128,-1,32
 1239 817 1239 817 1209 690 c 2,33,-1
 1050 0 l 1,34,-1
 850 0 l 1,35,-1
 1010 692 l 2,36,37
 1027 764 1027 764 1027 816 c 0,38,39
 1027 842 1027 842 1020 874 c 0,40,41
 994 979 994 979 876 979 c 0,42,43
 765 979 765 979 687 898 c 128,-1,44
 609 817 609 817 579 690 c 2,45,-1
 420 0 l 1,46,-1
 220 0 l 1,0,-1
EndSplineSet
Validated: 1
EndChar

StartChar: n
Encoding: 110 110 78
Width: 1270
GlyphClass: 2
Flags: W
HStem: 0 21G<220 424.609 850 1054.61> 979 141<785.601 988.282> 1080 20G<469.382 674>
VStem: 220 200<0 200> 850 200<0 200> 1027 202<583.031 942.486>
DStem2: 220 0 420 0 0.224951 0.97437<44.9902 955.387 1025 1128.94> 850 0 1050 0 0.224951 0.97437<44.9902 834.317>
LayerCount: 2
Fore
SplineSet
220 0 m 1,0,-1
 474 1100 l 25,1,-1
 674 1100 l 25,2,-1
 640 955 l 1,3,4
 677 998 677 998 722 1034 c 0,5,6
 832 1120 832 1120 969 1120 c 0,7,8
 1120 1120 1120 1120 1199 981 c 0,9,10
 1229 928 1229 928 1229 845 c 0,11,12
 1229 778 1229 778 1209 690 c 2,13,-1
 1050 0 l 25,14,-1
 850 0 l 25,15,-1
 1010 692 l 2,16,17
 1027 766 1027 766 1027 817 c 0,18,19
 1027 846 1027 846 1020 874 c 0,20,21
 993 979 993 979 876 979 c 0,22,23
 765 979 765 979 687 898 c 128,-1,24
 609 817 609 817 579 690 c 2,25,-1
 420 0 l 1,26,-1
 220 0 l 1,0,-1
EndSplineSet
Validated: 1
EndChar

StartChar: o
Encoding: 111 111 79
Width: 1188
GlyphClass: 2
Flags: W
HStem: -20 114<501.191 749.834> 1006 114<689.397 940.233>
VStem: 237 207<176.041 595.425> 997 208<500.872 924.365>
LayerCount: 2
Fore
SplineSet
589 -20 m 0,0,1
 412 -20 412 -20 317 116 c 0,2,3
 237 230 237 230 237 384 c 0,4,5
 237 461 237 461 257 550 c 0,6,7
 321 823 321 823 517 984 c 0,8,9
 682 1120 682 1120 853 1120 c 0,10,11
 1028 1120 1028 1120 1125 984 c 0,12,13
 1205 872 1205 872 1205 717 c 0,14,15
 1205 640 1205 640 1185 550 c 0,16,17
 1123 283 1123 283 925 116 c 0,18,19
 764 -20 764 -20 589 -20 c 0,0,1
826 1006 m 0,20,21
 705 1006 705 1006 615 890 c 0,22,23
 530 780 530 780 477 550 c 0,24,25
 444 406 444 406 444 311 c 0,26,27
 444 250 444 250 458 210 c 0,28,29
 499 94 499 94 616 94 c 128,-1,30
 733 94 733 94 826 210 c 0,31,32
 913 319 913 319 965 550 c 0,33,34
 997 692 997 692 997 786 c 0,35,36
 997 849 997 849 983 890 c 0,37,38
 943 1006 943 1006 826 1006 c 0,20,21
EndSplineSet
Validated: 1
EndChar

StartChar: p
Encoding: 112 112 80
Width: 1250
GlyphClass: 2
Flags: W
HStem: -410 21G<125 329.642> -20 114<547.774 792.603> 1006 114<741.426 983.877> 1080 20G<469.377 674>
VStem: 125 200<-410 -210> 1039 208<500.872 923.959>
DStem2: 125 -410 325 -410 0.224951 0.97437<44.9902 575.734 769.008 1395.37 1488.06 1549.81>
LayerCount: 2
Fore
SplineSet
474 1100 m 17,0,1
 574 1100 574 1100 674 1100 c 25,2,-1
 650 996 l 17,3,4
 675 1028 675 1028 707 1054 c 0,5,6
 789 1120 789 1120 897 1120 c 0,7,8
 1072 1120 1072 1120 1167 984 c 0,9,10
 1247 870 1247 870 1247 716 c 0,11,12
 1247 639 1247 639 1227 550 c 0,13,14
 1164 283 1164 283 967 116 c 16,15,16
 807 -20 807 -20 633 -20 c 0,17,18
 527 -20 527 -20 472 52 c 0,19,20
 452 78 452 78 445 107 c 1,21,-1
 325 -410 l 25,22,-1
 125 -410 l 25,23,-1
 474 1100 l 17,0,1
515 410 m 2,24,25
 500 344 500 344 500 291 c 128,-1,26
 500 238 500 238 515 196 c 0,27,28
 551 94 551 94 658 94 c 0,29,30
 776 94 776 94 868 210 c 24,31,32
 954 319 954 319 1007 550 c 0,33,34
 1039 690 1039 690 1039 785 c 0,35,36
 1039 845 1039 845 1025 890 c 0,37,38
 988 1006 988 1006 868 1006 c 0,39,40
 767 1006 767 1006 680 906 c 0,41,42
 611 827 611 827 579 690 c 2,43,-1
 515 410 l 2,24,25
EndSplineSet
Validated: 1
EndChar

StartChar: q
Encoding: 113 113 81
Width: 1250
GlyphClass: 2
Flags: W
HStem: -410 21G<735 939.622> -20 114<519.852 762.541> 1006 114<710.735 956.176> 1080 20G<1079.38 1284>
VStem: 257 208<175.666 598.69> 735 200<-410 -210>
DStem2: 735 -410 935 -410 0.224951 0.97437<44.9902 530.743 620.116 1243.73 1443.07 1549.81>
LayerCount: 2
Fore
SplineSet
1284 1100 m 9,0,1
 935 -410 l 25,2,-1
 735 -410 l 25,3,-1
 855 107 l 1,4,5
 834 78 834 78 802 52 c 0,6,7
 713 -20 713 -20 607 -20 c 0,8,9
 434 -20 434 -20 337 116 c 0,10,11
 257 228 257 228 257 384 c 0,12,13
 257 461 257 461 277 550 c 0,14,15
 336 813 336 813 537 984 c 0,16,17
 697 1120 697 1120 871 1120 c 0,18,19
 978 1120 978 1120 1029 1054 c 0,20,21
 1050 1027 1050 1027 1060 996 c 9,22,-1
 1084 1100 l 25,23,24
 1184 1100 1184 1100 1284 1100 c 9,0,1
989 690 m 2,25,26
 1004 753 1004 753 1004 806 c 0,27,28
 1004 858 1004 858 988 906 c 0,29,30
 954 1006 954 1006 846 1006 c 0,31,32
 726 1006 726 1006 635 890 c 0,33,34
 549 780 549 780 497 550 c 0,35,36
 465 408 465 408 465 313 c 0,37,38
 465 252 465 252 478 210 c 8,39,40
 514 94 514 94 636 94 c 0,41,42
 743 94 743 94 825 196 c 0,43,44
 895 282 895 282 925 410 c 2,45,-1
 989 690 l 2,25,26
EndSplineSet
Validated: 1
EndChar

StartChar: r
Encoding: 114 114 82
Width: 1032
GlyphClass: 2
Flags: W
HStem: 0 21G<220 424.612> 1014 106<802.194 1054.17> 1080 20G<469.382 674>
VStem: 220 200<0 200> 942 273<734.163 875.716>
DStem2: 220 0 420 0 0.224951 0.97437<44.9902 846.323 1025 1128.94>
LayerCount: 2
Fore
SplineSet
220 0 m 1,0,-1
 474 1100 l 25,1,-1
 674 1100 l 25,2,-1
 640 955 l 1,3,4
 677 998 677 998 722 1034 c 0,5,6
 832 1120 832 1120 960 1120 c 0,7,8
 1098 1120 1098 1120 1171 1000 c 0,9,10
 1215 928 1215 928 1215 861 c 0,11,12
 1215 838 1215 838 1210 816 c 0,13,14
 1195 750 1195 750 1148 712 c 128,-1,15
 1101 674 1101 674 1047 674 c 0,16,17
 995 674 995 674 964 712 c 0,18,19
 942 739 942 739 942 773 c 0,20,21
 942 788 942 788 946 803 c 0,22,23
 960 857 960 857 1005 894 c 0,24,25
 1036 920 1036 920 1078 929 c 1,26,27
 1046 1014 1046 1014 938 1014 c 0,28,29
 792 1014 792 1014 682 837 c 128,-1,30
 572 660 572 660 533 490 c 2,31,-1
 420 0 l 1,32,-1
 220 0 l 1,0,-1
EndSplineSet
Validated: 1
EndChar

StartChar: s
Encoding: 115 115 83
Width: 1086
GlyphClass: 2
Flags: W
HStem: -20 98<392.395 712.663> 1018 102<662.521 947.983>
VStem: 191 275<280.026 418.404> 384 188<715.441 917.353> 830 273<761.59 898.822> 851 197<211.544 437.469>
DStem2: 663 688 551 543 0.940595 -0.339532<-103.588 266.456>
LayerCount: 2
Fore
SplineSet
261 444 m 128,-1,1
 308 482 308 482 362 482 c 0,2,3
 414 482 414 482 446 444 c 0,4,5
 466 420 466 420 466 386 c 0,6,7
 466 370 466 370 462 353 c 0,8,9
 450 302 450 302 403 262 c 0,10,11
 372 236 372 236 330 227 c 1,12,13
 375 78 375 78 525 78 c 0,14,15
 643 78 643 78 733 133 c 0,16,17
 821 187 821 187 845 283 c 0,18,19
 851 307 851 307 851 328 c 0,20,21
 851 435 851 435 756 469 c 2,22,-1
 551 543 l 2,23,24
 384 603 384 603 384 763 c 0,25,26
 384 799 384 799 393 837 c 0,27,28
 418 942 418 942 542 1036 c 0,29,30
 652 1120 652 1120 799 1120 c 0,31,32
 936 1120 936 1120 1008 1056 c 0,33,34
 1103 972 1103 972 1103 882 c 0,35,36
 1103 862 1103 862 1098 842 c 0,37,38
 1081 776 1081 776 1036 738 c 0,39,40
 988 698 988 698 934 698 c 0,41,42
 883 698 883 698 851 736 c 0,43,44
 830 761 830 761 830 795 c 0,45,46
 830 811 830 811 834 827 c 0,47,48
 847 879 847 879 893 918 c 0,49,50
 924 944 924 944 966 953 c 1,51,52
 918 1018 918 1018 823 1018 c 0,53,54
 719 1018 719 1018 662 976 c 0,55,56
 599 929 599 929 576 839 c 0,57,58
 572 823 572 823 572 809 c 0,59,60
 572 720 572 720 663 688 c 2,61,-1
 834 628 l 2,62,63
 1048 553 1048 553 1048 374 c 0,64,65
 1048 341 1048 341 1038 295 c 0,66,67
 1013 170 1013 170 850 66 c 0,68,69
 717 -20 717 -20 525 -20 c 0,70,71
 336 -20 336 -20 246 118 c 0,72,73
 191 202 191 202 191 282 c 0,74,75
 191 311 191 311 198 340 c 0,76,0
 214 406 214 406 261 444 c 128,-1,1
EndSplineSet
Validated: 1
EndChar

StartChar: t
Encoding: 116 116 84
Width: 776
GlyphClass: 2
Flags: W
HStem: 0 21G<288 492.622> 978 122<294 514 742 962> 1490 20G<632.366 837>
VStem: 288 200<0 200> 637 200<1310 1510>
DStem2: 288 0 488 0 0.224951 0.97437<44.9902 1003.77 1173.93 1549.81>
LayerCount: 2
Fore
SplineSet
288 0 m 1,0,-1
 514 978 l 1,1,-1
 266 978 l 1,2,-1
 294 1100 l 1,3,-1
 542 1100 l 1,4,-1
 637 1510 l 1,5,-1
 837 1510 l 1,6,-1
 742 1100 l 1,7,-1
 990 1100 l 1,8,-1
 962 978 l 1,9,-1
 714 978 l 1,10,-1
 488 0 l 1,11,-1
 288 0 l 1,0,-1
EndSplineSet
Validated: 1
EndChar

StartChar: u
Encoding: 117 117 85
Width: 1270
GlyphClass: 2
Flags: W
HStem: -20 141<536.403 738.399> 0 21G<850 1054.62> 1080 20G<469.391 674 1099.39 1304>
VStem: 295 202<159.427 516.969> 474 200<900 1100> 1104 200<900 1100>
DStem2: 215.727 -20 415.188 -20 0.224951 0.97437<360.066 1149.39> 845.383 -20 1045.38 -20 0.224951 0.97437<65.5163 169.233 239.074 1149.47>
LayerCount: 2
Fore
SplineSet
1050 0 m 25,0,-1
 850 0 l 25,1,-1
 883 145 l 1,2,3
 847 102 847 102 802 66 c 0,4,5
 692 -20 692 -20 555 -20 c 0,6,7
 400 -20 400 -20 324 119 c 0,8,9
 295 172 295 172 295 254 c 0,10,11
 295 323 295 323 315 410 c 2,12,-1
 474 1100 l 25,13,-1
 674 1100 l 25,14,-1
 514 408 l 2,15,16
 497 334 497 334 497 283 c 0,17,18
 497 250 497 250 504 226 c 0,19,20
 535 121 535 121 648 121 c 0,21,22
 759 121 759 121 837 202 c 128,-1,23
 915 283 915 283 945 410 c 2,24,-1
 1104 1100 l 1,25,-1
 1304 1100 l 1,26,-1
 1050 0 l 25,0,-1
EndSplineSet
Validated: 1
EndChar

StartChar: braceleft
Encoding: 123 123 86
Width: 776
GlyphClass: 2
Flags: W
HStem: -300 82<490.672 659> 1728 82<921.65 1128.1>
VStem: 262 181<-164.957 204.25> 370 190<328.906 682.828>
DStem2: 180.421 -300 370.575 -300 0.224951 0.97437<312.309 875.67 1233.78 1956.9>
LayerCount: 2
Fore
SplineSet
224 755 m 1,0,1
 442 832 442 832 487 1028 c 2,2,-1
 572 1396 l 2,3,4
 616 1584 616 1584 769 1709 c 0,5,6
 893 1810 893 1810 1076 1810 c 0,7,8
 1106 1810 1106 1810 1142 1801 c 1,9,-1
 1123 1718 l 1,10,11
 1091 1728 1091 1728 1059 1728 c 0,12,13
 974 1728 974 1728 900 1674 c 0,14,15
 811 1609 811 1609 763 1401 c 2,16,-1
 677 1027 l 2,17,18
 638 856 638 856 441 755 c 1,19,20
 560 675 560 675 560 551 c 0,21,22
 560 518 560 518 552 483 c 2,23,-1
 465 109 l 2,24,25
 443 15 443 15 443 -49 c 0,26,27
 443 -129 443 -129 476 -164 c 0,28,29
 525 -218 525 -218 610 -218 c 0,30,31
 642 -218 642 -218 678 -208 c 1,32,-1
 659 -291 l 1,33,34
 619 -300 619 -300 589 -300 c 0,35,36
 409 -300 409 -300 328 -199 c 0,37,38
 262 -117 262 -117 262 0 c 0,39,40
 262 54 262 54 276 114 c 2,41,-1
 361 482 l 2,42,43
 370 522 370 522 370 556 c 0,44,45
 370 692 370 692 224 755 c 1,0,1
EndSplineSet
Validated: 1
EndChar

StartChar: bar
Encoding: 124 124 87
Width: 655
GlyphClass: 2
Flags: W
VStem: 215 155<-150 5> 633 155<1505 1660>
DStem2: 215 -150 370 -150 0.224951 0.97437<34.8674 1857.64>
LayerCount: 2
Fore
SplineSet
215 -150 m 1,0,-1
 633 1660 l 1,1,-1
 788 1660 l 1,2,-1
 370 -150 l 1,3,-1
 215 -150 l 1,0,-1
EndSplineSet
Validated: 1
EndChar

StartChar: braceright
Encoding: 125 125 88
Width: 776
GlyphClass: 2
Flags: W
HStem: -300 82<-3.09839 202.237> 1728 82<466 632.161>
VStem: 565 189<827.027 1181.09> 681 181<1302.83 1675.88>
DStem2: 266.575 -300 456.421 -300 0.224951 0.97437<244.198 974.54 1333.52 1894.96>
LayerCount: 2
Fore
SplineSet
900 755 m 1,0,1
 683 678 683 678 637 482 c 2,2,-1
 552 114 l 2,3,4
 508 -78 508 -78 356 -199 c 0,5,6
 229 -300 229 -300 49 -300 c 0,7,8
 19 -300 19 -300 -17 -291 c 1,9,-1
 2 -208 l 1,10,11
 34 -218 34 -218 66 -218 c 0,12,13
 151 -218 151 -218 224 -164 c 0,14,15
 313 -98 313 -98 361 109 c 2,16,-1
 448 483 l 2,17,18
 487 654 487 654 683 755 c 1,19,20
 565 835 565 835 565 959 c 0,21,22
 565 991 565 991 573 1027 c 2,23,-1
 659 1401 l 2,24,25
 681 1495 681 1495 681 1559 c 0,26,27
 681 1638 681 1638 648 1674 c 0,28,29
 598 1728 598 1728 515 1728 c 0,30,31
 483 1728 483 1728 447 1718 c 1,32,-1
 466 1801 l 1,33,34
 506 1810 506 1810 536 1810 c 0,35,36
 720 1810 720 1810 797 1709 c 0,37,38
 862 1624 862 1624 862 1509 c 0,39,40
 862 1456 862 1456 848 1396 c 2,41,-1
 763 1028 l 2,42,43
 754 989 754 989 754 955 c 0,44,45
 754 817 754 817 900 755 c 1,0,1
EndSplineSet
Validated: 1
EndChar

StartChar: asciitilde
Encoding: 126 126 89
Width: 1430
GlyphClass: 2
Flags: W
HStem: 538 172<1019.52 1200.44> 748 173<565.154 747.783>
DStem2: 1044 736 723 722 0.803842 -0.594843<-333.045 82.6098>
LayerCount: 2
Fore
SplineSet
342 614 m 1,0,1
 503 921 503 921 721 921 c 0,2,3
 794 921 794 921 844 884 c 1,4,-1
 1044 736 l 17,5,6
 1082 710 1082 710 1129 710 c 0,7,8
 1231 710 1231 710 1425 844 c 1,9,10
 1264 538 1264 538 1040 538 c 0,11,12
 967 538 967 538 923 574 c 1,13,-1
 723 722 l 17,14,15
 687 748 687 748 637 748 c 0,16,17
 536 748 536 748 342 614 c 1,0,1
EndSplineSet
Validated: 1
EndChar

StartChar: exclamdown
Encoding: 161 161 91
Width: 659
GlyphClass: 2
Flags: W
HStem: -20 21G<298 352> 1266 264<575.053 729.136>
VStem: 222 263<30.6819 233.375> 519 267<1323.16 1474.34>
LayerCount: 2
Fore
SplineSet
786 1430 m 0,0,1
 786 1415 786 1415 782 1398 c 0,2,3
 769 1343 769 1343 722 1304 c 0,4,5
 676 1266 676 1266 622 1266 c 0,6,7
 567 1266 567 1266 539 1304 c 0,8,9
 519 1331 519 1331 519 1365 c 0,10,11
 519 1381 519 1381 523 1398 c 0,12,13
 536 1454 536 1454 582 1492 c 0,14,15
 629 1530 629 1530 683 1530 c 0,16,17
 738 1530 738 1530 766 1492 c 0,18,19
 786 1465 786 1465 786 1430 c 0,0,1
655 1194 m 1,20,-1
 489 134 l 2,21,22
 487 122 487 122 485 112 c 0,23,24
 475 57 475 57 426 18 c 0,25,26
 379 -20 379 -20 325 -20 c 128,-1,27
 271 -20 271 -20 242 18 c 0,28,29
 222 44 222 44 222 79 c 0,30,31
 222 95 222 95 226 112 c 2,32,-1
 232 134 l 1,33,-1
 557 1194 l 1,34,-1
 655 1194 l 1,20,-1
EndSplineSet
Validated: 1
EndChar

StartChar: cent
Encoding: 162 162 92
Width: 1205
GlyphClass: 2
Flags: W
HStem: -20 111<691 812.92> 1013 106<928 1017.69>
VStem: 257 207<174.812 592.57> 486 115<-300 -185> 878 115<1285 1400> 938 274<679.59 820.624> 997 141<217 358>
DStem2: 486 -300 601 -300 0.224951 0.97437<25.8694 295.465 427.094 1334.17 1482.06 1744.61>
LayerCount: 2
Fore
SplineSet
1138 358 m 1,0,1
 1066 206 1066 206 971 119 c 0,2,3
 827 -14 827 -14 665 -20 c 1,4,-1
 601 -300 l 1,5,-1
 486 -300 l 1,6,-1
 552 -12 l 1,7,8
 411 13 411 13 337 116 c 0,9,10
 257 228 257 228 257 383 c 0,11,12
 257 461 257 461 277 550 c 0,13,14
 340 820 340 820 537 984 c 0,15,16
 663 1089 663 1089 812 1113 c 1,17,-1
 878 1400 l 1,18,-1
 993 1400 l 1,19,-1
 928 1119 l 1,20,21
 1075 1109 1075 1109 1159 982 c 0,22,23
 1212 902 1212 902 1212 818 c 0,24,25
 1212 787 1212 787 1206 760 c 0,26,27
 1191 694 1191 694 1144 656 c 128,-1,28
 1097 618 1097 618 1043 618 c 0,29,30
 991 618 991 618 959 656 c 0,31,32
 938 681 938 681 938 716 c 0,33,34
 938 727 938 727 942 747 c 0,35,36
 953 800 953 800 1001 838 c 0,37,38
 1034 864 1034 864 1075 873 c 1,39,40
 1041 1000 1041 1000 904 1013 c 1,41,-1
 691 91 l 1,42,43
 786 97 786 97 880 187 c 0,44,45
 945 249 945 249 997 358 c 1,46,-1
 1138 358 l 1,0,1
786 1000 m 1,47,48
 703 972 703 972 635 890 c 0,49,50
 552 789 552 789 497 550 c 0,51,52
 464 406 464 406 464 312 c 0,53,54
 464 251 464 251 478 210 c 0,55,56
 504 134 504 134 579 105 c 1,57,-1
 786 1000 l 1,47,48
EndSplineSet
Validated: 1
EndChar

StartChar: sterling
Encoding: 163 163 93
Width: 1227
GlyphClass: 2
Flags: W
HStem: -20 93<701.604 1027.43> 37 104<476.688 758.774> 635 121<615 967> 1424 106<892.484 1182.18>
VStem: 1004 268<140.242 296.194> 1103 274<1089.09 1230.13>
DStem2: 235.768 -20 435.83 -20 0.224951 0.97437<210.239 717.222 841.42 1295.04>
LayerCount: 2
Fore
SplineSet
239 -6 m 9,0,-1
 462 960 l 2,1,2
 525 1234 525 1234 702 1394 c 0,3,4
 853 1530 853 1530 1066 1530 c 0,5,6
 1235 1530 1235 1530 1323 1392 c 0,7,8
 1377 1307 1377 1307 1377 1225 c 0,9,10
 1377 1198 1377 1198 1371 1170 c 0,11,12
 1354 1102 1354 1102 1309 1066 c 0,13,14
 1261 1028 1261 1028 1207 1028 c 0,15,16
 1154 1028 1154 1028 1124 1066 c 0,17,18
 1103 1093 1103 1093 1103 1127 c 0,19,20
 1103 1137 1103 1137 1107 1157 c 0,21,22
 1117 1206 1117 1206 1166 1248 c 0,23,24
 1197 1274 1197 1274 1239 1283 c 1,25,26
 1203 1424 1203 1424 1039 1424 c 0,27,28
 912 1424 912 1424 800 1300 c 0,29,30
 720 1211 720 1211 662 960 c 2,31,-1
 615 756 l 1,32,-1
 995 756 l 1,33,-1
 967 635 l 1,34,-1
 587 635 l 1,35,-1
 473 141 l 17,36,37
 625 141 625 141 704 117 c 0,38,39
 849 73 849 73 894 73 c 0,40,41
 969 73 969 73 1030 117 c 1,42,43
 1004 155 1004 155 1004 193 c 0,44,45
 1004 198 1004 198 1008 222 c 0,46,47
 1019 273 1019 273 1068 315 c 0,48,49
 1112 352 1112 352 1167 352 c 128,-1,50
 1222 352 1222 352 1251 314 c 0,51,52
 1272 286 1272 286 1272 251 c 0,53,54
 1272 243 1272 243 1268 222 c 0,55,56
 1247 122 1247 122 1117 52 c 0,57,58
 983 -20 983 -20 865 -20 c 0,59,60
 780 -20 780 -20 680 15 c 0,61,62
 617 37 617 37 516 37 c 0,63,64
 392 37 392 37 245 -20 c 1,65,-1
 239 -6 l 9,0,-1
EndSplineSet
Validated: 1
EndChar

StartChar: currency
Encoding: 164 164 94
Width: 1555
GlyphClass: 2
Flags: W
HStem: 226 123<706.937 1018.29> 1151 135<863.477 1191.4>
VStem: 419 197<448.934 846.969> 1276 209<661.71 1049.75>
DStem2: 269 299 376 160 0.776247 0.630429<0 249.065 1393.87 1606.25> 643 1315 472 1176 0.609447 -0.792827<5.98756 170.375 1088.27 1281.49>
LayerCount: 2
Fore
SplineSet
1040 1151 m 0,0,1
 882 1151 882 1151 776 1038 c 0,2,3
 672 927 672 927 633 757 c 0,4,5
 616 683 616 683 616 619 c 0,6,7
 616 530 616 530 651 460 c 0,8,9
 708 349 708 349 852 349 c 128,-1,10
 996 349 996 349 1104 459 c 0,11,12
 1220 577 1220 577 1260 756 c 0,13,14
 1276 827 1276 827 1276 889 c 0,15,16
 1276 972 1276 972 1246 1037 c 0,17,18
 1193 1151 1193 1151 1040 1151 c 0,0,1
643 1315 m 1,19,-1
 744 1183 l 1,20,21
 901 1286 901 1286 1075 1286 c 0,22,23
 1247 1286 1247 1286 1357 1183 c 1,24,-1
 1520 1315 l 1,25,-1
 1626 1176 l 1,26,-1
 1457 1038 l 1,27,28
 1485 967 1485 967 1485 883 c 0,29,30
 1485 821 1485 821 1469 749 c 0,31,32
 1430 583 1430 583 1306 452 c 1,33,-1
 1424 299 l 1,34,-1
 1253 160 l 1,35,-1
 1135 313 l 1,36,37
 989 226 989 226 828 226 c 0,38,39
 669 226 669 226 565 313 c 1,40,-1
 376 160 l 1,41,-1
 269 299 l 1,42,-1
 457 452 l 1,43,44
 419 533 419 533 419 629 c 0,45,46
 419 689 419 689 434 756 c 0,47,48
 469 912 469 912 578 1038 c 1,49,-1
 472 1176 l 1,50,-1
 643 1315 l 1,19,-1
EndSplineSet
Validated: 1
EndChar

StartChar: yen
Encoding: 165 165 95
Width: 1388
GlyphClass: 2
Flags: W
HStem: 0 21G<588 793.605> 430 150<406 687 958 1204> 730 150<475 614 851 952 1169 1274> 1490 20G<469 684.349 1484.9 1617>
VStem: 469 211<1299 1510> 588 201<0 201> 1499 118<1392 1510>
DStem2: 680 1510 469 1510 0.229214 -0.973376<0 598.099 798.429 798.429> 588 0 789 0 0.224951 0.97437<45.2152 441.249> 875 620 958 580 0.578163 0.815921<15.3507 134.27 382.12 1086.94>
LayerCount: 2
Fore
SplineSet
588 0 m 9,0,-1
 687 430 l 1,1,-1
 371 430 l 1,2,-1
 406 580 l 1,3,-1
 688 580 l 1,4,-1
 651 730 l 1,5,-1
 441 730 l 1,6,-1
 475 880 l 1,7,-1
 614 880 l 1,8,-1
 469 1510 l 17,9,-1
 680 1510 l 9,10,-1
 817 880 l 1,11,-1
 1055 880 l 1,12,-1
 1499 1510 l 25,13,-1
 1617 1510 l 25,14,-1
 1169 880 l 1,15,-1
 1308 880 l 1,16,-1
 1274 730 l 1,17,-1
 1064 730 l 1,18,-1
 958 580 l 1,19,-1
 1239 580 l 1,20,-1
 1204 430 l 1,21,-1
 888 430 l 1,22,-1
 789 0 l 17,23,-1
 588 0 l 9,0,-1
952 730 m 1,24,-1
 851 730 l 1,25,-1
 875 620 l 1,26,-1
 952 730 l 1,24,-1
EndSplineSet
Validated: 1
EndChar

StartChar: brokenbar
Encoding: 166 166 96
Width: 654
GlyphClass: 2
Flags: W
VStem: 215 154<-150 4> 403 154<507 661> 446 154<850 1004> 633 154<1506 1660>
DStem2: 215 -150 369 -150 0.224951 0.97437<34.6425 832.505 1060.98 1857.64>
LayerCount: 2
Fore
SplineSet
215 -150 m 1,0,-1
 403 661 l 9,1,-1
 557 661 l 17,2,-1
 369 -150 l 1,3,-1
 215 -150 l 1,0,-1
633 1660 m 1,4,-1
 787 1660 l 1,5,-1
 600 850 l 9,6,-1
 446 850 l 17,7,-1
 633 1660 l 1,4,-1
EndSplineSet
Validated: 1
EndChar

StartChar: section
Encoding: 167 167 97
Width: 1162
GlyphClass: 2
Flags: W
HStem: -20 102<467.079 710.324> 1428 102<800.581 1043.58>
VStem: 283 268<155.366 305.895> 321 183<662.547 873.117> 518 194<1137.73 1310.61> 798 195<199.391 372.267> 960 268<1203.58 1355.2> 1006 184<636.883 847.453>
DStem2: 607 629 529 459 0.940595 -0.339532<-115.734 279.769> 810 1111 698 955 0.940595 -0.339532<-113.906 282.242>
LayerCount: 2
Fore
SplineSet
436 967 m 1,0,-1
 557 885 l 1,1,2
 524 854 524 854 509 791 c 0,3,4
 504 770 504 770 504 751 c 0,5,6
 504 666 504 666 607 629 c 2,7,-1
 812 555 l 2,8,9
 993 490 993 490 993 351 c 0,10,11
 993 324 993 324 986 293 c 0,12,13
 956 162 956 162 828 64 c 0,14,15
 718 -20 718 -20 571 -20 c 0,16,17
 467 -20 467 -20 403 22 c 0,18,19
 348 58 348 58 323 90 c 0,20,21
 301 118 301 118 289 152 c 0,22,23
 283 169 283 169 283 190 c 0,24,25
 283 209 283 209 288 232 c 0,26,27
 300 286 300 286 347 325 c 128,-1,28
 394 364 394 364 448 364 c 0,29,30
 503 364 503 364 531 325 c 0,31,32
 551 297 551 297 551 264 c 0,33,34
 551 248 551 248 547 232 c 0,35,36
 532 172 532 172 488 138 c 2,37,-1
 466 121 l 1,38,39
 514 82 514 82 571 82 c 0,40,41
 650 82 650 82 708 124 c 0,42,43
 771 169 771 169 794 261 c 0,44,45
 798 277 798 277 798 291 c 0,46,47
 798 365 798 365 700 399 c 2,48,-1
 529 459 l 2,49,50
 321 532 321 532 321 704 c 0,51,52
 321 742 321 742 331 784 c 0,53,54
 356 888 356 888 436 967 c 1,0,-1
1074 543 m 1,55,-1
 953 625 l 1,56,57
 990 659 990 659 1002 719 c 0,58,59
 1006 739 1006 739 1006 757 c 0,60,61
 1006 844 1006 844 903 881 c 2,62,-1
 698 955 l 2,63,64
 518 1020 518 1020 518 1159 c 0,65,66
 518 1186 518 1186 525 1217 c 0,67,68
 555 1348 555 1348 683 1446 c 0,69,70
 793 1530 793 1530 939 1530 c 0,71,72
 1043 1530 1043 1530 1108 1488 c 0,73,74
 1163 1452 1163 1452 1188 1420 c 0,75,76
 1211 1390 1211 1390 1222 1358 c 0,77,78
 1228 1340 1228 1340 1228 1319 c 128,-1,79
 1228 1298 1228 1298 1223 1278 c 0,80,81
 1209 1222 1209 1222 1164 1185 c 0,82,83
 1117 1146 1117 1146 1063 1146 c 128,-1,84
 1009 1146 1009 1146 980 1185 c 0,85,86
 960 1212 960 1212 960 1247 c 0,87,88
 960 1258 960 1258 964 1278 c 0,89,90
 976 1336 976 1336 1023 1372 c 2,91,-1
 1045 1389 l 1,92,93
 997 1428 997 1428 940 1428 c 0,94,95
 863 1428 863 1428 803 1386 c 0,96,97
 741 1343 741 1343 716 1249 c 0,98,99
 712 1234 712 1234 712 1219 c 0,100,101
 712 1145 712 1145 810 1111 c 2,102,-1
 982 1051 l 2,103,104
 1190 978 1190 978 1190 806 c 0,105,106
 1190 768 1190 768 1180 726 c 0,107,108
 1155 622 1155 622 1074 543 c 1,55,-1
EndSplineSet
Validated: 1
EndChar

StartChar: dieresis
Encoding: 168 168 98
Width: 997
GlyphClass: 2
Flags: W
HStem: 1266 264<575.864 729.986 912.864 1067.14>
VStem: 519 267<1321.66 1473.2> 856 268<1322.8 1473.2>
LayerCount: 2
Fore
SplineSet
856 1366 m 0,0,1
 856 1381 856 1381 860 1398 c 0,2,3
 873 1454 873 1454 920 1492 c 128,-1,4
 967 1530 967 1530 1020 1530 c 128,-1,5
 1073 1530 1073 1530 1103 1492 c 0,6,7
 1124 1465 1124 1465 1124 1430 c 0,8,9
 1124 1415 1124 1415 1120 1398 c 0,10,11
 1107 1342 1107 1342 1060 1304 c 128,-1,12
 1013 1266 1013 1266 959 1266 c 0,13,14
 904 1266 904 1266 876 1304 c 0,15,16
 856 1331 856 1331 856 1366 c 0,0,1
519 1366 m 0,17,18
 519 1381 519 1381 523 1398 c 0,19,20
 536 1454 536 1454 583 1492 c 128,-1,21
 630 1530 630 1530 683 1530 c 0,22,23
 737 1530 737 1530 766 1492 c 0,24,25
 786 1466 786 1466 786 1431 c 0,26,27
 786 1415 786 1415 782 1398 c 0,28,29
 769 1342 769 1342 723 1304 c 0,30,31
 676 1266 676 1266 622 1266 c 128,-1,32
 568 1266 568 1266 539 1304 c 0,33,34
 519 1331 519 1331 519 1366 c 0,17,18
EndSplineSet
Validated: 1
EndChar

StartChar: copyright
Encoding: 169 169 99
Width: 1401
GlyphClass: 2
Flags: W
HStem: 187 73<585.016 944.275> 348 94<722.397 929.999> 816 161<1000.44 1059.04> 1070 92<844.661 1041.27> 1254 77<797.54 1166>
VStem: 307 78<469.61 827.339> 547 146<469.503 830.714> 1367 76<684.4 1056.3>
LayerCount: 2
Fore
SplineSet
1137 612 m 1,0,1
 1077 494 1077 494 996 430 c 0,2,3
 893 348 893 348 781 348 c 0,4,5
 666 348 666 348 604 430 c 0,6,7
 547 505 547 505 547 618 c 0,8,9
 547 680 547 680 564 755 c 0,10,11
 614 964 614 964 754 1080 c 0,12,13
 853 1162 853 1162 960 1162 c 0,14,15
 1080 1162 1080 1162 1130 1086 c 0,16,17
 1166 1031 1166 1031 1166 966 c 0,18,19
 1166 940 1166 940 1160 911 c 0,20,21
 1152 872 1152 872 1118 841 c 0,22,23
 1090 816 1090 816 1052 816 c 0,24,25
 1017 816 1017 816 998 840 c 0,26,27
 978 864 978 864 986 900 c 0,28,29
 993 933 993 933 1027 960 c 0,30,31
 1042 972 1042 972 1060 977 c 1,32,33
 1044 1070 1044 1070 950 1070 c 0,34,35
 881 1070 881 1070 829 1010 c 0,36,37
 757 927 757 927 716 756 c 0,38,39
 693 660 693 660 693 594 c 0,40,41
 693 538 693 538 710 505 c 0,42,43
 742 442 742 442 821 442 c 0,44,45
 884 442 884 442 942 497 c 0,46,47
 988 541 988 541 1025 612 c 1,48,-1
 1137 612 l 1,0,1
1008 1331 m 0,49,50
 1248 1331 1248 1331 1366 1158 c 0,51,52
 1443 1045 1443 1045 1443 900 c 0,53,54
 1443 831 1443 831 1425 754 c 0,55,56
 1366 501 1366 501 1171 350 c 0,57,58
 961 187 961 187 742 187 c 0,59,60
 518 187 518 187 392 350 c 0,61,62
 307 460 307 460 307 610 c 0,63,64
 307 678 307 678 324 754 c 0,65,66
 381 999 381 999 576 1163 c 0,67,68
 777 1331 777 1331 1008 1331 c 0,49,50
989 1254 m 0,69,70
 799 1254 799 1254 624 1113 c 0,71,72
 447 970 447 970 398 754 c 0,73,74
 385 697 385 697 385 643 c 0,75,76
 385 516 385 516 458 406 c 0,77,78
 555 260 555 260 761 260 c 0,79,80
 952 260 952 260 1131 406 c 0,81,82
 1300 544 1300 544 1350 754 c 0,83,84
 1367 825 1367 825 1367 888 c 0,85,86
 1367 1019 1367 1019 1295 1110 c 0,87,88
 1183 1254 1183 1254 989 1254 c 0,69,70
EndSplineSet
Validated: 1
EndChar

StartChar: ordfeminine
Encoding: 170 170 100
Width: 1050
GlyphClass: 2
Flags: W
HStem: 680 150<392 1007> 940 97<670.241 809.869> 1453 97<746.477 885.943>
VStem: 517 145<1041.46 1336.71>
DStem2: 737.666 680 877.666 680 0.224951 0.97437<369.315 706.3 863.161 882.799>
LayerCount: 2
Fore
SplineSet
940 950 m 17,0,-1
 800 950 l 1,1,-1
 805 969 l 1,2,3
 760 940 760 940 709 940 c 0,4,5
 612 940 612 940 560 1014 c 0,6,7
 517 1075 517 1075 517 1157 c 0,8,9
 517 1198 517 1198 528 1245 c 0,10,11
 561 1386 561 1386 667 1476 c 0,12,13
 754 1550 754 1550 850 1550 c 0,14,15
 901 1550 901 1550 932 1521 c 1,16,-1
 937 1540 l 1,17,-1
 1077 1540 l 1,18,-1
 940 950 l 17,0,-1
885 1315 m 2,19,20
 892 1346 892 1346 892 1370 c 128,-1,21
 892 1394 892 1394 885 1412 c 0,22,23
 869 1453 869 1453 828 1453 c 0,24,25
 779 1453 779 1453 743 1405 c 0,26,27
 702 1350 702 1350 678 1245 c 0,28,29
 662 1174 662 1174 662 1130 c 4,30,31
 662 1103 662 1103 668 1085 c 0,32,33
 684 1037 684 1037 732 1037 c 0,34,35
 775 1037 775 1037 807 1078 c 24,36,37
 838 1118 838 1118 852 1175 c 2,38,-1
 885 1315 l 2,19,20
392 830 m 1,39,-1
 1042 830 l 1,40,-1
 1007 680 l 1,41,-1
 357 680 l 1,42,-1
 392 830 l 1,39,-1
EndSplineSet
Validated: 1
EndChar

StartChar: guillemotleft
Encoding: 171 171 101
Width: 1223
GlyphClass: 2
Flags: W
DStem2: 511 801 323 751 0.430358 -0.902658<0 461.494> 323 751 511 801 0.668573 0.743646<162.874 685.334> 908 801 720 751 0.430358 -0.902658<0 461.494> 720 751 908 801 0.668573 0.743646<162.874 685.334>
LayerCount: 2
Fore
SplineSet
1192 1276 m 1,0,-1
 1259 1188 l 1,1,-1
 908 801 l 1,2,-1
 1112 387 l 1,3,-1
 956 256 l 1,4,-1
 720 751 l 1,5,-1
 1192 1276 l 1,0,-1
795 1276 m 1,6,-1
 862 1188 l 1,7,-1
 511 801 l 1,8,-1
 715 387 l 1,9,-1
 559 256 l 1,10,-1
 323 751 l 1,11,-1
 795 1276 l 1,6,-1
EndSplineSet
Validated: 1
EndChar

StartChar: logicalnot
Encoding: 172 172 102
Width: 1233
GlyphClass: 2
Flags: W
HStem: 680 150<392 1036>
VStem: 967 154<380 534>
DStem2: 967 380 1121 380 0.224951 0.97437<34.6425 307.833>
LayerCount: 2
Fore
SplineSet
392 830 m 1,0,-1
 1225 830 l 9,1,-1
 1121 380 l 17,2,-1
 967 380 l 1,3,-1
 1036 680 l 1,4,-1
 357 680 l 1,5,-1
 392 830 l 1,0,-1
EndSplineSet
Validated: 1
EndChar

StartChar: uni00AD
Encoding: 173 173 103
Width: 1233
GlyphClass: 2
Flags: W
HStem: 680 150<392 1190>
LayerCount: 2
Fore
SplineSet
392 830 m 1,0,-1
 1225 830 l 1,1,-1
 1190 680 l 1,2,-1
 357 680 l 1,3,-1
 392 830 l 1,0,-1
EndSplineSet
Validated: 1
EndChar

StartChar: registered
Encoding: 174 174 104
Width: 1401
GlyphClass: 2
Flags: W
HStem: 187 73<585.016 945.83> 1086 90<777.37 1049.99> 1254 77<797.54 1165.75>
VStem: 307 78<469.61 827.339> 566 140<360 500> 706 140<826 966> 1085 149<792.882 1050.13> 1367 76<685.384 1054.26>
DStem2: 526.06 187 666.06 187 0.224951 0.97437<209.044 486.071 571.072 799.512> 1086 469 913 530 0.260219 -0.96555<-171.475 46.3437>
LayerCount: 2
Fore
SplineSet
566 360 m 25,0,-1
 706 966 l 1,1,-1
 846 966 l 1,2,-1
 794 741 l 1,3,4
 822 690 822 690 885 690 c 0,5,6
 953 690 953 690 1004 740 c 0,7,8
 1058 793 1058 793 1079 888 c 0,9,10
 1085 915 1085 915 1085 940 c 0,11,12
 1085 980 1085 980 1067 1017 c 0,13,14
 1031 1086 1031 1086 930 1086 c 0,15,16
 756 1086 756 1086 585 883 c 1,17,-1
 554 911 l 1,18,19
 722 1176 722 1176 955 1176 c 0,20,21
 1107 1176 1107 1176 1181 1098 c 0,22,23
 1234 1042 1234 1042 1234 959 c 0,24,25
 1234 926 1234 926 1226 889 c 0,26,27
 1203 783 1203 783 1122 705 c 0,28,29
 1069 654 1069 654 1013 628 c 1,30,31
 1052 604 1052 604 1063 562 c 2,32,-1
 1086 469 l 2,33,34
 1096 431 1096 431 1124 431 c 0,35,36
 1146 431 1146 431 1165 446 c 0,37,38
 1185 462 1185 462 1202 490 c 1,39,-1
 1217 490 l 1,40,41
 1314 604 1314 604 1350 754 c 0,42,43
 1367 826 1367 826 1367 889 c 0,44,45
 1367 1018 1367 1018 1295 1110 c 0,46,47
 1182 1254 1182 1254 989 1254 c 0,48,49
 799 1254 799 1254 624 1113 c 0,50,51
 447 970 447 970 398 754 c 0,52,53
 385 697 385 697 385 643 c 0,54,55
 385 516 385 516 458 406 c 0,56,57
 555 260 555 260 761 260 c 0,58,59
 884 260 884 260 1001 320 c 1,60,61
 964 339 964 339 951 389 c 2,62,-1
 913 530 l 2,63,64
 897 590 897 590 862 601 c 1,65,66
 809 605 809 605 768 630 c 1,67,-1
 706 360 l 25,68,-1
 566 360 l 25,0,-1
1008 1331 m 0,69,70
 1248 1331 1248 1331 1366 1158 c 0,71,72
 1443 1045 1443 1045 1443 901 c 0,73,74
 1443 831 1443 831 1425 754 c 0,75,76
 1366 502 1366 502 1171 350 c 0,77,78
 962 187 962 187 742 187 c 0,79,80
 518 187 518 187 392 350 c 0,81,82
 307 460 307 460 307 610 c 0,83,84
 307 678 307 678 324 754 c 0,85,86
 381 999 381 999 576 1163 c 0,87,88
 777 1331 777 1331 1008 1331 c 0,69,70
EndSplineSet
Validated: 1
EndChar

StartChar: macron
Encoding: 175 175 105
Width: 1233
GlyphClass: 2
Flags: W
HStem: 1400 150<558 1356>
LayerCount: 2
Fore
SplineSet
558 1550 m 1,0,-1
 1391 1550 l 1,1,-1
 1356 1400 l 1,2,-1
 523 1400 l 1,3,-1
 558 1550 l 1,0,-1
EndSplineSet
Validated: 1
EndChar

StartChar: degree
Encoding: 176 176 106
Width: 1008
GlyphClass: 2
Flags: W
HStem: 840 69<634.852 798.58> 1442 88<736.707 910.309>
VStem: 460 148<936.942 1268.38> 939 154<1087.76 1417.82>
LayerCount: 2
Fore
SplineSet
709 909 m 0,0,1
 780 909 780 909 833 979 c 0,2,3
 896 1062 896 1062 925 1185 c 0,4,5
 939 1244 939 1244 939 1291 c 0,6,7
 939 1343 939 1343 922 1379 c 0,8,9
 892 1442 892 1442 833 1442 c 0,10,11
 770 1442 770 1442 712 1375 c 0,12,13
 655 1309 655 1309 622 1164 c 0,14,15
 608 1103 608 1103 608 1053 c 0,16,17
 608 1016 608 1016 616 985 c 0,18,19
 636 909 636 909 709 909 c 0,0,1
857 1530 m 0,20,21
 984 1530 984 1530 1053 1421 c 0,22,23
 1093 1358 1093 1358 1093 1276 c 0,24,25
 1093 1230 1093 1230 1080 1177 c 0,26,27
 1050 1047 1050 1047 939 945 c 0,28,29
 825 840 825 840 698 840 c 0,30,31
 572 840 572 840 500 943 c 0,32,33
 460 1000 460 1000 460 1082 c 0,34,35
 460 1126 460 1126 472 1178 c 0,36,37
 505 1322 505 1322 613 1424 c 0,38,39
 725 1530 725 1530 857 1530 c 0,20,21
EndSplineSet
Validated: 1
EndChar

StartChar: plusminus
Encoding: 177 177 107
Width: 1233
GlyphClass: 2
Flags: W
HStem: 256 150<294 1092> 808 150<421 729 913 1220>
VStem: 650 150<466 616> 842 150<1150 1300>
DStem2: 601.518 256 751.518 256 0.224951 0.97437<249.267 566.53 754.076 1071.34>
LayerCount: 2
Fore
SplineSet
259 256 m 1,0,-1
 294 406 l 1,1,-1
 1127 406 l 1,2,-1
 1092 256 l 1,3,-1
 259 256 l 1,0,-1
842 1300 m 1,4,-1
 992 1300 l 1,5,-1
 913 958 l 1,6,-1
 1254 958 l 1,7,-1
 1220 808 l 1,8,-1
 879 808 l 1,9,-1
 800 466 l 1,10,-1
 650 466 l 1,11,-1
 729 808 l 1,12,-1
 387 808 l 1,13,-1
 421 958 l 1,14,-1
 763 958 l 1,15,-1
 842 1300 l 1,4,-1
EndSplineSet
Validated: 1
EndChar

StartChar: uni00B2
Encoding: 178 178 108
Width: 963
GlyphClass: 2
Flags: W
HStem: 725 135<676.25 874.143> 1442 98<667.394 861.016>
VStem: 876 146<1228.92 1410.02>
LayerCount: 2
Fore
SplineSet
367 725 m 1,0,1
 411 914 411 914 612 1059 c 2,2,-1
 772 1174 l 2,3,4
 856 1235 856 1235 872 1306 c 0,5,6
 876 1324 876 1324 876 1341 c 0,7,8
 876 1369 876 1369 864 1393 c 0,9,10
 840 1442 840 1442 774 1442 c 0,11,12
 687 1442 687 1442 630 1352 c 1,13,14
 642 1348 642 1348 655 1335 c 0,15,16
 677 1313 677 1313 668 1275 c 0,17,18
 660 1239 660 1239 629 1215 c 0,19,20
 597 1190 597 1190 563 1190 c 128,-1,21
 529 1190 529 1190 509 1216 c 0,22,23
 496 1233 496 1233 496 1257 c 0,24,25
 496 1269 496 1269 499 1282 c 0,26,27
 523 1384 523 1384 610 1461 c 0,28,29
 700 1540 700 1540 811 1540 c 0,30,31
 915 1540 915 1540 977 1474 c 0,32,33
 1022 1426 1022 1426 1022 1356 c 0,34,35
 1022 1328 1022 1328 1015 1297 c 0,36,37
 987 1174 987 1174 869 1103 c 2,38,-1
 662 979 l 2,39,40
 624 956 624 956 589 928 c 1,41,42
 612 928 612 928 643 917 c 2,43,-1
 779 867 l 2,44,45
 799 860 799 860 819 860 c 0,46,47
 860 860 860 860 938 934 c 1,48,-1
 979 934 l 1,49,50
 892 725 892 725 770 725 c 0,51,52
 753 725 753 725 691 744 c 2,53,-1
 567 782 l 2,54,55
 540 790 540 790 527 790 c 0,56,57
 485 790 485 790 403 725 c 1,58,-1
 367 725 l 1,0,1
EndSplineSet
Validated: 1
EndChar

StartChar: uni00B3
Encoding: 179 179 109
Width: 940
GlyphClass: 2
Flags: W
HStem: 725 95<543.568 749.338> 913 161<527.124 583.727> 1451 89<694.98 847.717>
VStem: 819 153<892.875 1104.25> 857 135<1275.47 1424.44>
LayerCount: 2
Fore
SplineSet
467 1049 m 0,0,1
 497 1074 497 1074 534 1074 c 0,2,3
 567 1074 567 1074 587 1050 c 0,4,5
 608 1025 608 1025 599 990 c 0,6,7
 591 958 591 958 559 930 c 0,8,9
 545 918 545 918 526 913 c 1,10,11
 541 820 541 820 635 820 c 0,12,13
 697 820 697 820 744 860 c 0,14,15
 798 906 798 906 813 974 c 0,16,17
 819 1001 819 1001 819 1023 c 0,18,19
 819 1064 819 1064 799 1092 c 0,20,21
 763 1142 763 1142 673 1168 c 1,22,-1
 681 1204 l 1,23,24
 766 1231 766 1231 805 1267 c 0,25,26
 843 1301 843 1301 853 1351 c 0,27,28
 857 1370 857 1370 857 1384 c 0,29,30
 857 1407 857 1407 844 1425 c 1,31,32
 822 1451 822 1451 786 1451 c 0,33,34
 732 1451 732 1451 693 1410 c 1,35,36
 706 1404 706 1404 719 1388 c 0,37,38
 733 1370 733 1370 725 1334 c 128,-1,39
 717 1298 717 1298 686 1274 c 0,40,41
 654 1249 654 1249 620 1249 c 128,-1,42
 586 1249 586 1249 566 1276 c 0,43,44
 551 1296 551 1296 551 1321 c 0,45,46
 551 1332 551 1332 554 1343 c 0,47,48
 573 1413 573 1413 625 1462 c 0,49,50
 708 1540 708 1540 811 1540 c 0,51,52
 899 1540 899 1540 941 1501 c 0,53,54
 992 1454 992 1454 992 1390 c 0,55,56
 992 1372 992 1372 988 1352 c 0,57,58
 972 1272 972 1272 898 1222 c 0,59,60
 873 1205 873 1205 849 1193 c 1,61,62
 898 1178 898 1178 930 1142 c 0,63,64
 972 1095 972 1095 972 1030 c 0,65,66
 972 1007 972 1007 965 976 c 0,67,68
 941 862 941 862 831 789 c 0,69,70
 735 725 735 725 619 725 c 0,71,72
 508 725 508 725 456 804 c 0,73,74
 420 859 420 859 420 925 c 0,75,76
 420 953 420 953 427 984 c 0,77,78
 436 1023 436 1023 467 1049 c 0,0,1
EndSplineSet
Validated: 1
EndChar

StartChar: acute
Encoding: 180 180 110
Width: 810
GlyphClass: 2
Flags: W
HStem: 1153 397
VStem: 471 473
LayerCount: 2
Fore
SplineSet
486 1153 m 1,0,-1
 471 1175 l 1,1,-1
 749 1501 l 2,2,3
 791 1550 791 1550 852 1550 c 0,4,5
 903 1550 903 1550 928 1517 c 0,6,7
 944 1496 944 1496 944 1465 c 0,8,9
 944 1449 944 1449 941 1435 c 0,10,11
 926 1373 926 1373 876 1350 c 1,12,-1
 486 1153 l 1,0,-1
EndSplineSet
Validated: 1
EndChar

StartChar: uni00B5
Encoding: 181 181 111
Width: 1270
GlyphClass: 2
Flags: W
HStem: -410 21G<125 329.623> -20 141<534.646 738.399> 0 21G<850 1054.62> 1080 20G<469.377 674 1099.39 1304>
VStem: 125 200<-410 -210> 474 200<900 1100> 1104 200<900 1100>
DStem2: 125 -410 325 -410 0.224951 0.97437<44.9902 480.168 760.48 1549.81> 755.344 -410 955.344 -410 0.224951 0.97437<465.775 569.492 639.332 1549.73>
LayerCount: 2
Fore
SplineSet
1050 0 m 1,0,-1
 850 0 l 1,1,-1
 883 145 l 1,2,3
 847 102 847 102 802 66 c 0,4,5
 692 -20 692 -20 555 -20 c 0,6,7
 480 -20 480 -20 423 14 c 1,8,-1
 325 -410 l 1,9,-1
 125 -410 l 1,10,-1
 474 1100 l 1,11,-1
 674 1100 l 1,12,-1
 514 408 l 2,13,14
 497 334 497 334 497 283 c 0,15,16
 497 255 497 255 504 226 c 0,17,18
 531 121 531 121 648 121 c 0,19,20
 759 121 759 121 837 202 c 128,-1,21
 915 283 915 283 945 410 c 2,22,-1
 1104 1100 l 1,23,-1
 1304 1100 l 1,24,-1
 1050 0 l 1,0,-1
EndSplineSet
Validated: 1
EndChar

StartChar: paragraph
Encoding: 182 182 112
Width: 1082
GlyphClass: 2
Flags: W
HStem: 0 21G<632 707.614 763 836.613> 1510 20G<831.5 1018.5>
VStem: 632 71<0 71> 763 69<0 69>
DStem2: 632 0 703 0 0.224951 0.97437<15.9715 784.01> 763 0 832 0 0.224951 0.97437<15.5216 1315.93>
LayerCount: 2
Fore
SplineSet
632 0 m 1,0,-1
 808 764 l 1,1,2
 763 760 763 760 727 760 c 0,3,4
 568 760 568 760 488 831 c 0,5,6
 401 908 401 908 401 1037 c 0,7,8
 401 1087 401 1087 414 1145 c 0,9,10
 463 1363 463 1363 633 1459 c 0,11,12
 759 1530 759 1530 904 1530 c 0,13,14
 1133 1530 1133 1530 1133 1346 c 0,15,16
 1133 1304 1133 1304 1121 1253 c 2,17,-1
 832 0 l 1,18,-1
 763 0 l 1,19,-1
 1059 1283 l 1,20,-1
 999 1283 l 1,21,-1
 703 0 l 1,22,-1
 632 0 l 1,0,-1
EndSplineSet
Validated: 1
EndChar

StartChar: periodcentered
Encoding: 183 183 113
Width: 659
GlyphClass: 2
Flags: W
HStem: 625 264<428.052 581.447>
VStem: 371 267<681.591 832.33>
LayerCount: 2
Fore
SplineSet
434 850 m 0,0,1
 482 889 482 889 535 889 c 0,2,3
 589 889 589 889 618 850 c 0,4,5
 638 823 638 823 638 789 c 0,6,7
 638 774 638 774 634 757 c 0,8,9
 621 702 621 702 575 664 c 0,10,11
 528 625 528 625 474 625 c 0,12,13
 421 625 421 625 391 664 c 0,14,15
 371 689 371 689 371 725 c 0,16,17
 371 742 371 742 375 757 c 0,18,19
 390 815 390 815 434 850 c 0,0,1
EndSplineSet
Validated: 1
EndChar

StartChar: cedilla
Encoding: 184 184 114
Width: 730
GlyphClass: 2
Flags: W
HStem: -430 522
VStem: 352 146<-204.309 3.09839>
LayerCount: 2
Fore
SplineSet
230 92 m 1,0,1
 360 92 360 92 434 24 c 0,2,3
 498 -35 498 -35 498 -115 c 0,4,5
 498 -139 498 -139 492 -166 c 0,6,7
 468 -272 468 -272 388 -337 c 0,8,9
 296 -412 296 -412 183 -430 c 1,10,-1
 140 -258 l 1,11,12
 235 -258 235 -258 285 -224 c 128,-1,13
 335 -190 335 -190 347 -140 c 0,14,15
 352 -119 352 -119 352 -98 c 0,16,17
 352 -58 352 -58 334 -18 c 0,18,19
 308 42 308 42 227 77 c 1,20,-1
 230 92 l 1,0,1
EndSplineSet
Validated: 1
EndChar

StartChar: uni00B9
Encoding: 185 185 115
Width: 710
GlyphClass: 2
Flags: W
HStem: 1530 20G<699 783>
VStem: 455 140<735 875> 744 39<1528.89 1550>
DStem2: 455 735 595 735 0.224951 0.97437<31.4931 560.222>
LayerCount: 2
Fore
SplineSet
455 735 m 9,0,-1
 574 1252 l 2,1,2
 578 1268 578 1268 578 1282 c 0,3,4
 578 1340 578 1340 513 1355 c 1,5,-1
 521 1391 l 1,6,7
 654 1434 654 1434 744 1550 c 1,8,-1
 783 1550 l 1,9,-1
 595 735 l 17,10,-1
 455 735 l 9,0,-1
EndSplineSet
Validated: 1
EndChar

StartChar: ordmasculine
Encoding: 186 186 116
Width: 1050
GlyphClass: 2
Flags: W
HStem: 680 150<392 1007> 940 97<702.088 845.422> 1453 97<775.368 921.754>
VStem: 548 145<1041.69 1338.13> 930 144<1155.59 1425.67>
LayerCount: 2
Fore
SplineSet
882 1550 m 0,0,1
 977 1550 977 1550 1031 1476 c 0,2,3
 1074 1417 1074 1417 1074 1334 c 0,4,5
 1074 1292 1074 1292 1063 1245 c 0,6,7
 1033 1105 1033 1105 924 1014 c 0,8,9
 835 940 835 940 741 940 c 0,10,11
 643 940 643 940 591 1014 c 0,12,13
 548 1075 548 1075 548 1157 c 0,14,15
 548 1198 548 1198 559 1245 c 0,16,17
 593 1389 593 1389 699 1476 c 0,18,19
 789 1550 789 1550 882 1550 c 0,0,1
763 1037 m 0,20,21
 811 1037 811 1037 848 1085 c 128,-1,22
 885 1133 885 1133 913 1245 c 0,23,24
 930 1314 930 1314 930 1359 c 0,25,26
 930 1383 930 1383 923 1405 c 0,27,28
 906 1453 906 1453 859 1453 c 0,29,30
 809 1453 809 1453 773 1405 c 0,31,32
 734 1353 734 1353 709 1245 c 0,33,34
 693 1176 693 1176 693 1132 c 0,35,36
 693 1103 693 1103 700 1085 c 0,37,38
 717 1037 717 1037 763 1037 c 0,20,21
392 830 m 1,39,-1
 1042 830 l 1,40,-1
 1007 680 l 1,41,-1
 357 680 l 1,42,-1
 392 830 l 1,39,-1
EndSplineSet
Validated: 1
EndChar

StartChar: guillemotright
Encoding: 187 187 117
Width: 1223
GlyphClass: 2
Flags: W
DStem2: 317 344 385 256 0.667789 0.744351<0 523.125> 621 1276 464 1145 0.428871 -0.903366<51.0082 512.92> 714 344 782 256 0.667789 0.744351<0 523.125> 1018 1276 861 1145 0.428871 -0.903366<51.0082 512.92>
LayerCount: 2
Fore
SplineSet
621 1276 m 1,0,-1
 856 781 l 1,1,-1
 385 256 l 1,2,-1
 317 344 l 1,3,-1
 669 731 l 1,4,-1
 464 1145 l 1,5,-1
 621 1276 l 1,0,-1
1018 1276 m 1,6,-1
 1253 781 l 1,7,-1
 782 256 l 1,8,-1
 714 344 l 1,9,-1
 1066 731 l 1,10,-1
 861 1145 l 1,11,-1
 1018 1276 l 1,6,-1
EndSplineSet
Validated: 1
EndChar

StartChar: onequarter
Encoding: 188 188 118
Width: 1545
GlyphClass: 2
Flags: W
HStem: 0 21G<312.571 362.878 1117 1261.67> 180 101<998 1159 1322 1341> 1530 20G<699 783 1461.12 1516.12>
VStem: 455 140<735 875> 744 39<1528.89 1550> 1117 140<0 140>
DStem2: 229 50 346 -20 0.644927 0.764244<21.9594 1936.6> 280.695 -20 420.695 -20 0.224951 0.97437<806.353 1335.08> 805 214 998 281 0.70828 0.705931<183.995 524.112> 1112.38 -20 1252.38 -20 0.224951 0.97437<52.0192 205.361 340.439 556.366>
LayerCount: 2
Fore
SplineSet
455 735 m 9,0,-1
 574 1252 l 2,1,2
 578 1268 578 1268 578 1282 c 0,3,4
 578 1340 578 1340 513 1355 c 1,5,-1
 521 1391 l 1,6,7
 654 1434 654 1434 744 1550 c 1,8,-1
 783 1550 l 1,9,-1
 595 735 l 17,10,-1
 455 735 l 9,0,-1
1257 0 m 17,11,-1
 1117 0 l 9,12,-1
 1159 180 l 1,13,-1
 798 180 l 1,14,-1
 805 214 l 1,15,-1
 1408 815 l 1,16,-1
 1445 815 l 1,17,-1
 1322 281 l 1,18,-1
 1410 281 l 1,19,-1
 1341 180 l 1,20,-1
 1299 180 l 1,21,-1
 1257 0 l 17,11,-1
1182 281 m 1,22,-1
 1238 522 l 1,23,-1
 998 281 l 1,24,-1
 1182 281 l 1,22,-1
1478 1530 m 1,25,-1
 1600 1466 l 1,26,-1
 346 -20 l 1,27,-1
 229 50 l 1,28,-1
 1478 1530 l 1,25,-1
EndSplineSet
Validated: 1
EndChar

StartChar: onehalf
Encoding: 189 189 119
Width: 1703
GlyphClass: 2
Flags: W
HStem: -10 135<1247.25 1445.14> 707 98<1238.39 1432.02> 1530 20G<699 783 1461.12 1516.12>
VStem: 455 140<735 875> 744 39<1528.89 1550> 1447 146<493.92 675.019>
DStem2: 229 50 346 -20 0.644927 0.764244<21.9594 1936.6> 280.695 -20 420.695 -20 0.224951 0.97437<806.353 1335.08>
LayerCount: 2
Fore
SplineSet
455 735 m 9,0,-1
 574 1252 l 2,1,2
 578 1268 578 1268 578 1282 c 0,3,4
 578 1340 578 1340 513 1355 c 1,5,-1
 521 1391 l 1,6,7
 654 1434 654 1434 744 1550 c 1,8,-1
 783 1550 l 1,9,-1
 595 735 l 17,10,-1
 455 735 l 9,0,-1
938 -10 m 1,11,12
 982 179 982 179 1183 324 c 2,13,-1
 1343 439 l 2,14,15
 1427 500 1427 500 1443 571 c 0,16,17
 1447 589 1447 589 1447 606 c 0,18,19
 1447 634 1447 634 1435 658 c 0,20,21
 1411 707 1411 707 1345 707 c 0,22,23
 1258 707 1258 707 1201 617 c 1,24,25
 1213 613 1213 613 1226 600 c 0,26,27
 1248 578 1248 578 1239 540 c 0,28,29
 1231 504 1231 504 1200 480 c 0,30,31
 1168 455 1168 455 1134 455 c 128,-1,32
 1100 455 1100 455 1080 481 c 0,33,34
 1067 498 1067 498 1067 522 c 0,35,36
 1067 534 1067 534 1070 547 c 0,37,38
 1094 649 1094 649 1181 726 c 0,39,40
 1271 805 1271 805 1382 805 c 0,41,42
 1486 805 1486 805 1548 739 c 0,43,44
 1593 691 1593 691 1593 621 c 0,45,46
 1593 593 1593 593 1586 562 c 0,47,48
 1558 439 1558 439 1440 368 c 2,49,-1
 1233 244 l 2,50,51
 1195 221 1195 221 1160 193 c 1,52,53
 1183 193 1183 193 1214 182 c 2,54,-1
 1350 132 l 2,55,56
 1370 125 1370 125 1390 125 c 0,57,58
 1431 125 1431 125 1509 199 c 1,59,-1
 1550 199 l 1,60,61
 1463 -10 1463 -10 1341 -10 c 0,62,63
 1324 -10 1324 -10 1262 9 c 2,64,-1
 1138 47 l 2,65,66
 1111 55 1111 55 1098 55 c 0,67,68
 1056 55 1056 55 974 -10 c 1,69,-1
 938 -10 l 1,11,12
1478 1530 m 1,70,-1
 1600 1466 l 1,71,-1
 346 -20 l 1,72,-1
 229 50 l 1,73,-1
 1478 1530 l 1,70,-1
EndSplineSet
Validated: 1
EndChar

StartChar: threequarters
Encoding: 190 190 120
Width: 1745
GlyphClass: 2
Flags: W
HStem: 0 21G<512.571 562.878 1317 1461.67> 180 101<1198 1359 1522 1541> 725 95<543.568 749.338> 913 161<527.124 583.727> 1451 89<694.98 847.717>
VStem: 819 153<892.875 1104.25> 857 135<1275.47 1424.44> 1317 140<0 140>
DStem2: 429 50 546 -20 0.644927 0.764244<21.9594 1936.6> 1005 214 1198 281 0.70828 0.705931<183.995 524.112> 1312.38 -20 1452.38 -20 0.224951 0.97437<52.0192 205.361 340.439 556.366>
LayerCount: 2
Fore
SplineSet
467 1049 m 0,0,1
 497 1074 497 1074 534 1074 c 0,2,3
 567 1074 567 1074 587 1050 c 0,4,5
 608 1025 608 1025 599 990 c 0,6,7
 591 958 591 958 559 930 c 0,8,9
 545 918 545 918 526 913 c 1,10,11
 541 820 541 820 635 820 c 0,12,13
 697 820 697 820 744 860 c 0,14,15
 798 906 798 906 813 974 c 0,16,17
 819 1001 819 1001 819 1023 c 0,18,19
 819 1064 819 1064 799 1092 c 0,20,21
 763 1142 763 1142 673 1168 c 1,22,-1
 681 1204 l 1,23,24
 766 1231 766 1231 805 1267 c 0,25,26
 843 1301 843 1301 853 1351 c 0,27,28
 857 1370 857 1370 857 1384 c 0,29,30
 857 1407 857 1407 844 1425 c 1,31,32
 822 1451 822 1451 786 1451 c 0,33,34
 732 1451 732 1451 693 1410 c 1,35,36
 706 1404 706 1404 719 1388 c 0,37,38
 733 1370 733 1370 725 1334 c 128,-1,39
 717 1298 717 1298 686 1274 c 0,40,41
 654 1249 654 1249 620 1249 c 128,-1,42
 586 1249 586 1249 566 1276 c 0,43,44
 551 1296 551 1296 551 1321 c 0,45,46
 551 1332 551 1332 554 1343 c 0,47,48
 573 1413 573 1413 625 1462 c 0,49,50
 708 1540 708 1540 811 1540 c 0,51,52
 899 1540 899 1540 941 1501 c 0,53,54
 992 1454 992 1454 992 1390 c 0,55,56
 992 1372 992 1372 988 1352 c 0,57,58
 972 1272 972 1272 898 1222 c 0,59,60
 873 1205 873 1205 849 1193 c 1,61,62
 898 1178 898 1178 930 1142 c 0,63,64
 972 1095 972 1095 972 1030 c 0,65,66
 972 1007 972 1007 965 976 c 0,67,68
 941 862 941 862 831 789 c 0,69,70
 735 725 735 725 619 725 c 0,71,72
 508 725 508 725 456 804 c 0,73,74
 420 859 420 859 420 925 c 0,75,76
 420 953 420 953 427 984 c 0,77,78
 436 1023 436 1023 467 1049 c 0,0,1
1457 0 m 17,79,-1
 1317 0 l 9,80,-1
 1359 180 l 1,81,-1
 998 180 l 1,82,-1
 1005 214 l 1,83,-1
 1608 815 l 1,84,-1
 1645 815 l 1,85,-1
 1522 281 l 1,86,-1
 1610 281 l 1,87,-1
 1541 180 l 1,88,-1
 1499 180 l 1,89,-1
 1457 0 l 17,79,-1
1382 281 m 1,90,-1
 1438 522 l 1,91,-1
 1198 281 l 1,92,-1
 1382 281 l 1,90,-1
1678 1530 m 1,93,-1
 1800 1466 l 1,94,-1
 546 -20 l 1,95,-1
 429 50 l 1,96,-1
 1678 1530 l 1,93,-1
EndSplineSet
Validated: 1
EndChar

StartChar: questiondown
Encoding: 191 191 121
Width: 1251
GlyphClass: 2
Flags: W
HStem: -20 116<531.982 845.337> 1266 264<934.053 1088.14>
VStem: 235 213<181.516 502.856> 878 267<1323.16 1474.34> 914 93<1037.18 1128> 944 267<380.722 543.047>
LayerCount: 2
Fore
SplineSet
1007 1128 m 1,0,1
 970 970 970 970 820 846 c 2,2,-1
 689 738 l 2,3,4
 499 582 499 582 458 408 c 0,5,6
 448 366 448 366 448 327 c 0,7,8
 448 269 448 269 475 211 c 0,9,10
 529 96 529 96 687 96 c 0,11,12
 909 96 909 96 1045 348 c 1,13,14
 994 348 994 348 965 380 c 0,15,16
 944 403 944 403 944 438 c 0,17,18
 944 453 944 453 948 470 c 0,19,20
 961 523 961 523 1007 560 c 0,21,22
 1056 599 1056 599 1108 599 c 128,-1,23
 1160 599 1160 599 1191 560 c 0,24,25
 1211 535 1211 535 1211 497 c 0,26,27
 1211 479 1211 479 1206 457 c 0,28,29
 1164 270 1164 270 999 124 c 0,30,31
 837 -20 837 -20 632 -20 c 0,32,33
 437 -20 437 -20 319 104 c 0,34,35
 235 192 235 192 235 320 c 0,36,37
 235 370 235 370 248 426 c 0,38,39
 289 614 289 614 527 775 c 2,40,-1
 755 929 l 2,41,42
 889 1020 889 1020 914 1128 c 1,43,-1
 1007 1128 l 1,0,1
1081 1304 m 0,44,45
 1035 1266 1035 1266 981 1266 c 0,46,47
 926 1266 926 1266 898 1304 c 0,48,49
 878 1331 878 1331 878 1365 c 0,50,51
 878 1381 878 1381 882 1398 c 0,52,53
 895 1454 895 1454 941 1492 c 0,54,55
 988 1530 988 1530 1042 1530 c 0,56,57
 1097 1530 1097 1530 1125 1492 c 0,58,59
 1145 1465 1145 1465 1145 1430 c 0,60,61
 1145 1415 1145 1415 1141 1398 c 0,62,63
 1128 1343 1128 1343 1081 1304 c 0,44,45
EndSplineSet
Validated: 1
EndChar

StartChar: Delta
Encoding: 916 916 122
Width: 1418
GlyphClass: 2
Flags: W
HStem: 0 126<236 1184> 1530 20G<1059.22 1092.19>
DStem2: 5 0 236 126 0.567385 0.823452<234.821 1532.06> 1088 1550 968 1197 0.205215 -0.978717<320.861 1413.39>
LayerCount: 2
Fore
SplineSet
1184 126 m 1,0,-1
 968 1197 l 1,1,-1
 236 126 l 1,2,-1
 1184 126 l 1,0,-1
5 0 m 1,3,-1
 1073 1550 l 1,4,-1
 1088 1550 l 1,5,-1
 1413 0 l 1,6,-1
 5 0 l 1,3,-1
EndSplineSet
Validated: 1
EndChar

StartChar: Pi
Encoding: 928 928 123
Width: 1548
GlyphClass: 2
Flags: W
HStem: 0 21G<250 454.619 1098 1302.62> 1408 102<780.679 1396.32> 1495 15<429 447.339 1791.03 1813>
VStem: 250 200<0 200> 1098 200<0 200>
DStem2: 250 0 450 0 0.224951 0.97437<44.9902 1368.18> 1098 0 1298 0 0.224951 0.97437<44.9902 1367.2>
LayerCount: 2
Fore
SplineSet
250 0 m 9,0,-1
 541 1260 l 2,1,2
 550 1301 550 1301 550 1336 c 0,3,4
 550 1461 550 1461 425 1495 c 1,5,-1
 429 1510 l 1,6,-1
 1817 1510 l 1,7,-1
 1813 1495 l 1,8,9
 1633 1450 1633 1450 1589 1260 c 2,10,-1
 1298 0 l 25,11,-1
 1098 0 l 25,12,-1
 1389 1260 l 2,13,14
 1398 1300 1398 1300 1398 1335 c 0,15,16
 1398 1376 1398 1376 1385 1408 c 1,17,-1
 813 1408 l 17,18,19
 763 1355 763 1355 741 1260 c 2,20,-1
 450 0 l 17,21,-1
 250 0 l 9,0,-1
EndSplineSet
Validated: 1
EndChar

StartChar: Sigma
Encoding: 931 931 124
Width: 1441
GlyphClass: 2
Flags: W
HStem: -20 94<687.619 1101.26> 37 104<529.203 776.687> 1400 110<790.218 1309.55>
VStem: 1078 268<140.242 296.194> 1239 269<1216.8 1365.56>
DStem2: 99 -6 561 249 0.693456 0.720499<412.423 1035.39> 1024 710 817 740 0.423929 -0.905696<-670.799 -114.924>
LayerCount: 2
Fore
SplineSet
105 -20 m 1,0,-1
 99 -6 l 1,1,-1
 817 740 l 1,2,-1
 459 1495 l 1,3,-1
 463 1510 l 1,4,-1
 1226 1510 l 2,5,6
 1370 1510 1370 1510 1448 1449 c 0,7,8
 1508 1402 1508 1402 1508 1332 c 0,9,10
 1508 1313 1508 1313 1503 1292 c 0,11,12
 1491 1236 1491 1236 1444 1198 c 128,-1,13
 1397 1160 1397 1160 1343 1160 c 128,-1,14
 1289 1160 1289 1160 1259 1197 c 0,15,16
 1239 1222 1239 1222 1239 1257 c 0,17,18
 1239 1272 1239 1272 1243 1290 c 0,19,20
 1255 1343 1255 1343 1313 1395 c 1,21,22
 1258 1400 1258 1400 1202 1400 c 2,23,-1
 822 1400 l 1,24,25
 779 1348 779 1348 771 1310 c 0,26,27
 765 1282 765 1282 775 1260 c 2,28,-1
 1024 710 l 1,29,-1
 561 249 l 2,30,31
 537 225 537 225 531 196 c 0,32,33
 524 163 524 163 533 141 c 1,34,35
 607 141 607 141 741 105 c 0,36,37
 856 74 856 74 964 74 c 0,38,39
 1051 74 1051 74 1104 117 c 1,40,41
 1078 155 1078 155 1078 193 c 0,42,43
 1078 201 1078 201 1082 222 c 0,44,45
 1093 273 1093 273 1142 315 c 0,46,47
 1186 352 1186 352 1241 352 c 128,-1,48
 1296 352 1296 352 1325 314 c 0,49,50
 1346 286 1346 286 1346 251 c 0,51,52
 1346 238 1346 238 1342 222 c 0,53,54
 1321 122 1321 122 1191 52 c 0,55,56
 1057 -20 1057 -20 934 -20 c 0,57,58
 833 -20 833 -20 664 15 c 0,59,60
 558 37 558 37 405 37 c 0,61,62
 257 37 257 37 105 -20 c 1,0,-1
EndSplineSet
Validated: 1
EndChar

StartChar: Omega
Encoding: 937 937 125
Width: 1424
GlyphClass: 2
Flags: W
HStem: 0 172<156 524.113 955.242 1308> 1425 105<883.55 1173.7>
VStem: 293 216<391.232 880.077> 1296 210<764.851 1256.8>
LayerCount: 2
Fore
SplineSet
116 0 m 1,0,-1
 156 172 l 1,1,-1
 550 172 l 17,2,3
 469 205 469 205 411 274 c 0,4,5
 293 413 293 413 293 614 c 0,6,7
 293 703 293 703 316 805 c 0,8,9
 396 1150 396 1150 666 1376 c 0,10,11
 850 1530 850 1530 1065 1530 c 0,12,13
 1279 1530 1279 1530 1394 1376 c 0,14,15
 1506 1226 1506 1226 1506 1018 c 0,16,17
 1506 918 1506 918 1480 805 c 0,18,19
 1405 478 1405 478 1139 274 c 0,20,21
 1049 205 1049 205 954 172 c 9,22,-1
 1348 172 l 1,23,-1
 1308 0 l 1,24,-1
 1060 0 l 2,25,26
 876 0 876 0 876 165 c 0,27,28
 876 208 876 208 888 262 c 1,29,30
 967 286 967 286 1030 356 c 0,31,32
 1202 547 1202 547 1262 805 c 0,33,34
 1296 952 1296 952 1296 1066 c 0,35,36
 1296 1203 1296 1203 1247 1294 c 0,37,38
 1176 1425 1176 1425 1041 1425 c 0,39,40
 902 1425 902 1425 775 1294 c 0,41,42
 605 1118 605 1118 534 805 c 0,43,44
 509 695 509 695 509 599 c 0,45,46
 509 464 509 464 558 356 c 0,47,48
 590 286 590 286 656 262 c 1,49,50
 596 0 596 0 364 0 c 2,51,-1
 116 0 l 1,0,-1
EndSplineSet
Validated: 1
EndChar

StartChar: mu
Encoding: 956 956 126
Width: 1270
GlyphClass: 2
Flags: W
HStem: -410 21G<125 329.623> -20 141<534.646 738.399> 0 21G<850 1054.62> 1080 20G<469.377 674 1099.39 1304>
VStem: 125 200<-410 -210> 474 200<900 1100> 1104 200<900 1100>
DStem2: 125 -410 325 -410 0.224951 0.97437<44.9902 480.168 760.48 1549.81> 755.344 -410 955.344 -410 0.224951 0.97437<465.775 569.492 639.332 1549.73>
LayerCount: 2
Fore
SplineSet
1050 0 m 1,0,-1
 850 0 l 1,1,-1
 883 145 l 1,2,3
 847 102 847 102 802 66 c 0,4,5
 692 -20 692 -20 555 -20 c 0,6,7
 480 -20 480 -20 423 14 c 1,8,-1
 325 -410 l 1,9,-1
 125 -410 l 1,10,-1
 474 1100 l 1,11,-1
 674 1100 l 1,12,-1
 514 408 l 2,13,14
 497 334 497 334 497 283 c 0,15,16
 497 255 497 255 504 226 c 0,17,18
 531 121 531 121 648 121 c 0,19,20
 759 121 759 121 837 202 c 128,-1,21
 915 283 915 283 945 410 c 2,22,-1
 1104 1100 l 1,23,-1
 1304 1100 l 1,24,-1
 1050 0 l 1,0,-1
EndSplineSet
Validated: 1
EndChar

StartChar: pi
Encoding: 960 960 127
Width: 1340
GlyphClass: 2
Flags: W
HStem: 0 21G<250 454.612 890 1094.61> 998 102<685.679 1093.73> 1085 15<334 352.339 1488.03 1510>
VStem: 250 200<0 200> 890 200<0 200>
DStem2: 250 0 450 0 0.224951 0.97437<44.9902 947.314> 890 0 1090 0 0.224951 0.97437<44.9902 946.595>
LayerCount: 2
Fore
SplineSet
250 0 m 9,0,-1
 446 850 l 2,1,2
 455 891 455 891 455 926 c 0,3,4
 455 1050 455 1050 330 1085 c 1,5,-1
 334 1100 l 1,6,-1
 1514 1100 l 1,7,-1
 1510 1085 l 1,8,9
 1330 1040 1330 1040 1286 850 c 2,10,-1
 1090 0 l 25,11,-1
 890 0 l 25,12,-1
 1086 850 l 2,13,14
 1096 891 1096 891 1096 925 c 0,15,16
 1095 967 1095 967 1082 998 c 1,17,-1
 718 998 l 17,18,19
 668 945 668 945 646 850 c 2,20,-1
 450 0 l 17,21,-1
 250 0 l 9,0,-1
EndSplineSet
Validated: 1
EndChar

StartChar: uni2010
Encoding: 8208 8208 128
Width: 933
GlyphClass: 2
Flags: W
HStem: 680 150<392 890>
VStem: 357 568
LayerCount: 2
Fore
SplineSet
392 830 m 1,0,-1
 925 830 l 1,1,-1
 890 680 l 1,2,-1
 357 680 l 1,3,-1
 392 830 l 1,0,-1
EndSplineSet
Validated: 1
EndChar

StartChar: uni2011
Encoding: 8209 8209 129
Width: 933
GlyphClass: 2
Flags: W
HStem: 680 150<392 890>
VStem: 357 568
LayerCount: 2
Fore
SplineSet
392 830 m 1,0,-1
 925 830 l 1,1,-1
 890 680 l 1,2,-1
 357 680 l 1,3,-1
 392 830 l 1,0,-1
EndSplineSet
Validated: 1
EndChar

StartChar: figuredash
Encoding: 8210 8210 130
Width: 1233
GlyphClass: 2
Flags: W
HStem: 680 150<392 1190>
LayerCount: 2
Fore
SplineSet
392 830 m 1,0,-1
 1225 830 l 1,1,-1
 1190 680 l 1,2,-1
 357 680 l 1,3,-1
 392 830 l 1,0,-1
EndSplineSet
Validated: 1
EndChar

StartChar: endash
Encoding: 8211 8211 131
Width: 1233
GlyphClass: 2
Flags: W
HStem: 680 150<392 1190>
LayerCount: 2
Fore
SplineSet
392 830 m 1,0,-1
 1225 830 l 1,1,-1
 1190 680 l 1,2,-1
 357 680 l 1,3,-1
 392 830 l 1,0,-1
EndSplineSet
Validated: 1
EndChar

StartChar: emdash
Encoding: 8212 8212 132
Width: 1533
GlyphClass: 2
Flags: W
HStem: 680 150<392 1490>
LayerCount: 2
Fore
SplineSet
392 830 m 1,0,-1
 1525 830 l 1,1,-1
 1490 680 l 1,2,-1
 357 680 l 1,3,-1
 392 830 l 1,0,-1
EndSplineSet
Validated: 1
EndChar

StartChar: afii00208
Encoding: 8213 8213 133
Width: 1533
GlyphClass: 2
Flags: W
HStem: 680 150<392 1490>
LayerCount: 2
Fore
SplineSet
392 830 m 1,0,-1
 1525 830 l 1,1,-1
 1490 680 l 1,2,-1
 357 680 l 1,3,-1
 392 830 l 1,0,-1
EndSplineSet
Validated: 1
EndChar

StartChar: underscoredbl
Encoding: 8215 8215 134
Width: 1233
GlyphClass: 2
Flags: W
HStem: -410 150<140 938> -200 150<188 987>
LayerCount: 2
Fore
SplineSet
105 -410 m 1,0,-1
 140 -260 l 1,1,-1
 973 -260 l 1,2,-1
 938 -410 l 1,3,-1
 105 -410 l 1,0,-1
188 -50 m 1,4,-1
 1021 -50 l 1,5,-1
 987 -200 l 1,6,-1
 154 -200 l 1,7,-1
 188 -50 l 1,4,-1
EndSplineSet
Validated: 1
EndChar

StartChar: quoteleft
Encoding: 8216 8216 135
Width: 705
GlyphClass: 2
Flags: W
HStem: 1059 491
VStem: 476 276<1117.17 1287.19>
LayerCount: 2
Fore
SplineSet
879 1535 m 1,0,1
 781 1486 781 1486 711 1412 c 0,2,3
 675 1374 675 1374 648 1324 c 1,4,5
 704 1324 704 1324 732 1288 c 0,6,7
 752 1262 752 1262 752 1228 c 0,8,9
 752 1211 752 1211 748 1194 c 0,10,11
 733 1136 733 1136 688 1098 c 0,12,13
 642 1059 642 1059 585 1059 c 0,14,15
 529 1059 529 1059 500 1094 c 0,16,17
 476 1123 476 1123 476 1170 c 0,18,19
 476 1196 476 1196 483 1227 c 0,20,21
 502 1310 502 1310 564 1382 c 0,22,23
 665 1499 665 1499 783 1536 c 0,24,25
 827 1550 827 1550 883 1550 c 1,26,-1
 879 1535 l 1,0,1
EndSplineSet
Validated: 1
EndChar

StartChar: quoteright
Encoding: 8217 8217 136
Width: 705
GlyphClass: 2
Flags: W
HStem: 1059 491
VStem: 555 277<1321.78 1491.94>
LayerCount: 2
Fore
SplineSet
428 1074 m 1,0,1
 522 1121 522 1121 596 1197 c 0,2,3
 632 1234 632 1234 660 1285 c 1,4,5
 604 1285 604 1285 575 1321 c 0,6,7
 555 1346 555 1346 555 1380 c 0,8,9
 555 1390 555 1390 560 1415 c 1,10,11
 575 1474 575 1474 619 1511 c 0,12,13
 665 1550 665 1550 722 1550 c 0,14,15
 777 1550 777 1550 808 1515 c 0,16,17
 832 1488 832 1488 832 1441 c 0,18,19
 832 1416 832 1416 824 1382 c 0,20,21
 804 1300 804 1300 743 1227 c 0,22,23
 646 1111 646 1111 525 1073 c 0,24,25
 480 1059 480 1059 424 1059 c 1,26,-1
 428 1074 l 1,0,1
EndSplineSet
Validated: 1
EndChar

StartChar: quotesinglbase
Encoding: 8218 8218 137
Width: 705
GlyphClass: 2
Flags: W
HStem: -246 491
VStem: 254 276<16.8145 186.832>
LayerCount: 2
Fore
SplineSet
127 -231 m 1,0,1
 221 -184 221 -184 295 -108 c 0,2,3
 331 -71 331 -71 358 -20 c 1,4,5
 302 -20 302 -20 274 16 c 0,6,7
 254 42 254 42 254 76 c 0,8,9
 254 91 254 91 258 110 c 0,10,11
 273 168 273 168 318 206 c 0,12,13
 364 245 364 245 421 245 c 0,14,15
 477 245 477 245 506 210 c 0,16,17
 530 181 530 181 530 134 c 0,18,19
 530 108 530 108 523 77 c 0,20,21
 504 -6 504 -6 442 -78 c 0,22,23
 342 -194 342 -194 223 -232 c 0,24,25
 179 -246 179 -246 123 -246 c 1,26,-1
 127 -231 l 1,0,1
EndSplineSet
Validated: 1
EndChar

StartChar: quotereversed
Encoding: 8219 8219 138
Width: 705
GlyphClass: 2
Flags: W
HStem: 1285 265<639.656 749.863>
VStem: 511 292<1338.83 1471.82>
LayerCount: 2
Fore
SplineSet
769 1059 m 1,0,1
 713 1059 713 1059 676 1073 c 0,2,3
 575 1112 575 1112 528 1227 c 0,4,5
 511 1269 511 1269 511 1316 c 0,6,7
 511 1342 511 1342 519 1382 c 0,8,9
 538 1471 538 1471 597 1515 c 0,10,11
 644 1550 644 1550 699 1550 c 0,12,13
 756 1550 756 1550 784 1511 c 0,14,15
 803 1485 803 1485 803 1450 c 0,16,17
 803 1434 803 1434 799 1415 c 0,18,19
 787 1360 787 1360 740 1321 c 0,20,21
 696 1285 696 1285 639 1285 c 1,22,23
 643 1235 643 1235 661 1197 c 0,24,25
 697 1123 697 1123 773 1074 c 1,26,-1
 769 1059 l 1,0,1
EndSplineSet
Validated: 1
EndChar

StartChar: quotedblleft
Encoding: 8220 8220 139
Width: 1055
GlyphClass: 2
Flags: W
HStem: 1059 491<880 883>
VStem: 476 276<1117.17 1287.19> 827 276<1117.17 1287.19>
LayerCount: 2
Fore
SplineSet
1230 1535 m 1,0,1
 1132 1486 1132 1486 1062 1412 c 0,2,3
 1026 1374 1026 1374 999 1324 c 1,4,5
 1055 1324 1055 1324 1083 1288 c 0,6,7
 1103 1262 1103 1262 1103 1228 c 0,8,9
 1103 1211 1103 1211 1099 1194 c 0,10,11
 1084 1136 1084 1136 1039 1098 c 0,12,13
 993 1059 993 1059 936 1059 c 0,14,15
 880 1059 880 1059 851 1094 c 0,16,17
 827 1123 827 1123 827 1170 c 0,18,19
 827 1196 827 1196 834 1227 c 0,20,21
 853 1310 853 1310 915 1382 c 0,22,23
 1016 1499 1016 1499 1134 1536 c 0,24,25
 1178 1550 1178 1550 1234 1550 c 1,26,-1
 1230 1535 l 1,0,1
879 1535 m 1,27,28
 781 1486 781 1486 711 1412 c 0,29,30
 675 1374 675 1374 648 1324 c 1,31,32
 704 1324 704 1324 732 1288 c 0,33,34
 752 1262 752 1262 752 1228 c 0,35,36
 752 1211 752 1211 748 1194 c 0,37,38
 733 1136 733 1136 688 1098 c 0,39,40
 642 1059 642 1059 585 1059 c 0,41,42
 529 1059 529 1059 500 1094 c 0,43,44
 476 1123 476 1123 476 1170 c 0,45,46
 476 1196 476 1196 483 1227 c 0,47,48
 502 1310 502 1310 564 1382 c 0,49,50
 665 1499 665 1499 783 1536 c 0,51,52
 827 1550 827 1550 883 1550 c 1,53,-1
 879 1535 l 1,27,28
EndSplineSet
Validated: 1
EndChar

StartChar: quotedblright
Encoding: 8221 8221 140
Width: 1055
GlyphClass: 2
Flags: W
HStem: 1059 491<775 777>
VStem: 555 277<1321.78 1491.94> 906 277<1321.78 1491.94>
LayerCount: 2
Fore
SplineSet
779 1074 m 1,0,1
 873 1121 873 1121 947 1197 c 0,2,3
 983 1234 983 1234 1011 1285 c 1,4,5
 955 1285 955 1285 926 1321 c 0,6,7
 906 1346 906 1346 906 1380 c 0,8,9
 906 1390 906 1390 911 1415 c 1,10,11
 926 1474 926 1474 970 1511 c 0,12,13
 1016 1550 1016 1550 1073 1550 c 0,14,15
 1128 1550 1128 1550 1159 1515 c 0,16,17
 1183 1488 1183 1488 1183 1441 c 0,18,19
 1183 1416 1183 1416 1175 1382 c 0,20,21
 1155 1300 1155 1300 1094 1227 c 0,22,23
 997 1111 997 1111 876 1073 c 0,24,25
 831 1059 831 1059 775 1059 c 1,26,-1
 779 1074 l 1,0,1
428 1074 m 1,27,28
 522 1121 522 1121 596 1197 c 0,29,30
 632 1234 632 1234 660 1285 c 1,31,32
 604 1285 604 1285 575 1321 c 0,33,34
 555 1346 555 1346 555 1380 c 0,35,36
 555 1390 555 1390 560 1415 c 1,37,38
 575 1474 575 1474 619 1511 c 0,39,40
 665 1550 665 1550 722 1550 c 0,41,42
 777 1550 777 1550 808 1515 c 0,43,44
 832 1488 832 1488 832 1441 c 0,45,46
 832 1416 832 1416 824 1382 c 0,47,48
 804 1300 804 1300 743 1227 c 0,49,50
 646 1111 646 1111 525 1073 c 0,51,52
 480 1059 480 1059 424 1059 c 1,53,-1
 428 1074 l 1,27,28
EndSplineSet
Validated: 1
EndChar

StartChar: quotedblbase
Encoding: 8222 8222 141
Width: 1055
GlyphClass: 2
Flags: W
HStem: -246 491<474 477>
VStem: 254 276<16.8145 186.832> 605 276<16.8145 186.832>
LayerCount: 2
Fore
SplineSet
478 -231 m 1,0,1
 572 -184 572 -184 646 -108 c 0,2,3
 682 -71 682 -71 709 -20 c 1,4,5
 653 -20 653 -20 625 16 c 0,6,7
 605 42 605 42 605 76 c 0,8,9
 605 91 605 91 609 110 c 0,10,11
 624 168 624 168 669 206 c 0,12,13
 715 245 715 245 772 245 c 0,14,15
 828 245 828 245 857 210 c 0,16,17
 881 181 881 181 881 134 c 0,18,19
 881 108 881 108 874 77 c 0,20,21
 855 -6 855 -6 793 -78 c 0,22,23
 693 -194 693 -194 574 -232 c 0,24,25
 530 -246 530 -246 474 -246 c 1,26,-1
 478 -231 l 1,0,1
127 -231 m 1,27,28
 221 -184 221 -184 295 -108 c 0,29,30
 331 -71 331 -71 358 -20 c 1,31,32
 302 -20 302 -20 274 16 c 0,33,34
 254 42 254 42 254 76 c 0,35,36
 254 91 254 91 258 110 c 0,37,38
 273 168 273 168 318 206 c 0,39,40
 364 245 364 245 421 245 c 0,41,42
 477 245 477 245 506 210 c 0,43,44
 530 181 530 181 530 134 c 0,45,46
 530 108 530 108 523 77 c 0,47,48
 504 -6 504 -6 442 -78 c 0,49,50
 342 -194 342 -194 223 -232 c 0,51,52
 179 -246 179 -246 123 -246 c 1,53,-1
 127 -231 l 1,27,28
EndSplineSet
Validated: 1
EndChar

StartChar: uni201F
Encoding: 8223 8223 142
Width: 1055
GlyphClass: 2
Flags: W
HStem: 1285 265<639.656 749.863 990.656 1100.86>
VStem: 511 292<1338.83 1471.82> 862 292<1338.83 1471.82>
LayerCount: 2
Fore
SplineSet
1120 1059 m 1,0,1
 1064 1059 1064 1059 1027 1073 c 0,2,3
 926 1112 926 1112 879 1227 c 0,4,5
 862 1269 862 1269 862 1316 c 0,6,7
 862 1342 862 1342 870 1382 c 0,8,9
 889 1471 889 1471 948 1515 c 0,10,11
 995 1550 995 1550 1050 1550 c 0,12,13
 1107 1550 1107 1550 1135 1511 c 0,14,15
 1154 1485 1154 1485 1154 1450 c 0,16,17
 1154 1434 1154 1434 1150 1415 c 0,18,19
 1138 1360 1138 1360 1091 1321 c 0,20,21
 1047 1285 1047 1285 990 1285 c 1,22,23
 994 1235 994 1235 1012 1197 c 0,24,25
 1048 1123 1048 1123 1124 1074 c 1,26,-1
 1120 1059 l 1,0,1
769 1059 m 1,27,28
 713 1059 713 1059 676 1073 c 0,29,30
 575 1112 575 1112 528 1227 c 0,31,32
 511 1269 511 1269 511 1316 c 0,33,34
 511 1342 511 1342 519 1382 c 0,35,36
 538 1471 538 1471 597 1515 c 0,37,38
 644 1550 644 1550 699 1550 c 0,39,40
 756 1550 756 1550 784 1511 c 0,41,42
 803 1485 803 1485 803 1450 c 0,43,44
 803 1434 803 1434 799 1415 c 0,45,46
 787 1360 787 1360 740 1321 c 0,47,48
 696 1285 696 1285 639 1285 c 1,49,50
 643 1235 643 1235 661 1197 c 0,51,52
 697 1123 697 1123 773 1074 c 1,53,-1
 769 1059 l 1,27,28
EndSplineSet
Validated: 1
EndChar

StartChar: dagger
Encoding: 8224 8224 143
Width: 1233
GlyphClass: 2
Flags: W
HStem: 0 21G<518 719.618> 996 157<466 748 981 1263> 1490 20G<862.35 1064>
VStem: 518 197<0 197> 867 197<1313 1510>
DStem2: 518 0 715 0 0.224951 0.97437<44.3154 1022.21 1227.6 1549.81>
LayerCount: 2
Fore
SplineSet
518 0 m 1,0,-1
 748 996 l 1,1,-1
 430 996 l 1,2,-1
 466 1153 l 1,3,-1
 784 1153 l 1,4,-1
 867 1510 l 1,5,-1
 1064 1510 l 1,6,-1
 981 1153 l 1,7,-1
 1299 1153 l 1,8,-1
 1263 996 l 1,9,-1
 945 996 l 1,10,-1
 715 0 l 1,11,-1
 518 0 l 1,0,-1
EndSplineSet
Validated: 1
EndChar

StartChar: daggerdbl
Encoding: 8225 8225 144
Width: 1233
GlyphClass: 2
Flags: W
HStem: 0 21G<518 719.637> 358 157<319 601 834 1116> 996 157<466 748 981 1263> 1490 20G<862.35 1064>
VStem: 518 197<0 197> 867 197<1313 1510>
DStem2: 518 0 715 0 0.224951 0.97437<44.3154 367.495 572.885 1022.21 1227.6 1549.81>
LayerCount: 2
Fore
SplineSet
518 0 m 1,0,-1
 601 358 l 1,1,-1
 283 358 l 1,2,-1
 319 515 l 1,3,-1
 637 515 l 1,4,-1
 748 996 l 1,5,-1
 430 996 l 1,6,-1
 466 1153 l 1,7,-1
 784 1153 l 1,8,-1
 867 1510 l 1,9,-1
 1064 1510 l 1,10,-1
 981 1153 l 1,11,-1
 1299 1153 l 1,12,-1
 1263 996 l 1,13,-1
 945 996 l 1,14,-1
 834 515 l 1,15,-1
 1152 515 l 1,16,-1
 1116 358 l 1,17,-1
 798 358 l 1,18,-1
 715 0 l 1,19,-1
 518 0 l 1,0,-1
EndSplineSet
Validated: 1
EndChar

StartChar: bullet
Encoding: 8226 8226 145
Width: 980
GlyphClass: 2
Flags: W
HStem: 470 572<566.249 763.234>
VStem: 367 596<663.464 849.999>
LayerCount: 2
Fore
SplineSet
367 689 m 0,0,1
 367 721 367 721 375 756 c 0,2,3
 402 875 402 875 506 958 c 0,4,5
 611 1042 611 1042 731 1042 c 0,6,7
 852 1042 852 1042 917 958 c 0,8,9
 963 899 963 899 963 823 c 0,10,11
 963 792 963 792 955 756 c 0,12,13
 929 640 929 640 823 554 c 0,14,15
 719 470 719 470 599 470 c 0,16,17
 478 470 478 470 413 554 c 0,18,19
 367 613 367 613 367 689 c 0,0,1
EndSplineSet
Validated: 1
EndChar

StartChar: uni2023
Encoding: 8227 8227 146
Width: 978
GlyphClass: 2
Flags: W
LayerCount: 2
Fore
SplineSet
462 1133 m 1,0,-1
 1003 758 l 1,1,-1
 282 354 l 1,2,-1
 462 1133 l 1,0,-1
EndSplineSet
Validated: 1
EndChar

StartChar: onedotenleader
Encoding: 8228 8228 147
Width: 659
GlyphClass: 2
Flags: W
HStem: -20 264<278.864 432.947>
VStem: 222 267<35.6562 186.84>
LayerCount: 2
Fore
SplineSet
222 80 m 0,0,1
 222 95 222 95 226 112 c 0,2,3
 239 167 239 167 286 206 c 0,4,5
 332 244 332 244 386 244 c 0,6,7
 441 244 441 244 469 206 c 0,8,9
 489 179 489 179 489 145 c 0,10,11
 489 129 489 129 485 112 c 0,12,13
 472 56 472 56 426 18 c 0,14,15
 379 -20 379 -20 325 -20 c 0,16,17
 270 -20 270 -20 242 18 c 0,18,19
 222 45 222 45 222 80 c 0,0,1
EndSplineSet
Validated: 1
EndChar

StartChar: twodotenleader
Encoding: 8229 8229 148
Width: 1042
GlyphClass: 2
Flags: W
HStem: -20 264<278.864 432.947 661.864 815.947>
VStem: 222 267<35.6562 186.84> 605 267<35.6562 186.84>
LayerCount: 2
Fore
SplineSet
605 80 m 0,0,1
 605 95 605 95 609 112 c 0,2,3
 622 167 622 167 669 206 c 0,4,5
 715 244 715 244 769 244 c 0,6,7
 824 244 824 244 852 206 c 0,8,9
 872 179 872 179 872 145 c 0,10,11
 872 129 872 129 868 112 c 0,12,13
 855 56 855 56 809 18 c 0,14,15
 762 -20 762 -20 708 -20 c 0,16,17
 653 -20 653 -20 625 18 c 0,18,19
 605 45 605 45 605 80 c 0,0,1
222 80 m 0,20,21
 222 95 222 95 226 112 c 0,22,23
 239 167 239 167 286 206 c 0,24,25
 332 244 332 244 386 244 c 0,26,27
 441 244 441 244 469 206 c 0,28,29
 489 179 489 179 489 145 c 0,30,31
 489 129 489 129 485 112 c 0,32,33
 472 56 472 56 426 18 c 0,34,35
 379 -20 379 -20 325 -20 c 0,36,37
 270 -20 270 -20 242 18 c 0,38,39
 222 45 222 45 222 80 c 0,20,21
EndSplineSet
Validated: 1
EndChar

StartChar: ellipsis
Encoding: 8230 8230 149
Width: 1425
GlyphClass: 2
Flags: W
HStem: -20 264<278.864 432.947 661.864 815.947 1044.86 1198.95>
VStem: 222 267<35.6562 186.84> 605 267<35.6562 186.84> 988 267<35.6562 186.84>
CounterMasks: 1 70
LayerCount: 2
Fore
SplineSet
988 80 m 0,0,1
 988 95 988 95 992 112 c 0,2,3
 1005 167 1005 167 1052 206 c 0,4,5
 1098 244 1098 244 1152 244 c 0,6,7
 1207 244 1207 244 1235 206 c 0,8,9
 1255 179 1255 179 1255 145 c 0,10,11
 1255 129 1255 129 1251 112 c 0,12,13
 1238 56 1238 56 1192 18 c 0,14,15
 1145 -20 1145 -20 1091 -20 c 0,16,17
 1036 -20 1036 -20 1008 18 c 0,18,19
 988 45 988 45 988 80 c 0,0,1
605 80 m 0,20,21
 605 95 605 95 609 112 c 0,22,23
 622 167 622 167 669 206 c 0,24,25
 715 244 715 244 769 244 c 0,26,27
 824 244 824 244 852 206 c 0,28,29
 872 179 872 179 872 145 c 0,30,31
 872 129 872 129 868 112 c 0,32,33
 855 56 855 56 809 18 c 0,34,35
 762 -20 762 -20 708 -20 c 0,36,37
 653 -20 653 -20 625 18 c 0,38,39
 605 45 605 45 605 80 c 0,20,21
222 80 m 0,40,41
 222 95 222 95 226 112 c 0,42,43
 239 167 239 167 286 206 c 0,44,45
 332 244 332 244 386 244 c 0,46,47
 441 244 441 244 469 206 c 0,48,49
 489 179 489 179 489 145 c 0,50,51
 489 129 489 129 485 112 c 0,52,53
 472 56 472 56 426 18 c 0,54,55
 379 -20 379 -20 325 -20 c 0,56,57
 270 -20 270 -20 242 18 c 0,58,59
 222 45 222 45 222 80 c 0,40,41
EndSplineSet
Validated: 1
EndChar

StartChar: uni2027
Encoding: 8231 8231 150
Width: 659
GlyphClass: 2
Flags: W
HStem: 625 264<428.052 581.447>
VStem: 371 267<681.591 832.33>
LayerCount: 2
Fore
SplineSet
434 850 m 0,0,1
 482 889 482 889 535 889 c 0,2,3
 589 889 589 889 618 850 c 0,4,5
 638 823 638 823 638 789 c 0,6,7
 638 774 638 774 634 757 c 0,8,9
 621 702 621 702 575 664 c 0,10,11
 528 625 528 625 474 625 c 0,12,13
 421 625 421 625 391 664 c 0,14,15
 371 689 371 689 371 725 c 0,16,17
 371 742 371 742 375 757 c 0,18,19
 390 815 390 815 434 850 c 0,0,1
EndSplineSet
Validated: 1
EndChar

StartChar: perthousand
Encoding: 8240 8240 151
Width: 2334
GlyphClass: 2
Flags: W
HStem: -20 69<1101.52 1260.78 1767.52 1926.78> 582 88<1198.76 1375.49 1864.76 2041.49> 840 69<634.852 798.58> 1442 88<736.707 910.309>
VStem: 460 148<936.942 1268.38> 924 148<76.9424 408.355 1056.15 1274.56> 939 154<1087.76 1417.82> 1404 152<232.245 557.248> 1590 148<76.9424 408.355> 2070 152<232.245 557.248>
DStem2: 329 50 446 -20 0.644927 0.764244<21.9594 1936.6>
LayerCount: 2
Fore
SplineSet
1963 582 m 0,0,1
 1899 582 1899 582 1842 515 c 128,-1,2
 1785 448 1785 448 1752 304 c 0,3,4
 1738 243 1738 243 1738 194 c 0,5,6
 1738 155 1738 155 1747 125 c 0,7,8
 1770 49 1770 49 1839 49 c 0,9,10
 1909 49 1909 49 1963 119 c 0,11,12
 2024 198 2024 198 2055 325 c 0,13,14
 2070 387 2070 387 2070 434 c 0,15,16
 2070 486 2070 486 2053 519 c 0,17,18
 2022 582 2022 582 1963 582 c 0,0,1
1828 -20 m 0,19,20
 1701 -20 1701 -20 1630 83 c 0,21,22
 1590 141 1590 141 1590 222 c 0,23,24
 1590 267 1590 267 1602 318 c 0,25,26
 1636 463 1636 463 1743 564 c 0,27,28
 1855 670 1855 670 1988 670 c 0,29,30
 2117 670 2117 670 2184 561 c 0,31,32
 2222 499 2222 499 2222 417 c 0,33,34
 2222 371 2222 371 2210 317 c 0,35,36
 2181 188 2181 188 2070 85 c 0,37,38
 1956 -20 1956 -20 1828 -20 c 0,19,20
1297 582 m 0,39,40
 1233 582 1233 582 1176 515 c 128,-1,41
 1119 448 1119 448 1086 304 c 0,42,43
 1072 243 1072 243 1072 194 c 0,44,45
 1072 155 1072 155 1081 125 c 0,46,47
 1104 49 1104 49 1173 49 c 0,48,49
 1243 49 1243 49 1297 119 c 0,50,51
 1358 198 1358 198 1389 325 c 0,52,53
 1404 387 1404 387 1404 434 c 0,54,55
 1404 486 1404 486 1387 519 c 0,56,57
 1356 582 1356 582 1297 582 c 0,39,40
1162 -20 m 0,58,59
 1035 -20 1035 -20 964 83 c 0,60,61
 924 141 924 141 924 222 c 0,62,63
 924 267 924 267 936 318 c 0,64,65
 970 463 970 463 1077 564 c 0,66,67
 1189 670 1189 670 1322 670 c 0,68,69
 1451 670 1451 670 1518 561 c 0,70,71
 1556 499 1556 499 1556 417 c 0,72,73
 1556 371 1556 371 1544 317 c 0,74,75
 1515 188 1515 188 1404 85 c 0,76,77
 1290 -20 1290 -20 1162 -20 c 0,58,59
1578 1530 m 1,78,-1
 1700 1466 l 1,79,-1
 446 -20 l 1,80,-1
 329 50 l 1,81,-1
 1578 1530 l 1,78,-1
709 909 m 0,82,83
 780 909 780 909 833 979 c 0,84,85
 896 1062 896 1062 925 1185 c 0,86,87
 939 1244 939 1244 939 1291 c 0,88,89
 939 1343 939 1343 922 1379 c 0,90,91
 892 1442 892 1442 833 1442 c 0,92,93
 770 1442 770 1442 712 1375 c 0,94,95
 655 1309 655 1309 622 1164 c 0,96,97
 608 1103 608 1103 608 1053 c 0,98,99
 608 1016 608 1016 616 985 c 0,100,101
 636 909 636 909 709 909 c 0,82,83
857 1530 m 0,102,103
 984 1530 984 1530 1053 1421 c 0,104,105
 1093 1358 1093 1358 1093 1276 c 0,106,107
 1093 1230 1093 1230 1080 1177 c 0,108,109
 1050 1047 1050 1047 939 945 c 0,110,111
 825 840 825 840 698 840 c 0,112,113
 572 840 572 840 500 943 c 0,114,115
 460 1000 460 1000 460 1082 c 0,116,117
 460 1126 460 1126 472 1178 c 0,118,119
 505 1322 505 1322 613 1424 c 0,120,121
 725 1530 725 1530 857 1530 c 0,102,103
EndSplineSet
Validated: 1
EndChar

StartChar: minute
Encoding: 8242 8242 152
Width: 697
GlyphClass: 2
Flags: W
HStem: 1079 471
VStem: 459 382
LayerCount: 2
Fore
SplineSet
692 1550 m 1,0,-1
 841 1491 l 1,1,-1
 564 1079 l 1,2,-1
 459 1121 l 1,3,-1
 692 1550 l 1,0,-1
EndSplineSet
Validated: 1
EndChar

StartChar: second
Encoding: 8243 8243 153
Width: 947
GlyphClass: 2
Flags: W
HStem: 1079 471
VStem: 459 632
LayerCount: 2
Fore
SplineSet
942 1550 m 1,0,-1
 1091 1491 l 1,1,-1
 814 1079 l 1,2,-1
 709 1121 l 1,3,-1
 942 1550 l 1,0,-1
692 1550 m 1,4,-1
 841 1491 l 1,5,-1
 564 1079 l 1,6,-1
 459 1121 l 1,7,-1
 692 1550 l 1,4,-1
EndSplineSet
Validated: 1
EndChar

StartChar: uni2034
Encoding: 8244 8244 154
Width: 1197
GlyphClass: 2
Flags: W
HStem: 1079 471
LayerCount: 2
Fore
SplineSet
1192 1550 m 1,0,-1
 1341 1491 l 1,1,-1
 1064 1079 l 1,2,-1
 959 1121 l 1,3,-1
 1192 1550 l 1,0,-1
942 1550 m 1,4,-1
 1091 1491 l 1,5,-1
 814 1079 l 1,6,-1
 709 1121 l 1,7,-1
 942 1550 l 1,4,-1
692 1550 m 1,8,-1
 841 1491 l 1,9,-1
 564 1079 l 1,10,-1
 459 1121 l 1,11,-1
 692 1550 l 1,8,-1
EndSplineSet
Validated: 1
EndChar

StartChar: uni2035
Encoding: 8245 8245 155
Width: 697
GlyphClass: 2
Flags: W
HStem: 1079 471
VStem: 544 212
LayerCount: 2
Fore
SplineSet
721 1550 m 1,0,-1
 756 1121 l 1,1,-1
 631 1079 l 1,2,-1
 544 1491 l 1,3,-1
 721 1550 l 1,0,-1
EndSplineSet
Validated: 1
EndChar

StartChar: uni2036
Encoding: 8246 8246 156
Width: 947
GlyphClass: 2
Flags: W
HStem: 1079 471
VStem: 544 462
LayerCount: 2
Fore
SplineSet
721 1550 m 1,0,-1
 756 1121 l 1,1,-1
 631 1079 l 1,2,-1
 544 1491 l 1,3,-1
 721 1550 l 1,0,-1
971 1550 m 1,4,-1
 1006 1121 l 1,5,-1
 881 1079 l 1,6,-1
 794 1491 l 1,7,-1
 971 1550 l 1,4,-1
EndSplineSet
Validated: 1
EndChar

StartChar: uni2037
Encoding: 8247 8247 157
Width: 1197
GlyphClass: 2
Flags: W
HStem: 1079 471
LayerCount: 2
Fore
SplineSet
721 1550 m 1,0,-1
 756 1121 l 1,1,-1
 631 1079 l 1,2,-1
 544 1491 l 1,3,-1
 721 1550 l 1,0,-1
971 1550 m 1,4,-1
 1006 1121 l 1,5,-1
 881 1079 l 1,6,-1
 794 1491 l 1,7,-1
 971 1550 l 1,4,-1
1221 1550 m 1,8,-1
 1256 1121 l 1,9,-1
 1131 1079 l 1,10,-1
 1044 1491 l 1,11,-1
 1221 1550 l 1,8,-1
EndSplineSet
Validated: 1
EndChar

StartChar: guilsinglleft
Encoding: 8249 8249 158
Width: 826
GlyphClass: 2
Flags: W
VStem: 323 539
DStem2: 511 801 323 751 0.430358 -0.902658<0 461.494> 323 751 511 801 0.668573 0.743646<162.874 685.334>
LayerCount: 2
Fore
SplineSet
795 1276 m 1,0,-1
 862 1188 l 1,1,-1
 511 801 l 1,2,-1
 715 387 l 1,3,-1
 559 256 l 1,4,-1
 323 751 l 1,5,-1
 795 1276 l 1,0,-1
EndSplineSet
Validated: 1
EndChar

StartChar: guilsinglright
Encoding: 8250 8250 159
Width: 826
GlyphClass: 2
Flags: W
VStem: 317 539
DStem2: 317 344 385 256 0.667789 0.744351<0 523.125> 621 1276 464 1145 0.428871 -0.903366<51.0082 512.92>
LayerCount: 2
Fore
SplineSet
621 1276 m 1,0,-1
 856 781 l 1,1,-1
 385 256 l 1,2,-1
 317 344 l 1,3,-1
 669 731 l 1,4,-1
 464 1145 l 1,5,-1
 621 1276 l 1,0,-1
EndSplineSet
Validated: 1
EndChar

StartChar: uni2043
Encoding: 8259 8259 160
Width: 1389
GlyphClass: 2
Flags: W
LayerCount: 2
Fore
SplineSet
975 1254 m 1,0,-1
 989 1254 l 1,1,-1
 1007 935 l 1,2,-1
 1171 1004 l 1,3,-1
 1069 863 l 1,4,-1
 1367 769 l 1,5,-1
 1363 755 l 1,6,-1
 1023 663 l 1,7,-1
 1058 515 l 1,8,-1
 933 584 l 1,9,-1
 765 265 l 1,10,-1
 751 265 l 1,11,-1
 733 584 l 1,12,-1
 569 515 l 1,13,-1
 670 656 l 1,14,-1
 373 750 l 1,15,-1
 376 764 l 1,16,-1
 717 856 l 1,17,-1
 682 1004 l 1,18,-1
 807 935 l 1,19,-1
 975 1254 l 1,0,-1
EndSplineSet
Validated: 1
EndChar

StartChar: fraction
Encoding: 8260 8260 161
Width: 1065
GlyphClass: 2
Flags: W
DStem2: -8 -80 109 -150 0.601317 0.79901<14.4234 2177.4>
LayerCount: 2
Fore
SplineSet
1301 1660 m 1,0,-1
 1423 1596 l 1,1,-1
 109 -150 l 1,2,-1
 -8 -80 l 1,3,-1
 1301 1660 l 1,0,-1
EndSplineSet
Validated: 1
EndChar

StartChar: Euro
Encoding: 8364 8364 162
Width: 1549
GlyphClass: 2
Flags: W
HStem: -20 110<752.257 1076.45> 530 150<307 422 660 1105> 830 150<376 474 741 1175> 1424 106<1033.16 1358.2>
VStem: 421 209<244.311 530> 1340 274<1028.61 1169.19>
LayerCount: 2
Fore
SplineSet
1498 429 m 1,0,1
 1407 256 1407 256 1257 134 c 0,2,3
 1068 -20 1068 -20 858 -20 c 128,-1,4
 648 -20 648 -20 529 134 c 0,5,6
 421 274 421 274 421 489 c 0,7,8
 421 509 421 509 422 530 c 1,9,-1
 272 530 l 1,10,-1
 307 680 l 1,11,-1
 439 680 l 1,12,13
 446 717 446 717 455 755 c 0,14,15
 463 793 463 793 474 830 c 1,16,-1
 342 830 l 1,17,-1
 376 980 l 1,18,-1
 526 980 l 1,19,20
 627 1223 627 1223 816 1376 c 0,21,22
 1006 1530 1006 1530 1223 1530 c 0,23,24
 1426 1530 1426 1530 1533 1381 c 0,25,26
 1614 1268 1614 1268 1614 1166 c 0,27,28
 1614 1138 1614 1138 1608 1110 c 0,29,30
 1594 1045 1594 1045 1546 1006 c 0,31,32
 1499 968 1499 968 1444 968 c 0,33,34
 1392 968 1392 968 1361 1006 c 0,35,36
 1340 1032 1340 1032 1340 1067 c 0,37,38
 1340 1076 1340 1076 1344 1097 c 0,39,40
 1354 1149 1354 1149 1403 1188 c 0,41,42
 1435 1214 1435 1214 1476 1223 c 1,43,44
 1397 1424 1397 1424 1204 1424 c 0,45,46
 1044 1424 1044 1424 917 1288 c 0,47,48
 814 1178 814 1178 741 980 c 1,49,-1
 1209 980 l 1,50,-1
 1175 830 l 1,51,-1
 695 830 l 1,52,-1
 677 757 l 2,53,54
 670 729 670 729 660 680 c 1,55,-1
 1140 680 l 1,56,-1
 1105 530 l 1,57,-1
 636 530 l 1,58,59
 630 472 630 472 630 422 c 0,60,61
 630 300 630 300 667 230 c 0,62,63
 741 90 741 90 919 90 c 0,64,65
 1064 90 1064 90 1195 214 c 0,66,67
 1307 320 1307 320 1359 429 c 1,68,-1
 1498 429 l 1,0,1
EndSplineSet
Validated: 1
EndChar

StartChar: afii61248
Encoding: 8453 8453 163
Width: 1776
GlyphClass: 2
Flags: W
HStem: -20 95<1199.75 1386.35> 702 92<1323.11 1510.07> 716 94<617.528 824.882> 1184 161<895.438 954.803> 1438 92<739.661 937.488>
VStem: 442 146<837.503 1203.47> 1026 146<119.972 465.193> 1535 146<299.161 660.297>
DStem2: 377 50 494 -20 0.644927 0.764244<21.9594 1936.6>
LayerCount: 2
Fore
SplineSet
1032 980 m 1,0,1
 971 861 971 861 891 798 c 0,2,3
 787 716 787 716 676 716 c 0,4,5
 561 716 561 716 499 798 c 0,6,7
 442 873 442 873 442 986 c 0,8,9
 442 1048 442 1048 459 1123 c 0,10,11
 509 1332 509 1332 649 1448 c 0,12,13
 748 1530 748 1530 855 1530 c 0,14,15
 974 1530 974 1530 1025 1454 c 0,16,17
 1064 1396 1064 1396 1064 1332 c 0,18,19
 1064 1307 1064 1307 1058 1280 c 0,20,21
 1049 1239 1049 1239 1013 1209 c 0,22,23
 983 1184 983 1184 947 1184 c 0,24,25
 912 1184 912 1184 893 1208 c 0,26,27
 873 1232 873 1232 881 1268 c 0,28,29
 888 1301 888 1301 922 1328 c 0,30,31
 937 1340 937 1340 955 1345 c 1,32,33
 939 1438 939 1438 845 1438 c 0,34,35
 776 1438 776 1438 724 1378 c 0,36,37
 649 1292 649 1292 610 1124 c 0,38,39
 588 1029 588 1029 588 964 c 0,40,41
 588 907 588 907 605 873 c 0,42,43
 638 810 638 810 716 810 c 0,44,45
 780 810 780 810 837 865 c 0,46,47
 883 909 883 909 920 980 c 1,48,-1
 1032 980 l 1,0,1
1260 -20 m 0,49,50
 1145 -20 1145 -20 1083 62 c 0,51,52
 1026 137 1026 137 1026 251 c 0,53,54
 1026 313 1026 313 1043 387 c 0,55,56
 1090 594 1090 594 1233 712 c 0,57,58
 1332 794 1332 794 1450 794 c 0,59,60
 1564 794 1564 794 1625 712 c 0,61,62
 1681 637 1681 637 1681 522 c 0,63,64
 1681 461 1681 461 1665 387 c 0,65,66
 1616 174 1616 174 1475 62 c 0,67,68
 1372 -20 1372 -20 1260 -20 c 0,49,50
1429 702 m 0,69,70
 1360 702 1360 702 1308 642 c 0,71,72
 1235 558 1235 558 1195 388 c 0,73,74
 1172 290 1172 290 1172 224 c 0,75,76
 1172 169 1172 169 1189 137 c 0,77,78
 1222 75 1222 75 1283 75 c 0,79,80
 1345 75 1345 75 1405 137 c 0,81,82
 1473 207 1473 207 1515 388 c 0,83,84
 1535 475 1535 475 1535 540 c 0,85,86
 1535 601 1535 601 1518 642 c 0,87,88
 1493 702 1493 702 1429 702 c 0,69,70
1626 1530 m 1,89,-1
 1748 1466 l 1,90,-1
 494 -20 l 1,91,-1
 377 50 l 1,92,-1
 1626 1530 l 1,89,-1
EndSplineSet
Validated: 1
EndChar

StartChar: afii61289
Encoding: 8467 8467 164
Width: 1158
GlyphClass: 2
Flags: W
HStem: -20 136<536.823 707.717> 0 21G<150 367.667> 1500 20G<1078 1145.5>
LayerCount: 2
Fore
SplineSet
1069 1359 m 1,0,1
 979 1265 979 1265 826 1004 c 0,2,3
 651 706 651 706 595 466 c 1,4,5
 769 720 769 720 853 860 c 0,6,7
 1015 1129 1015 1129 1069 1359 c 1,0,1
150 0 m 1,8,9
 294 144 294 144 409 292 c 1,10,11
 417 367 417 367 434 443 c 0,12,13
 467 586 467 586 530 732 c 0,14,15
 748 1239 748 1239 948 1434 c 0,16,17
 1036 1520 1036 1520 1120 1520 c 0,18,19
 1171 1520 1171 1520 1203 1488 c 0,20,21
 1225 1466 1225 1466 1225 1415 c 0,22,23
 1225 1374 1225 1374 1212 1318 c 0,24,25
 1194 1234 1194 1234 1125 1072 c 0,26,27
 978 726 978 726 585 271 c 1,28,29
 585 116 585 116 638 116 c 0,30,31
 657 116 657 116 685 140 c 0,32,33
 725 174 725 174 769 228 c 1,34,-1
 945 228 l 1,35,36
 836 98 836 98 760 40 c 0,37,38
 681 -20 681 -20 597 -20 c 0,39,40
 477 -20 477 -20 426 90 c 1,41,-1
 351 0 l 1,42,-1
 150 0 l 1,8,9
EndSplineSet
Validated: 1
EndChar

StartChar: trademark
Encoding: 8482 8482 165
Width: 1824
GlyphClass: 2
Flags: W
HStem: 1455 95<681.348 992>
VStem: 597 140<745 885> 734 140<1200 1340> 969 95<745 840> 1659 137<745 882>
DStem2: 446 1282 519 1239 0.544988 0.838444<3.73107 234.529> 592.383 725 732.383 725 0.224951 0.97437<52.0192 631.095> 969 745 1064 745 0.349084 0.937091<33.163 552.821> 1334 1540 1182 1540 0.191717 -0.98145<0 114.205 286.78 568.546> 1443 982 1380 725 0.551626 0.834091<0 321.958 609.015 668.973> 1659 745 1796 745 0.0816233 0.996663<11.1824 458.332>
LayerCount: 2
Fore
SplineSet
969 745 m 1,0,-1
 1213 1400 l 1,1,-1
 1182 1540 l 1,2,-1
 1334 1540 l 1,3,-1
 1443 982 l 1,4,-1
 1812 1540 l 1,5,-1
 1919 1540 l 1,6,-1
 1853 1441 l 1,7,-1
 1796 745 l 1,8,-1
 1659 745 l 1,9,-1
 1694 1202 l 1,10,-1
 1380 725 l 1,11,-1
 1346 725 l 1,12,-1
 1248 1231 l 1,13,-1
 1064 745 l 1,14,-1
 969 745 l 1,0,-1
597 745 m 1,15,-1
 734 1340 l 1,16,-1
 874 1340 l 1,17,-1
 737 745 l 1,18,-1
 597 745 l 1,15,-1
446 1282 m 1,19,-1
 457 1299 l 2,20,21
 620 1550 620 1550 848 1550 c 2,22,-1
 993 1550 l 2,23,24
 1070 1550 1070 1550 1116 1515 c 0,25,26
 1150 1489 1150 1489 1150 1447 c 0,27,28
 1150 1435 1150 1435 1147 1421 c 0,29,30
 1140 1387 1140 1387 1108 1360 c 0,31,32
 1078 1335 1078 1335 1042 1335 c 0,33,34
 1008 1335 1008 1335 988 1359 c 128,-1,35
 968 1383 968 1383 977 1420 c 0,36,37
 981 1437 981 1437 992 1455 c 1,38,39
 982 1455 982 1455 972 1455 c 2,40,-1
 830 1455 l 2,41,42
 663 1455 663 1455 532 1259 c 2,43,-1
 519 1239 l 1,44,-1
 446 1282 l 1,19,-1
EndSplineSet
Validated: 1
EndChar

StartChar: uni2126
Encoding: 8486 8486 166
Width: 1424
GlyphClass: 2
Flags: W
HStem: 0 172<156 524.113 955.242 1308> 1425 105<883.55 1173.7>
VStem: 293 216<391.232 880.077> 1296 210<764.851 1256.8>
LayerCount: 2
Fore
SplineSet
116 0 m 1,0,-1
 156 172 l 1,1,-1
 550 172 l 17,2,3
 469 205 469 205 411 274 c 0,4,5
 293 413 293 413 293 614 c 0,6,7
 293 703 293 703 316 805 c 0,8,9
 396 1150 396 1150 666 1376 c 0,10,11
 850 1530 850 1530 1065 1530 c 0,12,13
 1279 1530 1279 1530 1394 1376 c 0,14,15
 1506 1226 1506 1226 1506 1018 c 0,16,17
 1506 918 1506 918 1480 805 c 0,18,19
 1405 478 1405 478 1139 274 c 0,20,21
 1049 205 1049 205 954 172 c 9,22,-1
 1348 172 l 1,23,-1
 1308 0 l 1,24,-1
 1060 0 l 2,25,26
 876 0 876 0 876 165 c 0,27,28
 876 208 876 208 888 262 c 1,29,30
 967 286 967 286 1030 356 c 0,31,32
 1202 547 1202 547 1262 805 c 0,33,34
 1296 952 1296 952 1296 1066 c 0,35,36
 1296 1203 1296 1203 1247 1294 c 0,37,38
 1176 1425 1176 1425 1041 1425 c 0,39,40
 902 1425 902 1425 775 1294 c 0,41,42
 605 1118 605 1118 534 805 c 0,43,44
 509 695 509 695 509 599 c 0,45,46
 509 464 509 464 558 356 c 0,47,48
 590 286 590 286 656 262 c 1,49,50
 596 0 596 0 364 0 c 2,51,-1
 116 0 l 1,0,-1
EndSplineSet
Validated: 1
EndChar

StartChar: estimated
Encoding: 8494 8494 167
Width: 1358
GlyphClass: 2
Flags: W
HStem: 0 72<531.416 878.377> 565 74<529 1125> 1057 73<737.436 1087.37>
VStem: 261 1094<409 727>
LayerCount: 2
Fore
SplineSet
1210 276 m 1,0,1
 1050 103 1050 103 926 51.5 c 128,-1,2
 802 0 802 0 679 0 c 0,3,4
 442 0 442 0 333 160 c 0,5,6
 261 266 261 266 261 409 c 0,7,8
 261 482 261 482 280 565 c 0,9,10
 336 812 336 812 521 971 c 0,11,12
 705 1130 705 1130 940 1130 c 0,13,14
 1154 1130 1154 1130 1273 988 c 0,15,16
 1355 890 1355 890 1355 727 c 0,17,18
 1355 652 1355 652 1338 565 c 1,19,-1
 511 565 l 1,20,-1
 426 194 l 1,21,22
 519 72 519 72 696 72 c 0,23,24
 947 72 947 72 1148 319 c 1,25,-1
 1210 276 l 1,0,1
1125 639 m 1,26,-1
 1193 936 l 1,27,28
 1093 1057 1093 1057 921 1057 c 0,29,30
 746 1057 746 1057 597 935 c 1,31,-1
 529 639 l 1,32,-1
 1125 639 l 1,26,-1
EndSplineSet
Validated: 1
EndChar

StartChar: partialdiff
Encoding: 8706 8706 168
Width: 1335
GlyphClass: 2
Flags: W
HStem: -20 153<439.127 705.153> 870 140<736.257 1015.16> 1325 152<792.82 1125.8>
VStem: 219 192<164.501 467.272> 1188 191<872.399 1263.48>
LayerCount: 2
Fore
SplineSet
747 1415 m 1,0,1
 895 1477 895 1477 1044 1477 c 0,2,3
 1379 1477 1379 1477 1379 1151 c 0,4,5
 1379 1057 1379 1057 1351 934 c 1,6,7
 1258 541 1258 541 1027 262 c 0,8,9
 793 -20 793 -20 507 -20 c 0,10,11
 219 -20 219 -20 219 233 c 0,12,13
 219 296 219 296 237 375 c 0,14,15
 293 622 293 622 477 817 c 0,16,17
 659 1010 659 1010 903 1010 c 0,18,19
 1087 1010 1087 1010 1152 862 c 1,20,21
 1188 1015 1188 1015 1188 1112 c 0,22,23
 1188 1165 1188 1165 1176 1204 c 0,24,25
 1139 1325 1139 1325 984 1325 c 0,26,27
 853 1325 853 1325 707 1241 c 1,28,-1
 747 1415 l 1,0,1
1077 680 m 1,29,30
 1075 765 1075 765 1023 818 c 0,31,32
 972 870 972 870 896 870 c 0,33,34
 735 870 735 870 600 710 c 0,35,36
 464 549 464 549 423 369 c 0,37,38
 411 316 411 316 411 275 c 0,39,40
 411 133 411 133 556 133 c 0,41,42
 694 133 694 133 838.5 286 c 128,-1,43
 983 439 983 439 1077 680 c 1,29,30
EndSplineSet
Validated: 1
EndChar

StartChar: uni2206
Encoding: 8710 8710 169
Width: 1418
GlyphClass: 2
Flags: W
HStem: 0 126<236 1184> 1530 20G<1059.22 1092.19>
DStem2: 5 0 236 126 0.567385 0.823452<234.821 1532.06> 1088 1550 968 1197 0.205215 -0.978717<320.861 1413.39>
LayerCount: 2
Fore
SplineSet
1184 126 m 1,0,-1
 968 1197 l 1,1,-1
 236 126 l 1,2,-1
 1184 126 l 1,0,-1
5 0 m 1,3,-1
 1073 1550 l 1,4,-1
 1088 1550 l 1,5,-1
 1413 0 l 1,6,-1
 5 0 l 1,3,-1
EndSplineSet
Validated: 1
EndChar

StartChar: product
Encoding: 8719 8719 170
Width: 1548
GlyphClass: 2
Flags: W
HStem: -410 21G<155 359.623 1003 1207.62> 1408 102<780.679 1396.32> 1495 15<429 447.339 1791.03 1813>
VStem: 155 200<-410 -210> 1003 200<-410 -210>
DStem2: 155 -410 355 -410 0.224951 0.97437<44.9902 1789.04> 1003 -410 1203 -410 0.224951 0.97437<44.9902 1788.06>
LayerCount: 2
Fore
SplineSet
155 -410 m 9,0,-1
 541 1260 l 2,1,2
 550 1301 550 1301 550 1336 c 0,3,4
 550 1460 550 1460 425 1495 c 1,5,-1
 429 1510 l 1,6,-1
 1817 1510 l 1,7,-1
 1813 1495 l 1,8,9
 1633 1450 1633 1450 1589 1260 c 2,10,-1
 1203 -410 l 25,11,-1
 1003 -410 l 25,12,-1
 1389 1260 l 2,13,14
 1398 1300 1398 1300 1398 1335 c 0,15,16
 1398 1376 1398 1376 1385 1408 c 1,17,-1
 813 1408 l 17,18,19
 763 1355 763 1355 741 1260 c 2,20,-1
 355 -410 l 17,21,-1
 155 -410 l 9,0,-1
EndSplineSet
Validated: 1
EndChar

StartChar: summation
Encoding: 8721 8721 171
Width: 1441
GlyphClass: 2
Flags: W
HStem: -430 94<590.035 1006.31> -373 104<389.988 682.742> 1400 110<741.074 1305.55>
VStem: 985 266<-272.029 -111.786> 1235 269<1216.26 1365.56>
DStem2: 970 492 766 535 0.30819 -0.951325<-888.908 -103.778>
LayerCount: 2
Fore
SplineSet
4 -416 m 1,0,-1
 766 535 l 1,1,-1
 455 1495 l 1,2,-1
 459 1510 l 1,3,-1
 1222 1510 l 2,4,5
 1366 1510 1366 1510 1444 1449 c 0,6,7
 1504 1402 1504 1402 1504 1332 c 0,8,9
 1504 1316 1504 1316 1499 1292 c 0,10,11
 1488 1237 1488 1237 1440 1198 c 0,12,13
 1393 1160 1393 1160 1339 1160 c 128,-1,14
 1285 1160 1285 1160 1255 1197 c 0,15,16
 1235 1222 1235 1222 1235 1257 c 0,17,18
 1235 1272 1235 1272 1239 1290 c 0,19,20
 1251 1343 1251 1343 1309 1395 c 1,21,22
 1254 1400 1254 1400 1198 1400 c 2,23,-1
 772 1400 l 1,24,25
 729 1345 729 1345 721 1310 c 0,26,27
 716 1289 716 1289 725 1260 c 2,28,-1
 970 492 l 1,29,-1
 423 -161 l 2,30,31
 403 -185 403 -185 393 -214 c 0,32,33
 383 -242 383 -242 394 -269 c 1,34,35
 513 -269 513 -269 647 -305 c 0,36,37
 762 -336 762 -336 869 -336 c 0,38,39
 956 -336 956 -336 1009 -293 c 1,40,41
 985 -256 985 -256 985 -217 c 0,42,43
 985 -203 985 -203 988 -188 c 0,44,45
 999 -135 999 -135 1047 -95 c 0,46,47
 1092 -58 1092 -58 1147 -58 c 0,48,49
 1206 -58 1206 -58 1231 -96 c 0,50,51
 1251 -126 1251 -126 1251 -160 c 0,52,53
 1251 -174 1251 -174 1248 -188 c 0,54,55
 1227 -288 1227 -288 1096 -358 c 0,56,57
 962 -430 962 -430 840 -430 c 0,58,59
 740 -430 740 -430 570 -395 c 0,60,61
 463 -373 463 -373 310 -373 c 0,62,63
 162 -373 162 -373 11 -430 c 1,64,-1
 4 -416 l 1,0,-1
EndSplineSet
Validated: 1
EndChar

StartChar: minus
Encoding: 8722 8722 172
Width: 1233
GlyphClass: 2
Flags: W
HStem: 680 150<392 1190>
LayerCount: 2
Fore
SplineSet
392 830 m 1,0,-1
 1225 830 l 1,1,-1
 1190 680 l 1,2,-1
 357 680 l 1,3,-1
 392 830 l 1,0,-1
EndSplineSet
Validated: 1
EndChar

StartChar: uni2215
Encoding: 8725 8725 173
Width: 1065
GlyphClass: 2
Flags: W
DStem2: -8 -80 109 -150 0.601317 0.79901<14.4234 2177.4>
LayerCount: 2
Fore
SplineSet
1301 1660 m 1,0,-1
 1423 1596 l 1,1,-1
 109 -150 l 1,2,-1
 -8 -80 l 1,3,-1
 1301 1660 l 1,0,-1
EndSplineSet
Validated: 1
EndChar

StartChar: asteriskmath
Encoding: 8727 8727 174
Width: 1389
GlyphClass: 2
Flags: W
LayerCount: 2
Fore
SplineSet
975 1254 m 1,0,-1
 989 1254 l 1,1,-1
 1007 935 l 1,2,-1
 1171 1004 l 1,3,-1
 1069 863 l 1,4,-1
 1367 769 l 1,5,-1
 1363 755 l 1,6,-1
 1023 663 l 1,7,-1
 1058 515 l 1,8,-1
 933 584 l 1,9,-1
 765 265 l 1,10,-1
 751 265 l 1,11,-1
 733 584 l 1,12,-1
 569 515 l 1,13,-1
 670 656 l 1,14,-1
 373 750 l 1,15,-1
 376 764 l 1,16,-1
 717 856 l 1,17,-1
 682 1004 l 1,18,-1
 807 935 l 1,19,-1
 975 1254 l 1,0,-1
EndSplineSet
Validated: 1
EndChar

StartChar: uni2218
Encoding: 8728 8728 175
Width: 980
GlyphClass: 2
Flags: W
HStem: 470 130<528.503 743.984> 918 124<582.458 795.739>
VStem: 367 135<647.003 836.882> 824 139<678.627 880.21>
LayerCount: 2
Fore
SplineSet
502 721 m 0,0,1
 502 678 502 678 527 646 c 0,2,3
 564 600 564 600 627 600 c 128,-1,4
 690 600 690 600 747 646 c 0,5,6
 802 690 802 690 819 758 c 0,7,8
 824 778 824 778 824 795 c 0,9,10
 824 836 824 836 799 871 c 0,11,12
 765 918 765 918 700 918 c 0,13,14
 634 918 634 918 578 871 c 0,15,16
 526 828 526 828 507 758 c 0,17,18
 502 740 502 740 502 721 c 0,0,1
367 689 m 0,19,20
 367 721 367 721 375 756 c 0,21,22
 402 875 402 875 506 958 c 0,23,24
 611 1042 611 1042 731 1042 c 0,25,26
 852 1042 852 1042 917 958 c 0,27,28
 963 899 963 899 963 823 c 0,29,30
 963 792 963 792 955 756 c 0,31,32
 929 640 929 640 823 554 c 0,33,34
 719 470 719 470 599 470 c 0,35,36
 478 470 478 470 413 554 c 0,37,38
 367 613 367 613 367 689 c 0,19,20
EndSplineSet
Validated: 1
EndChar

StartChar: uni2219
Encoding: 8729 8729 176
Width: 659
GlyphClass: 2
Flags: W
HStem: 625 264<428.052 581.447>
VStem: 371 267<681.591 832.33>
LayerCount: 2
Fore
SplineSet
434 850 m 0,0,1
 482 889 482 889 535 889 c 0,2,3
 589 889 589 889 618 850 c 0,4,5
 638 823 638 823 638 789 c 0,6,7
 638 774 638 774 634 757 c 0,8,9
 621 702 621 702 575 664 c 0,10,11
 528 625 528 625 474 625 c 0,12,13
 421 625 421 625 391 664 c 0,14,15
 371 689 371 689 371 725 c 0,16,17
 371 742 371 742 375 757 c 0,18,19
 390 815 390 815 434 850 c 0,0,1
EndSplineSet
Validated: 1
EndChar

StartChar: radical
Encoding: 8730 8730 177
Width: 1438
GlyphClass: 2
Flags: W
HStem: -40 21G<630.19 660.166> 686 145<342 531> 1530 143<1603 1781>
DStem2: 687 831 531 686 0.139129 -0.990274<121.886 456.23> 749 379 648 -40 0.519688 0.854356<0 1427.18>
LayerCount: 2
Fore
SplineSet
633 -40 m 1,0,-1
 531 686 l 1,1,-1
 308 686 l 1,2,-1
 342 831 l 1,3,-1
 687 831 l 1,4,-1
 749 379 l 1,5,-1
 1527 1673 l 1,6,-1
 1814 1673 l 1,7,-1
 1781 1530 l 1,8,-1
 1603 1530 l 1,9,-1
 648 -40 l 1,10,-1
 633 -40 l 1,0,-1
EndSplineSet
Validated: 1
EndChar

StartChar: uni221B
Encoding: 8731 8731 178
Width: 1438
GlyphClass: 2
Flags: W
HStem: -40 21G<630.19 660.166> 686 145<342 531> 898 76<690.021 855.108> 1049 129<676.606 724.497> 1479 71<810.506 934.557> 1530 143<1603 1781>
VStem: 591 143<1053.75 1157.43> 910 123<1022.61 1191.31>
DStem2: 687 831 531 686 0.139129 -0.990274<121.886 456.23> 597 1105 734 1110 0.355137 0.934814<-24.0602 94.3879 259.296 384.737> 749 379 648 -40 0.519688 0.854356<0 1427.18>
LayerCount: 2
Fore
SplineSet
633 -40 m 1,0,-1
 531 686 l 1,1,-1
 308 686 l 1,2,-1
 342 831 l 1,3,-1
 687 831 l 1,4,-1
 749 379 l 1,5,-1
 1527 1673 l 1,6,-1
 1814 1673 l 1,7,-1
 1781 1530 l 1,8,-1
 1603 1530 l 1,9,-1
 648 -40 l 1,10,-1
 633 -40 l 1,0,-1
904 1550 m 0,11,12
 974 1550 974 1550 1008 1519 c 0,13,14
 1049 1482 1049 1482 1049 1430 c 0,15,16
 1049 1416 1049 1416 1046 1400 c 0,17,18
 1035 1339 1035 1339 974 1296 c 0,19,20
 954 1282 954 1282 935 1272 c 1,21,22
 975 1260 975 1260 999 1232 c 0,23,24
 1033 1192 1033 1192 1033 1140 c 0,25,26
 1033 1121 1033 1121 1028 1099 c 0,27,28
 1007 1007 1007 1007 920 949 c 0,29,30
 843 898 843 898 751 898 c 0,31,32
 662 898 662 898 620 961 c 0,33,34
 591 1005 591 1005 591 1057 c 0,35,36
 591 1080 591 1080 597 1105 c 0,37,38
 605 1138 605 1138 629 1158 c 128,-1,39
 653 1178 653 1178 682 1178 c 0,40,41
 709 1178 709 1178 725 1158 c 0,42,43
 739 1140 739 1140 734 1110 c 0,44,45
 729 1081 729 1081 703 1062 c 0,46,47
 689 1052 689 1052 676 1049 c 1,48,49
 689 974 689 974 764 974 c 0,50,51
 814 974 814 974 850 1006 c 0,52,53
 893 1044 893 1044 905 1097 c 0,54,55
 910 1119 910 1119 910 1138 c 0,56,57
 910 1170 910 1170 895 1192 c 0,58,59
 869 1231 869 1231 793 1252 c 1,60,-1
 800 1281 l 1,61,62
 868 1303 868 1303 900 1332 c 0,63,64
 928 1357 928 1357 938 1396 c 0,65,66
 948 1437 948 1437 931 1458 c 128,-1,67
 914 1479 914 1479 884 1479 c 0,68,69
 843 1479 843 1479 809 1446 c 1,70,71
 820 1442 820 1442 831 1428 c 0,72,73
 843 1413 843 1413 836 1385 c 0,74,75
 828 1355 828 1355 805 1337 c 0,76,77
 779 1317 779 1317 752 1317 c 0,78,79
 723 1317 723 1317 707 1339 c 0,80,81
 690 1362 690 1362 699 1392 c 0,82,83
 715 1448 715 1448 755 1487 c 0,84,85
 820 1550 820 1550 904 1550 c 0,11,12
EndSplineSet
Validated: 1
EndChar

StartChar: infinity
Encoding: 8734 8734 179
Width: 1472
GlyphClass: 2
Flags: W
HStem: 414 69<538.45 700.365 1003.17 1164.58> 1016 88<637.526 811.341 1100.73 1276.34>
VStem: 362 147<510.663 840.845> 841 132<664.217 840.845> 1305 152<664.108 991.278>
LayerCount: 2
Fore
SplineSet
759 1104 m 0,0,1
 882 1104 882 1104 955 995 c 0,2,3
 959 989 959 989 963 982 c 1,4,5
 964 983 964 983 978 998 c 0,6,7
 1077 1104 1077 1104 1223 1104 c 0,8,9
 1351 1104 1351 1104 1419 995 c 0,10,11
 1457 934 1457 934 1457 851 c 0,12,13
 1457 804 1457 804 1445 751 c 0,14,15
 1415 620 1415 620 1305 519 c 0,16,17
 1191 414 1191 414 1064 414 c 0,18,19
 929 414 929 414 865 517 c 2,20,-1
 855 533 l 1,21,-1
 841 519 l 1,22,23
 727 414 727 414 600 414 c 0,24,25
 471 414 471 414 401 517 c 0,26,27
 362 574 362 574 362 654 c 0,28,29
 362 699 362 699 374 752 c 0,30,31
 406 894 406 894 514 998 c 0,32,33
 624 1104 624 1104 759 1104 c 0,0,1
611 483 m 0,34,35
 681 483 681 483 735 553 c 0,36,37
 795 633 795 633 826 759 c 0,38,39
 841 821 841 821 841 868 c 0,40,41
 841 920 841 920 824 953 c 24,42,43
 792 1016 792 1016 735 1016 c 0,44,45
 670 1016 670 1016 614 949 c 0,46,47
 555 879 555 879 523 738 c 0,48,49
 509 677 509 677 509 629 c 0,50,51
 509 590 509 590 518 559 c 0,52,53
 540 483 540 483 611 483 c 0,34,35
1075 483 m 128,-1,55
 1146 483 1146 483 1199 553 c 0,56,57
 1259 632 1259 632 1290 759 c 0,58,59
 1305 821 1305 821 1305 868 c 0,60,61
 1305 918 1305 918 1288 953 c 24,62,63
 1257 1016 1257 1016 1199 1016 c 0,64,65
 1134 1016 1134 1016 1078 949 c 0,66,67
 1019 879 1019 879 987 738 c 0,68,69
 973 677 973 677 973 629 c 0,70,71
 973 590 973 590 982 559 c 0,72,54
 1004 483 1004 483 1075 483 c 128,-1,55
EndSplineSet
Validated: 1
EndChar

StartChar: approxequal
Encoding: 8776 8776 180
Width: 1430
GlyphClass: 2
Flags: W
HStem: 382 172<983.521 1164.44> 592 173<529.154 711.783> 754 172<1069.51 1250.44> 964 173<614.959 797.391>
DStem2: 1008 580 687 566 0.803842 -0.594843<-333.045 82.6098> 1094 952 773 938 0.803842 -0.594843<-333.045 82.6098>
LayerCount: 2
Fore
SplineSet
306 458 m 1,0,1
 467 765 467 765 685 765 c 0,2,3
 758 765 758 765 808 728 c 1,4,-1
 1008 580 l 17,5,6
 1046 554 1046 554 1093 554 c 0,7,8
 1195 554 1195 554 1389 688 c 1,9,10
 1228 382 1228 382 1004 382 c 0,11,12
 931 382 931 382 887 418 c 1,13,-1
 687 566 l 17,14,15
 651 592 651 592 601 592 c 0,16,17
 500 592 500 592 306 458 c 1,0,1
392 830 m 1,18,19
 553 1137 553 1137 770 1137 c 0,20,21
 844 1137 844 1137 894 1100 c 1,22,-1
 1094 952 l 17,23,24
 1132 926 1132 926 1179 926 c 0,25,26
 1281 926 1281 926 1475 1060 c 1,27,28
 1314 754 1314 754 1090 754 c 0,29,30
 1017 754 1017 754 972 790 c 1,31,-1
 773 938 l 17,32,33
 737 964 737 964 687 964 c 0,34,35
 586 964 586 964 392 830 c 1,18,19
EndSplineSet
Validated: 1
EndChar

StartChar: notequal
Encoding: 8800 8800 181
Width: 1233
GlyphClass: 2
Flags: W
HStem: 530 150<357 537 820 1155> 830 150<426 762 1044 1225>
DStem2: 303 217 421 147 0.599146 0.80064<14.6544 390.8 680.455 765.8 1054.86 1491.6>
LayerCount: 2
Fore
SplineSet
1197 1411 m 1,0,-1
 1319 1347 l 1,1,-1
 1044 980 l 1,2,-1
 1259 980 l 1,3,-1
 1225 830 l 1,4,-1
 932 830 l 1,5,-1
 820 680 l 1,6,-1
 1190 680 l 1,7,-1
 1155 530 l 1,8,-1
 707 530 l 1,9,-1
 421 147 l 1,10,-1
 303 217 l 1,11,-1
 537 530 l 1,12,-1
 322 530 l 1,13,-1
 357 680 l 1,14,-1
 650 680 l 1,15,-1
 762 830 l 1,16,-1
 392 830 l 1,17,-1
 426 980 l 1,18,-1
 874 980 l 1,19,-1
 1197 1411 l 1,0,-1
EndSplineSet
Validated: 1
EndChar

StartChar: equivalence
Encoding: 8801 8801 182
Width: 1233
GlyphClass: 2
Flags: W
HStem: 380 150<322 1121> 680 150<392 1190> 980 150<461 1259>
CounterMasks: 1 e0
LayerCount: 2
Fore
SplineSet
322 530 m 1,0,-1
 1155 530 l 1,1,-1
 1121 380 l 1,2,-1
 288 380 l 1,3,-1
 322 530 l 1,0,-1
461 1130 m 1,4,-1
 1294 1130 l 1,5,-1
 1259 980 l 1,6,-1
 426 980 l 1,7,-1
 461 1130 l 1,4,-1
392 830 m 1,8,-1
 1225 830 l 1,9,-1
 1190 680 l 1,10,-1
 357 680 l 1,11,-1
 392 830 l 1,8,-1
EndSplineSet
Validated: 1
EndChar

StartChar: lessequal
Encoding: 8804 8804 183
Width: 1406
GlyphClass: 2
Flags: W
HStem: 120 150<262 1234>
DStem2: 689 903 400 870 0.84847 -0.529244<0 724.56> 404 885 689 903 0.89426 0.447549<262.92 1180.16>
LayerCount: 2
Fore
SplineSet
404 885 m 1,0,-1
 1471 1419 l 1,1,-1
 1509 1314 l 1,2,-1
 689 903 l 1,3,-1
 1311 530 l 1,4,-1
 1208 366 l 1,5,-1
 400 870 l 1,6,-1
 404 885 l 1,0,-1
228 120 m 1,7,-1
 262 270 l 1,8,-1
 1268 270 l 1,9,-1
 1234 120 l 1,10,-1
 228 120 l 1,7,-1
EndSplineSet
Validated: 1
EndChar

StartChar: greaterequal
Encoding: 8805 8805 184
Width: 1406
GlyphClass: 2
Flags: W
HStem: 120 150<262 1234>
DStem2: 309 471 347 366 0.89426 0.447549<0 913.657> 610 1419 504 1253 0.84847 -0.529244<0 723.073>
LayerCount: 2
Fore
SplineSet
1414 900 m 1,0,-1
 347 366 l 1,1,-1
 309 471 l 1,2,-1
 1126 880 l 1,3,-1
 504 1253 l 1,4,-1
 610 1419 l 1,5,-1
 1418 915 l 1,6,-1
 1414 900 l 1,0,-1
228 120 m 1,7,-1
 262 270 l 1,8,-1
 1268 270 l 1,9,-1
 1234 120 l 1,10,-1
 228 120 l 1,7,-1
EndSplineSet
Validated: 1
EndChar

StartChar: lozenge
Encoding: 9674 9674 185
Width: 1234
GlyphClass: 2
Flags: W
HStem: 0 21G<608.951 634.22> 1490 20G<949.264 973.516>
DStem2: 511 810 320 738 0.37334 -0.927694<0 586.043> 320 738 511 810 0.641746 0.766917<177.792 719.515> 724 264 617 0 0.652474 0.757811<0 532.986> 966 1510 858 1226 0.35179 -0.936079<227.853 819.965>
LayerCount: 2
Fore
SplineSet
858 1226 m 1,0,-1
 511 810 l 1,1,-1
 724 264 l 1,2,-1
 1067 672 l 1,3,-1
 858 1226 l 1,0,-1
617 0 m 1,4,-1
 320 738 l 1,5,-1
 966 1510 l 1,6,-1
 1255 741 l 1,7,-1
 617 0 l 1,4,-1
EndSplineSet
Validated: 1
EndChar

StartChar: multiply
Encoding: 215 215 186
Width: 1096
Flags: W
HStem: 1083 20G<536.283 576.372 1019.45 1059.14>
DStem2: 319 514 400 407 0.776147 0.630552<0 379.284 550.992 929.5> 561 1103 430 997 0.609841 -0.792524<4.11844 305.221 443.354 743.664>
LayerCount: 2
Fore
SplineSet
561 1103 m 1,0,-1
 747 861 l 1,1,-1
 1044 1103 l 1,2,-1
 1125 996 l 1,3,-1
 828 755 l 1,4,-1
 1015 514 l 1,5,-1
 884 407 l 1,6,-1
 698 649 l 1,7,-1
 400 407 l 1,8,-1
 319 514 l 1,9,-1
 616 755 l 1,10,-1
 430 997 l 1,11,-1
 561 1103 l 1,0,-1
EndSplineSet
Validated: 1
EndChar

StartChar: divide
Encoding: 247 247 187
Width: 1233
Flags: W
HStem: 298 264<638.014 792.947> 680 150<392 1190> 943 264<788.052 941.447>
VStem: 582 267<353.486 506.441> 731 267<999.591 1150.33>
LayerCount: 2
Fore
SplineSet
794 1168 m 0,0,1
 842 1207 842 1207 895 1207 c 0,2,3
 949 1207 949 1207 978 1168 c 0,4,5
 998 1141 998 1141 998 1107 c 0,6,7
 998 1092 998 1092 994 1075 c 0,8,9
 981 1020 981 1020 935 982 c 0,10,11
 888 943 888 943 834 943 c 0,12,13
 781 943 781 943 751 982 c 0,14,15
 731 1007 731 1007 731 1043 c 0,16,17
 731 1060 731 1060 735 1075 c 0,18,19
 750 1133 750 1133 794 1168 c 0,0,1
645 524 m 128,-1,21
 691 562 691 562 746 562 c 128,-1,22
 801 562 801 562 829 524 c 0,23,24
 849 497 849 497 849 463 c 0,25,26
 849 447 849 447 845 430 c 0,27,28
 832 374 832 374 786 336 c 0,29,30
 739 298 739 298 685 298 c 0,31,32
 629 298 629 298 602 336 c 0,33,34
 582 364 582 364 582 398 c 0,35,36
 582 413 582 413 586 430 c 0,37,20
 599 486 599 486 645 524 c 128,-1,21
392 830 m 1,38,-1
 1225 830 l 1,39,-1
 1190 680 l 1,40,-1
 357 680 l 1,41,-1
 392 830 l 1,38,-1
EndSplineSet
Validated: 1
EndChar

StartChar: g
Encoding: 103 103 188
Width: 1210
Flags: W
HStem: -430 95<356.509 627.495> -20 114<523.064 763.63> 1006 114<710.497 956.226> 1080 20G<1079.33 1284>
VStem: 161 269<-283.262 -137.16> 257 207<176.041 599.128>
DStem2: 730.421 -430 930.64 -430 0.224951 0.97437<329.99 548.113 637.835 1267.17 1460.44 1570.32>
LayerCount: 2
Fore
SplineSet
854 104 m 17,0,1
 816 61 816 61 797 46 c 0,2,3
 713 -20 713 -20 607 -20 c 0,4,5
 432 -20 432 -20 337 116 c 0,6,7
 257 230 257 230 257 384 c 0,8,9
 257 460 257 460 277 550 c 0,10,11
 340 817 340 817 537 984 c 16,12,13
 697 1120 697 1120 871 1120 c 0,14,15
 977 1120 977 1120 1032 1048 c 0,16,17
 1052 1022 1052 1022 1059 993 c 1,18,-1
 1084 1100 l 1,19,-1
 1284 1100 l 1,20,-1
 1053 100 l 2,21,22
 996 -147 996 -147 812 -302 c 0,23,24
 660 -430 660 -430 443 -430 c 0,25,26
 316 -430 316 -430 229 -367 c 0,27,28
 161 -318 161 -318 161 -249 c 0,29,30
 161 -232 161 -232 165 -212 c 0,31,32
 179 -157 179 -157 225 -118 c 0,33,34
 270 -80 270 -80 326 -80 c 0,35,36
 378 -80 378 -80 409 -117 c 0,37,38
 430 -142 430 -142 430 -177 c 0,39,40
 430 -192 430 -192 426 -210 c 0,41,42
 411 -265 411 -265 355 -315 c 1,43,44
 391 -335 391 -335 463 -335 c 0,45,46
 591 -335 591 -335 705 -238 c 0,47,48
 792 -164 792 -164 826 -16 c 10,49,-1
 854 104 l 17,0,1
989 690 m 2,50,51
 1004 756 1004 756 1004 809 c 128,-1,52
 1004 862 1004 862 989 904 c 0,53,54
 953 1006 953 1006 846 1006 c 0,55,56
 725 1006 725 1006 635 890 c 24,57,58
 550 781 550 781 497 550 c 0,59,60
 464 406 464 406 464 311 c 0,61,62
 464 250 464 250 478 210 c 0,63,64
 519 94 519 94 636 94 c 0,65,66
 737 94 737 94 824 194 c 0,67,68
 893 273 893 273 925 410 c 2,69,-1
 989 690 l 2,50,51
EndSplineSet
Validated: 1
EndChar

StartChar: k
Encoding: 107 107 189
Width: 1188
Flags: W
HStem: 0 21G<220 424.601 898.653 1122> 1100 20G<1124.5 1181> 1490 20G<564.378 769>
VStem: 220 200<0 200> 569 200<1310 1510> 906 216<0 216> 986 283<881.979 1063>
DStem2: 220 0 420 0 0.224951 0.97437<44.9902 400.254 485.265 1549.81> 1026 250 816 245 0.358479 -0.933538<-215.191 190.367>
LayerCount: 2
Fore
SplineSet
220 0 m 1,0,-1
 569 1510 l 1,1,-1
 769 1510 l 1,2,-1
 519 429 l 1,3,4
 907 609 907 609 1084 857 c 1,5,6
 1036 861 1036 861 1007 898 c 0,7,8
 986 925 986 925 986 959 c 0,9,10
 986 975 986 975 990 991 c 0,11,12
 1003 1043 1003 1043 1050 1082 c 0,13,14
 1096 1120 1096 1120 1153 1120 c 0,15,16
 1209 1120 1209 1120 1240 1080 c 0,17,18
 1269 1043 1269 1043 1269 999 c 0,19,20
 1269 980 1269 980 1265 964 c 0,21,22
 1256 929 1256 929 1237 896 c 0,23,24
 1111 671 1111 671 833 489 c 1,25,26
 966 419 966 419 1026 250 c 1,27,-1
 1122 0 l 1,28,-1
 906 0 l 9,29,-1
 816 245 l 17,30,31
 773 340 773 340 672 401 c 1,32,33
 599 360 599 360 492 313 c 1,34,-1
 420 0 l 1,35,-1
 220 0 l 1,0,-1
EndSplineSet
Validated: 1
EndChar

StartChar: v
Encoding: 118 118 190
Width: 1222
Flags: W
HStem: -20 141<534.777 791.826> 862 258<947.732 1069.84> 1080 20G<469.391 674>
VStem: 296 201<158.333 516.969> 474 200<900 1100> 1087 138<486.307 879.94>
DStem2: 215.727 -20 415.188 -20 0.224951 0.97437<361.07 1149.39>
LayerCount: 2
Fore
SplineSet
474 1100 m 25,0,-1
 674 1100 l 25,1,-1
 514 408 l 2,2,3
 497 336 497 336 497 284 c 0,4,5
 497 252 497 252 504 226 c 0,6,7
 531 121 531 121 648 121 c 0,8,9
 791 121 791 121 906 244 c 0,10,11
 1023 369 1023 369 1067 557 c 0,12,13
 1087 643 1087 643 1087 729 c 0,14,15
 1087 808 1087 808 1071 882 c 1,16,17
 1034 862 1034 862 995 862 c 0,18,19
 943 862 943 862 913 899 c 0,20,21
 893 924 893 924 893 959 c 0,22,23
 893 968 893 968 897 990 c 0,24,25
 907 1042 907 1042 955 1082 c 0,26,27
 1001 1120 1001 1120 1055 1120 c 0,28,29
 1147 1120 1147 1120 1183 1020 c 0,30,31
 1225 904 1225 904 1225 771 c 0,32,33
 1225 670 1225 670 1200 556 c 0,34,35
 1150 338 1150 338 1000 182 c 0,36,37
 806 -20 806 -20 604 -20 c 0,38,39
 389 -20 389 -20 324 119 c 0,40,41
 296 179 296 179 296 261 c 0,42,43
 296 328 296 328 315 410 c 2,44,-1
 474 1100 l 25,0,-1
EndSplineSet
Validated: 1
EndChar

StartChar: w
Encoding: 119 119 191
Width: 1852
Flags: W
HStem: -20 141<535.716 763.736 1166.41 1421.83> 862 258<1578.02 1699.84> 1080 20G<469.391 674 1099.39 1304>
VStem: 294 203<158.097 506.172> 474 200<900 1100> 1104 200<900 1100> 1717 138<483.344 879.94>
DStem2: 215.727 -20 415.188 -20 0.224951 0.97437<360.066 1149.39> 845.428 -20 1045.19 -20 0.224951 0.97437<360.133 1149.46>
LayerCount: 2
Fore
SplineSet
474 1100 m 25,0,-1
 674 1100 l 25,1,-1
 514 408 l 2,2,3
 497 334 497 334 497 283 c 0,4,5
 497 254 497 254 504 226 c 0,6,7
 531 121 531 121 648 121 c 0,8,9
 759 121 759 121 837 202 c 128,-1,10
 915 283 915 283 945 410 c 2,11,-1
 1104 1100 l 1,12,-1
 1304 1100 l 1,13,-1
 1144 408 l 2,14,15
 1127 334 1127 334 1127 283 c 0,16,17
 1127 250 1127 250 1134 226 c 0,18,19
 1165 121 1165 121 1278 121 c 0,20,21
 1420 121 1420 121 1536 244 c 0,22,23
 1654 369 1654 369 1697 557 c 0,24,25
 1717 644 1717 644 1717 730 c 0,26,27
 1717 808 1717 808 1701 882 c 1,28,29
 1664 862 1664 862 1625 862 c 0,30,31
 1573 862 1573 862 1543 899 c 0,32,33
 1523 924 1523 924 1523 959 c 0,34,35
 1523 967 1523 967 1527 990 c 0,36,37
 1539 1044 1539 1044 1585 1082 c 128,-1,38
 1631 1120 1631 1120 1685 1120 c 0,39,40
 1777 1120 1777 1120 1813 1020 c 0,41,42
 1855 904 1855 904 1855 771 c 0,43,44
 1855 670 1855 670 1830 556 c 0,45,46
 1781 340 1781 340 1630 182 c 0,47,48
 1437 -20 1437 -20 1234 -20 c 0,49,50
 1024 -20 1024 -20 954 119 c 0,51,52
 945 137 945 137 938 158 c 1,53,54
 895 112 895 112 830 64 c 0,55,56
 716 -20 716 -20 555 -20 c 0,57,58
 404 -20 404 -20 324 119 c 0,59,60
 294 171 294 171 294 252 c 0,61,62
 294 321 294 321 315 410 c 2,63,-1
 474 1100 l 25,0,-1
EndSplineSet
Validated: 1
EndChar

StartChar: y
Encoding: 121 121 192
Width: 1230
Flags: W
HStem: -430 95<376.509 647.495> -20 141<533.787 738.601> 1080 20G<474 669.376 1099.39 1304>
VStem: 181 269<-283.262 -137.16> 298 199<157.72 527.68> 474 200<899 1099> 1104 200<900 1100>
DStem2: 121.071 -430 320.532 -430 0.224951 0.97437<781.855 1569.2> 750.421 -430 950.64 -430 0.224951 0.97437<329.99 588.138 659.927 1570.32>
LayerCount: 2
Fore
SplineSet
474 1099 m 25,0,-1
 674 1100 l 25,1,-1
 514 408 l 2,2,3
 497 336 497 336 497 284 c 0,4,5
 497 252 497 252 504 226 c 0,6,7
 530 121 530 121 648 121 c 0,8,9
 759 121 759 121 837 202 c 128,-1,10
 915 283 915 283 945 410 c 2,11,-1
 1104 1100 l 1,12,-1
 1304 1100 l 1,13,-1
 1073 100 l 2,14,15
 1016 -147 1016 -147 832 -302 c 0,16,17
 680 -430 680 -430 463 -430 c 0,18,19
 336 -430 336 -430 249 -367 c 0,20,21
 181 -318 181 -318 181 -249 c 0,22,23
 181 -232 181 -232 185 -212 c 0,24,25
 199 -157 199 -157 245 -118 c 0,26,27
 290 -80 290 -80 346 -80 c 0,28,29
 398 -80 398 -80 429 -117 c 0,30,31
 450 -142 450 -142 450 -177 c 0,32,33
 450 -195 450 -195 446 -210 c 0,34,35
 431 -265 431 -265 375 -315 c 1,36,37
 411 -335 411 -335 483 -335 c 0,38,39
 611 -335 611 -335 725 -238 c 0,40,41
 812 -164 812 -164 846 -16 c 10,42,-1
 883 143 l 17,43,44
 854 107 854 107 802 66 c 24,45,46
 693 -20 693 -20 555 -20 c 0,47,48
 375 -20 375 -20 324 119 c 0,49,50
 298 190 298 190 298 271 c 0,51,52
 298 337 298 337 315 410 c 2,53,-1
 474 1099 l 25,0,-1
EndSplineSet
Validated: 1
EndChar

StartChar: z
Encoding: 122 122 193
Width: 1068
Flags: W
HStem: -20 94<531.452 838.551> 37 104<400 570.739> 1026 94<534.675 841.401>
VStem: 291 267<803.806 961.97> 815 268<140.242 296.194>
DStem2: 50 -6 400 141 0.660802 0.75056<341.613 1292.37>
LayerCount: 2
Fore
SplineSet
50 -6 m 1,0,-1
 904 964 l 1,1,2
 862 972 862 972 805 995 c 0,3,4
 728 1026 728 1026 672 1026 c 0,5,6
 585 1026 585 1026 532 983 c 1,7,8
 558 945 558 945 558 907 c 0,9,10
 558 898 558 898 554 878 c 0,11,12
 543 827 543 827 494 785 c 0,13,14
 450 748 450 748 395 748 c 0,15,16
 336 748 336 748 310 786 c 0,17,18
 291 814 291 814 291 848 c 0,19,20
 291 862 291 862 294 878 c 0,21,22
 313 977 313 977 445 1048 c 0,23,24
 580 1120 580 1120 697 1120 c 0,25,26
 779 1120 779 1120 881 1085 c 0,27,28
 942 1064 942 1064 1029 1064 c 0,29,30
 1115 1064 1115 1064 1240 1120 c 1,31,-1
 1246 1106 l 1,32,-1
 400 141 l 1,33,34
 484 141 484 141 568 105 c 0,35,36
 640 74 640 74 701 74 c 0,37,38
 788 74 788 74 841 117 c 1,39,40
 815 155 815 155 815 193 c 0,41,42
 815 202 815 202 819 222 c 0,43,44
 830 273 830 273 879 315 c 0,45,46
 923 352 923 352 978 352 c 128,-1,47
 1033 352 1033 352 1062 314 c 0,48,49
 1083 286 1083 286 1083 251 c 0,50,51
 1083 241 1083 241 1079 222 c 0,52,53
 1058 122 1058 122 928 52 c 0,54,55
 794 -20 794 -20 676 -20 c 0,56,57
 593 -20 593 -20 491 15 c 0,58,59
 427 37 427 37 327 37 c 0,60,61
 197 37 197 37 56 -20 c 1,62,-1
 50 -6 l 1,0,-1
EndSplineSet
Validated: 1
EndChar

StartChar: x
Encoding: 120 120 194
Width: 1070
Flags: W
HStem: 0 110<105 304.062> 1080 20G<315 533.26 1030.5 1082.5>
VStem: 315 211<889 1100> 712 220<0 220> 892 276<898.815 1063.36>
DStem2: 526 1100 315 1100 0.346259 -0.938139<0 621.28 713.236 730.642 821.523 1096.36>
LayerCount: 2
Fore
SplineSet
932 0 m 17,0,-1
 712 0 l 1,1,-1
 620 259 l 1,2,3
 461 102 461 102 299 38 c 0,4,5
 202 0 202 0 80 0 c 9,6,-1
 105 110 l 17,7,8
 210 110 210 110 297 150 c 0,9,10
 445 218 445 218 587 363 c 1,11,-1
 315 1100 l 9,12,-1
 526 1100 l 25,13,-1
 738 516 l 1,14,15
 876 678 876 678 996 859 c 1,16,17
 944 859 944 859 913 898 c 0,18,19
 892 924 892 924 892 959 c 0,20,21
 892 974 892 974 896 991 c 0,22,23
 909 1044 909 1044 956 1082 c 0,24,25
 1004 1120 1004 1120 1057 1120 c 0,26,27
 1108 1120 1108 1120 1141 1081 c 0,28,29
 1168 1049 1168 1049 1168 1005 c 0,30,31
 1168 986 1168 986 1163 964 c 0,32,33
 1150 909 1150 909 1107 841 c 0,34,35
 949 594 949 594 777 409 c 1,36,-1
 932 0 l 17,0,-1
EndSplineSet
Validated: 1
EndChar

StartChar: O
Encoding: 79 79 195
Width: 1424
Flags: MW
LayerCount: 2
Fore
SplineSet
338 727 m 0,0,1
 338 570 338 570 370 462 c 1,2,3
 419 268 419 268 502 178 c 0,4,5
 593 80 593 80 712 80 c 0,6,7
 714 80 714 80 715 80 c 0,8,9
 717 80 717 80 718 80 c 0,10,11
 821 80 821 80 930 180 c 1,12,13
 1006 274 1006 274 1045 417 c 0,14,15
 1084 559 1084 559 1084 727 c 0,16,17
 1084 741 1084 741 1084 758 c 0,18,19
 1084 945 1084 945 1045 1069 c 1,20,21
 996 1253 996 1253 910 1346 c 0,22,23
 831 1431 831 1431 713 1431 c 0,24,-1
 711 1431 l 0,25,26
 594 1431 594 1431 520 1364 c 1,27,28
 431 1292 431 1292 382 1096 c 0,29,30
 338 918 338 918 338 727 c 0,0,1
130 744 m 128,-1,32
 130 908 130 908 174 1060 c 128,-1,33
 218 1212 218 1212 294 1314 c 0,34,35
 370 1415 370 1415 474 1475.5 c 128,-1,36
 578 1536 578 1536 712 1536 c 128,-1,37
 846 1536 846 1536 950 1475.5 c 128,-1,38
 1054 1415 1054 1415 1130 1314 c 0,39,40
 1206 1212 1206 1212 1250 1060 c 128,-1,41
 1294 908 1294 908 1294 744 c 128,-1,42
 1294 580 1294 580 1250 439.5 c 128,-1,43
 1206 299 1206 299 1130 197 c 0,44,45
 1054 96 1054 96 950 35.5 c 128,-1,46
 846 -25 846 -25 712 -25 c 128,-1,47
 578 -25 578 -25 474 35.5 c 128,-1,48
 370 96 370 96 294 197 c 0,49,50
 218 299 218 299 174 439.5 c 128,-1,31
 130 580 130 580 130 744 c 128,-1,32
695 1583 m 1,51,-1
 883 1893 l 2,52,53
 886 1898 886 1898 897 1910 c 0,54,55
 923 1939 923 1939 961 1947 c 0,56,57
 976 1950 976 1950 990 1950 c 0,58,59
 1034 1950 1034 1950 1066 1918 c 0,60,61
 1095 1889 1095 1889 1095 1845 c 0,62,63
 1095 1837 1095 1837 1094 1827 c 0,64,65
 1090 1782 1090 1782 1059 1759 c 0,66,-1
 1042 1745 l 2,67,-1
 715 1562 l 1,68,-1
 695 1583 l 1,51,-1
EndSplineSet
Validated: 1
EndChar

StartChar: O
Encoding: 79 79 196
Width: 1424
Flags: MW
LayerCount: 2
Fore
SplineSet
338 727 m 0,0,1
 338 570 338 570 370 462 c 1,2,3
 419 268 419 268 502 178 c 0,4,5
 593 80 593 80 712 80 c 0,6,7
 714 80 714 80 715 80 c 0,8,9
 717 80 717 80 718 80 c 0,10,11
 821 80 821 80 930 180 c 1,12,13
 1006 274 1006 274 1045 417 c 0,14,15
 1084 559 1084 559 1084 727 c 0,16,17
 1084 741 1084 741 1084 758 c 0,18,19
 1084 945 1084 945 1045 1069 c 1,20,21
 996 1253 996 1253 910 1346 c 0,22,23
 831 1431 831 1431 713 1431 c 0,24,-1
 711 1431 l 0,25,26
 594 1431 594 1431 520 1364 c 1,27,28
 431 1292 431 1292 382 1096 c 0,29,30
 338 918 338 918 338 727 c 0,0,1
130 744 m 128,-1,32
 130 908 130 908 174 1060 c 128,-1,33
 218 1212 218 1212 294 1314 c 0,34,35
 370 1415 370 1415 474 1475.5 c 128,-1,36
 578 1536 578 1536 712 1536 c 128,-1,37
 846 1536 846 1536 950 1475.5 c 128,-1,38
 1054 1415 1054 1415 1130 1314 c 0,39,40
 1206 1212 1206 1212 1250 1060 c 128,-1,41
 1294 908 1294 908 1294 744 c 128,-1,42
 1294 580 1294 580 1250 439.5 c 128,-1,43
 1206 299 1206 299 1130 197 c 0,44,45
 1054 96 1054 96 950 35.5 c 128,-1,46
 846 -25 846 -25 712 -25 c 128,-1,47
 578 -25 578 -25 474 35.5 c 128,-1,48
 370 96 370 96 294 197 c 0,49,50
 218 299 218 299 174 439.5 c 128,-1,31
 130 580 130 580 130 744 c 128,-1,32
732 1583 m 1,51,-1
 712 1562 l 1,52,-1
 385 1745 l 2,53,-1
 368 1759 l 0,54,55
 337 1782 337 1782 333 1827 c 0,56,57
 332 1837 332 1837 332 1845 c 0,58,59
 332 1889 332 1889 361 1918 c 0,60,61
 393 1950 393 1950 437 1950 c 0,62,63
 452 1950 452 1950 466 1947 c 0,64,65
 504 1939 504 1939 530 1910 c 0,66,67
 541 1898 541 1898 544 1893 c 2,68,-1
 732 1583 l 1,51,-1
EndSplineSet
Validated: 1
EndChar

StartChar: O
Encoding: 79 79 197
Width: 1424
Flags: MW
LayerCount: 2
Fore
SplineSet
338 727 m 0,0,1
 338 570 338 570 370 462 c 1,2,3
 419 268 419 268 502 178 c 0,4,5
 593 80 593 80 712 80 c 0,6,7
 714 80 714 80 715 80 c 0,8,9
 717 80 717 80 718 80 c 0,10,11
 821 80 821 80 930 180 c 1,12,13
 1006 274 1006 274 1045 417 c 0,14,15
 1084 559 1084 559 1084 727 c 0,16,17
 1084 741 1084 741 1084 758 c 0,18,19
 1084 945 1084 945 1045 1069 c 1,20,21
 996 1253 996 1253 910 1346 c 0,22,23
 831 1431 831 1431 713 1431 c 0,24,-1
 711 1431 l 0,25,26
 594 1431 594 1431 520 1364 c 1,27,28
 431 1292 431 1292 382 1096 c 0,29,30
 338 918 338 918 338 727 c 0,0,1
130 744 m 128,-1,32
 130 908 130 908 174 1060 c 128,-1,33
 218 1212 218 1212 294 1314 c 0,34,35
 370 1415 370 1415 474 1475.5 c 128,-1,36
 578 1536 578 1536 712 1536 c 128,-1,37
 846 1536 846 1536 950 1475.5 c 128,-1,38
 1054 1415 1054 1415 1130 1314 c 0,39,40
 1206 1212 1206 1212 1250 1060 c 128,-1,41
 1294 908 1294 908 1294 744 c 128,-1,42
 1294 580 1294 580 1250 439.5 c 128,-1,43
 1206 299 1206 299 1130 197 c 0,44,45
 1054 96 1054 96 950 35.5 c 128,-1,46
 846 -25 846 -25 712 -25 c 128,-1,47
 578 -25 578 -25 474 35.5 c 128,-1,48
 370 96 370 96 294 197 c 0,49,50
 218 299 218 299 174 439.5 c 128,-1,31
 130 580 130 580 130 744 c 128,-1,32
427 1583 m 1,51,-1
 615 1893 l 2,52,53
 617 1896 617 1896 629 1910 c 0,54,55
 647 1933 647 1933 679 1943 c 0,56,57
 701 1950 701 1950 717 1950 c 2,58,-1
 720 1950 l 1,59,-1
 722 1950 l 2,60,61
 736 1950 736 1950 760 1943 c 0,62,63
 787 1935 787 1935 810 1910 c 0,64,65
 821 1898 821 1898 824 1893 c 2,66,-1
 1012 1583 l 1,67,-1
 992 1562 l 1,68,-1
 722 1742 l 1,69,-1
 447 1562 l 1,70,-1
 427 1583 l 1,51,-1
EndSplineSet
Validated: 1
EndChar

StartChar: O
Encoding: 79 79 198
Width: 1424
Flags: MW
LayerCount: 2
Fore
SplineSet
338 727 m 0,0,1
 338 570 338 570 370 462 c 1,2,3
 419 268 419 268 502 178 c 0,4,5
 593 80 593 80 712 80 c 0,6,7
 714 80 714 80 715 80 c 0,8,9
 717 80 717 80 718 80 c 0,10,11
 821 80 821 80 930 180 c 1,12,13
 1006 274 1006 274 1045 417 c 0,14,15
 1084 559 1084 559 1084 727 c 0,16,17
 1084 741 1084 741 1084 758 c 0,18,19
 1084 945 1084 945 1045 1069 c 1,20,21
 996 1253 996 1253 910 1346 c 0,22,23
 831 1431 831 1431 713 1431 c 0,24,-1
 711 1431 l 0,25,26
 594 1431 594 1431 520 1364 c 1,27,28
 431 1292 431 1292 382 1096 c 0,29,30
 338 918 338 918 338 727 c 0,0,1
130 744 m 128,-1,32
 130 908 130 908 174 1060 c 128,-1,33
 218 1212 218 1212 294 1314 c 0,34,35
 370 1415 370 1415 474 1475.5 c 128,-1,36
 578 1536 578 1536 712 1536 c 128,-1,37
 846 1536 846 1536 950 1475.5 c 128,-1,38
 1054 1415 1054 1415 1130 1314 c 0,39,40
 1206 1212 1206 1212 1250 1060 c 128,-1,41
 1294 908 1294 908 1294 744 c 128,-1,42
 1294 580 1294 580 1250 439.5 c 128,-1,43
 1206 299 1206 299 1130 197 c 0,44,45
 1054 96 1054 96 950 35.5 c 128,-1,46
 846 -25 846 -25 712 -25 c 128,-1,47
 578 -25 578 -25 474 35.5 c 128,-1,48
 370 96 370 96 294 197 c 0,49,50
 218 299 218 299 174 439.5 c 128,-1,31
 130 580 130 580 130 744 c 128,-1,32
426 1700 m 1,51,52
 485 1950 485 1950 611 1950 c 0,53,54
 624 1950 624 1950 641 1946 c 0,55,56
 679 1937 679 1937 771 1875 c 1,57,-1
 858 1814 l 0,58,59
 884 1792 884 1792 916 1792 c 0,60,61
 918 1792 918 1792 919 1792 c 0,62,63
 980 1792 980 1792 1064 1902 c 1,64,65
 1010 1644 1010 1644 882 1633 c 0,66,67
 870 1632 870 1632 858 1635 c 0,68,69
 818 1645 818 1645 727 1709 c 1,70,-1
 641 1767 l 0,71,72
 613 1787 613 1787 579 1788 c 0,73,-1
 578 1788 l 0,74,75
 514 1788 514 1788 426 1700 c 1,51,52
EndSplineSet
Validated: 1
EndChar

StartChar: O
Encoding: 79 79 199
Width: 1424
Flags: MW
LayerCount: 2
Fore
SplineSet
338 727 m 0,0,1
 338 570 338 570 370 462 c 1,2,3
 419 268 419 268 502 178 c 0,4,5
 593 80 593 80 712 80 c 0,6,7
 714 80 714 80 715 80 c 0,8,9
 717 80 717 80 718 80 c 0,10,11
 821 80 821 80 930 180 c 1,12,13
 1006 274 1006 274 1045 417 c 0,14,15
 1084 559 1084 559 1084 727 c 0,16,17
 1084 741 1084 741 1084 758 c 0,18,19
 1084 945 1084 945 1045 1069 c 1,20,21
 996 1253 996 1253 910 1346 c 0,22,23
 831 1431 831 1431 713 1431 c 0,24,-1
 711 1431 l 0,25,26
 594 1431 594 1431 520 1364 c 1,27,28
 431 1292 431 1292 382 1096 c 0,29,30
 338 918 338 918 338 727 c 0,0,1
130 744 m 128,-1,32
 130 908 130 908 174 1060 c 128,-1,33
 218 1212 218 1212 294 1314 c 0,34,35
 370 1415 370 1415 474 1475.5 c 128,-1,36
 578 1536 578 1536 712 1536 c 128,-1,37
 846 1536 846 1536 950 1475.5 c 128,-1,38
 1054 1415 1054 1415 1130 1314 c 0,39,40
 1206 1212 1206 1212 1250 1060 c 128,-1,41
 1294 908 1294 908 1294 744 c 128,-1,42
 1294 580 1294 580 1250 439.5 c 128,-1,43
 1206 299 1206 299 1130 197 c 0,44,45
 1054 96 1054 96 950 35.5 c 128,-1,46
 846 -25 846 -25 712 -25 c 128,-1,47
 578 -25 578 -25 474 35.5 c 128,-1,48
 370 96 370 96 294 197 c 0,49,50
 218 299 218 299 174 439.5 c 128,-1,31
 130 580 130 580 130 744 c 128,-1,32
754 1804 m 128,-1,52
 754 1859 754 1859 792 1897.5 c 128,-1,53
 830 1936 830 1936 884 1936 c 128,-1,54
 938 1936 938 1936 976 1897.5 c 128,-1,55
 1014 1859 1014 1859 1014 1804 c 128,-1,56
 1014 1749 1014 1749 976 1710.5 c 128,-1,57
 938 1672 938 1672 884 1672 c 128,-1,58
 830 1672 830 1672 792 1710.5 c 128,-1,51
 754 1749 754 1749 754 1804 c 128,-1,52
417 1804 m 128,-1,60
 417 1859 417 1859 455 1897.5 c 128,-1,61
 493 1936 493 1936 547 1936 c 128,-1,62
 601 1936 601 1936 639 1897.5 c 128,-1,63
 677 1859 677 1859 677 1804 c 128,-1,64
 677 1749 677 1749 639 1710.5 c 128,-1,65
 601 1672 601 1672 547 1672 c 128,-1,66
 493 1672 493 1672 455 1710.5 c 128,-1,59
 417 1749 417 1749 417 1804 c 128,-1,60
EndSplineSet
Validated: 1
EndChar

StartChar: O
Encoding: 79 79 200
Width: 1424
Flags: MW
LayerCount: 2
Fore
SplineSet
130 744 m 128,-1,1
 130 908 130 908 174 1060 c 128,-1,2
 218 1212 218 1212 294 1314 c 0,3,4
 370 1415 370 1415 474 1475.5 c 128,-1,5
 578 1536 578 1536 712 1536 c 0,6,7
 843 1536 843 1536 945 1479 c 1,8,-1
 1014 1634 l 1,9,-1
 1148 1568 l 1,10,-1
 1067 1386 l 1,11,12
 1101 1353 1101 1353 1130 1314 c 0,13,14
 1206 1212 1206 1212 1250 1060 c 128,-1,15
 1294 908 1294 908 1294 744 c 128,-1,16
 1294 580 1294 580 1250 439.5 c 128,-1,17
 1206 299 1206 299 1130 197 c 0,18,19
 1054 96 1054 96 950 35.5 c 128,-1,20
 846 -25 846 -25 712 -25 c 128,-1,21
 578 -25 578 -25 474 36 c 2,22,-1
 466 40 l 1,23,-1
 396 -118 l 1,24,-1
 262 -48 l 1,25,-1
 345 137 l 1,26,27
 318 165 318 165 294 197 c 0,28,29
 218 298 218 298 174 440 c 0,30,0
 130 580 130 580 130 744 c 128,-1,1
338 727 m 0,31,32
 338 570 338 570 370 462 c 1,33,34
 392 374 392 374 421 308 c 1,35,-1
 893 1363 l 1,36,37
 819 1431 819 1431 713 1431 c 2,38,-1
 711 1431 l 2,39,40
 594 1431 594 1431 520 1364 c 1,41,42
 431 1292 431 1292 382 1096 c 0,43,44
 338 918 338 918 338 727 c 0,31,32
992 1219 m 1,45,-1
 520 160 l 1,46,47
 605 80 605 80 712 80 c 2,48,-1
 715 80 l 1,49,-1
 718 80 l 2,50,51
 821 80 821 80 930 180 c 1,52,53
 1006 274 1006 274 1045 417 c 0,54,55
 1084 559 1084 559 1084 727 c 2,56,-1
 1084 758 l 2,57,58
 1084 945 1084 945 1045 1069 c 1,59,60
 1023 1153 1023 1153 992 1219 c 1,45,-1
EndSplineSet
Validated: 1
EndChar

StartChar: O
Encoding: 79 79 201
Width: 1424
Flags: MW
LayerCount: 2
Fore
SplineSet
338 727 m 0,0,1
 338 570 338 570 370 462 c 1,2,3
 419 268 419 268 502 178 c 0,4,5
 593 80 593 80 712 80 c 0,6,7
 714 80 714 80 715 80 c 0,8,9
 717 80 717 80 718 80 c 0,10,11
 821 80 821 80 930 180 c 1,12,13
 1006 274 1006 274 1045 417 c 0,14,15
 1084 559 1084 559 1084 727 c 0,16,17
 1084 741 1084 741 1084 758 c 0,18,19
 1084 945 1084 945 1045 1069 c 1,20,21
 996 1253 996 1253 910 1346 c 0,22,23
 831 1431 831 1431 713 1431 c 0,24,-1
 711 1431 l 0,25,26
 594 1431 594 1431 520 1364 c 1,27,28
 431 1292 431 1292 382 1096 c 0,29,30
 338 918 338 918 338 727 c 0,0,1
130 744 m 128,-1,32
 130 908 130 908 174 1060 c 128,-1,33
 218 1212 218 1212 294 1314 c 0,34,35
 370 1415 370 1415 474 1475.5 c 128,-1,36
 578 1536 578 1536 712 1536 c 128,-1,37
 846 1536 846 1536 950 1475.5 c 128,-1,38
 1054 1415 1054 1415 1130 1314 c 0,39,40
 1206 1212 1206 1212 1250 1060 c 128,-1,41
 1294 908 1294 908 1294 744 c 128,-1,42
 1294 580 1294 580 1250 439.5 c 128,-1,43
 1206 299 1206 299 1130 197 c 0,44,45
 1054 96 1054 96 950 35.5 c 128,-1,46
 846 -25 846 -25 712 -25 c 128,-1,47
 578 -25 578 -25 474 35.5 c 128,-1,48
 370 96 370 96 294 197 c 0,49,50
 218 299 218 299 174 439.5 c 128,-1,31
 130 580 130 580 130 744 c 128,-1,32
426 1950 m 1,51,-1
 1009 1950 l 1,52,-1
 1009 1773 l 1,53,-1
 426 1773 l 1,54,-1
 426 1950 l 1,51,-1
EndSplineSet
Validated: 1
EndChar

